<svg xmlns="http://www.w3.org/2000/svg" width="43" height="66" viewBox="0 0 43 66"><g><g><path d="M39.8 56.692c-.031 0-.041-.008-.032 0zm-.032 0H12.092c-.01.01-.04.037-.09.115-.099.15-.197.443-.197.782v4.852c0 .339.098.632.196.783.049.076.08.104.09.114h27.677a.529.529 0 0 0 .091-.114c.098-.15.196-.444.196-.783v-4.852c0-.339-.098-.631-.196-.782-.05-.078-.081-.106-.09-.115zm-27.707 0h.03c.01-.008 0 0-.03 0zm19.659-40.73a.859.859 0 0 1 .748.412.812.812 0 0 1 0 .837.859.859 0 0 1-.748.412h-6.583a.859.859 0 0 1-.748-.412.812.812 0 0 1 0-.837.859.859 0 0 1 .748-.413zm-20.77 0a.86.86 0 0 1 .749.412.811.811 0 0 1 0 .837.86.86 0 0 1-.75.412H4.36a.86.86 0 0 1-.75-.412.811.811 0 0 1 0-.837.86.86 0 0 1 .75-.413zm7.393-3.326c-1.363 0-2.39.987-2.387 2.184l.066 22.854v.02s-.002.327-.062.692c-.03.182-.067.375-.169.603-.05.114-.116.243-.254.383s-.39.29-.676.305c-.543.026-.91-.3-1.082-.513-.063-.077-.1-.145-.14-.212l-7.626-7.179c-.784-.738-1.908-.72-2.567-.033l-.382.4c-.327.34-.433.704-.394 1.159.038.454.26.987.641 1.466l11.915 14.964a5.767 5.767 0 0 0 .173.24c.087.128.189.257.283.511.108.287.126.504.149.704a6.295 6.295 0 0 1 .033.41v2.59h20.377c-.047-.882-.096-2.507.111-3.638.15-.818.394-1.253.62-1.694.225-.441.5-1.024.914-2.54.343-1.257.508-5.188.516-8.614.008-3.426-.09-6.468-.09-6.468a.835.835 0 0 1 .003-.101c.102-1.16-.95-2.13-2.113-2.13-1.165 0-2.109.95-2.109 2.203v4.294a.84.84 0 0 1-.422.738.857.857 0 0 1-.856 0 .84.84 0 0 1-.421-.738v-4.294l.001-.023a.838.838 0 0 1-.001-.037v-1.146c0-1.292-.94-2.251-2.067-2.251-1.128 0-2.067.96-2.067 2.251v4.361a.84.84 0 0 1-.422.738.857.857 0 0 1-.856 0 .84.84 0 0 1-.421-.738v-4.36c0-.032.003-.062.003-.093a.829.829 0 0 1 0-.054v-1.094c0-1.292-.94-2.253-2.068-2.253-1.127 0-2.066.96-2.066 2.253v4.382a.84.84 0 0 1-.423.738.857.857 0 0 1-.855 0 .84.84 0 0 1-.422-.738V14.821c0-1.198-1.024-2.185-2.387-2.185zm0-1.661c2.22 0 4.079 1.73 4.079 3.909v10.762a3.577 3.577 0 0 1 2.063-.658c1.491 0 2.756.92 3.367 2.225a3.61 3.61 0 0 1 2.452-.97c1.497 0 2.766.925 3.374 2.238.666-.601 1.534-.97 2.49-.97 2.08 0 3.93 1.725 3.8 3.9 0 0 .1 3.099.092 6.595-.007 3.496-.07 7.27-.575 9.145-.435 1.615-.783 2.389-1.036 2.89-.253.502-.344.594-.462 1.247-.16.886-.095 2.678-.065 3.375h1.855c.673 0 1.2.437 1.501.925.301.488.45 1.075.45 1.712v5.063c0 .636-.149 1.224-.45 1.712-.301.488-.828.925-1.501.925H12.193c-.673 0-1.2-.437-1.501-.925-.302-.488-.45-1.076-.45-1.712V57.3c0-.637.148-1.224.45-1.712.301-.489.828-.925 1.501-.925h1.98v-2.584c0-.012-.005-.112-.022-.253-.013-.116-.044-.261-.052-.305-.014-.021-.058-.105-.099-.166a3.612 3.612 0 0 0-.099-.141L2.009 36.092c-.555-.706-.925-1.53-.997-2.395a3.213 3.213 0 0 1 .853-2.484l.381-.403a3.348 3.348 0 0 1 2.446-1.04c.9 0 1.81.34 2.514 1.01l7.125 6.792-.065-22.687c-.007-2.18 1.859-3.911 4.078-3.91zm10.852-6.65a.881.881 0 0 1 .83.559.911.911 0 0 1-.208.991l-4.87 4.835a.87.87 0 0 1-.859.231.89.89 0 0 1-.62-.65.91.91 0 0 1 .25-.869l4.869-4.835a.873.873 0 0 1 .608-.262zm-21.509 0a.873.873 0 0 1 .636.262l4.87 4.835a.91.91 0 0 1 .25.87.89.89 0 0 1-.62.65.87.87 0 0 1-.86-.232l-4.87-4.835a.911.911 0 0 1-.213-.978c.13-.34.449-.567.807-.572zM18.446 1a.827.827 0 0 1 .604.25c.16.163.249.385.246.616v6.581a.858.858 0 0 1-.415.749.821.821 0 0 1-.843 0 .858.858 0 0 1-.415-.749V1.866A.846.846 0 0 1 18.447 1z"/><path fill="none" stroke="#f9f9fa" stroke-miterlimit="50" stroke-width=".5" d="M39.8 56.692c-.031 0-.041-.008-.032 0zm-.032 0H12.092c-.01.01-.04.037-.09.115-.099.15-.197.443-.197.782v4.852c0 .339.098.632.196.783.049.076.08.104.09.114h27.677a.529.529 0 0 0 .091-.114c.098-.15.196-.444.196-.783v-4.852c0-.339-.098-.631-.196-.782-.05-.078-.081-.106-.09-.115zm-27.707 0h.03c.01-.008 0 0-.03 0zm19.659-40.73a.859.859 0 0 1 .748.412.812.812 0 0 1 0 .837.859.859 0 0 1-.748.412h-6.583a.859.859 0 0 1-.748-.412.812.812 0 0 1 0-.837.859.859 0 0 1 .748-.413zm-20.77 0a.86.86 0 0 1 .749.412.811.811 0 0 1 0 .837.86.86 0 0 1-.75.412H4.36a.86.86 0 0 1-.75-.412.811.811 0 0 1 0-.837.86.86 0 0 1 .75-.413zm7.393-3.326c-1.363 0-2.39.987-2.387 2.184l.066 22.854v.02s-.002.327-.062.692c-.03.182-.067.375-.169.603-.05.114-.116.243-.254.383s-.39.29-.676.305c-.543.026-.91-.3-1.082-.513-.063-.077-.1-.145-.14-.212l-7.626-7.179c-.784-.738-1.908-.72-2.567-.033l-.382.4c-.327.34-.433.704-.394 1.159.038.454.26.987.641 1.466l11.915 14.964a5.767 5.767 0 0 0 .173.24c.087.128.189.257.283.511.108.287.126.504.149.704a6.295 6.295 0 0 1 .033.41v2.59h20.377c-.047-.882-.096-2.507.111-3.638.15-.818.394-1.253.62-1.694.225-.441.5-1.024.914-2.54.343-1.257.508-5.188.516-8.614.008-3.426-.09-6.468-.09-6.468a.835.835 0 0 1 .003-.101c.102-1.16-.95-2.13-2.113-2.13-1.165 0-2.109.95-2.109 2.203v4.294a.84.84 0 0 1-.422.738.857.857 0 0 1-.856 0 .84.84 0 0 1-.421-.738v-4.294l.001-.023a.838.838 0 0 1-.001-.037v-1.146c0-1.292-.94-2.251-2.067-2.251-1.128 0-2.067.96-2.067 2.251v4.361a.84.84 0 0 1-.422.738.857.857 0 0 1-.856 0 .84.84 0 0 1-.421-.738v-4.36c0-.032.003-.062.003-.093a.829.829 0 0 1 0-.054v-1.094c0-1.292-.94-2.253-2.068-2.253-1.127 0-2.066.96-2.066 2.253v4.382a.84.84 0 0 1-.423.738.857.857 0 0 1-.855 0 .84.84 0 0 1-.422-.738V14.821c0-1.198-1.024-2.185-2.387-2.185zm0-1.661c2.22 0 4.079 1.73 4.079 3.909v10.762a3.577 3.577 0 0 1 2.063-.658c1.491 0 2.756.92 3.367 2.225a3.61 3.61 0 0 1 2.452-.97c1.497 0 2.766.925 3.374 2.238.666-.601 1.534-.97 2.49-.97 2.08 0 3.93 1.725 3.8 3.9 0 0 .1 3.099.092 6.595-.007 3.496-.07 7.27-.575 9.145-.435 1.615-.783 2.389-1.036 2.89-.253.502-.344.594-.462 1.247-.16.886-.095 2.678-.065 3.375h1.855c.673 0 1.2.437 1.501.925.301.488.45 1.075.45 1.712v5.063c0 .636-.149 1.224-.45 1.712-.301.488-.828.925-1.501.925H12.193c-.673 0-1.2-.437-1.501-.925-.302-.488-.45-1.076-.45-1.712V57.3c0-.637.148-1.224.45-1.712.301-.489.828-.925 1.501-.925h1.98v-2.584c0-.012-.005-.112-.022-.253-.013-.116-.044-.261-.052-.305-.014-.021-.058-.105-.099-.166a3.612 3.612 0 0 0-.099-.141L2.009 36.092c-.555-.706-.925-1.53-.997-2.395a3.213 3.213 0 0 1 .853-2.484l.381-.403a3.348 3.348 0 0 1 2.446-1.04c.9 0 1.81.34 2.514 1.01l7.125 6.792-.065-22.687c-.007-2.18 1.859-3.911 4.078-3.91zm10.852-6.65a.881.881 0 0 1 .83.559.911.911 0 0 1-.208.991l-4.87 4.835a.87.87 0 0 1-.859.231.89.89 0 0 1-.62-.65.91.91 0 0 1 .25-.869l4.869-4.835a.873.873 0 0 1 .608-.262zm-21.509 0a.873.873 0 0 1 .636.262l4.87 4.835a.91.91 0 0 1 .25.87.89.89 0 0 1-.62.65.87.87 0 0 1-.86-.232l-4.87-4.835a.911.911 0 0 1-.213-.978c.13-.34.449-.567.807-.572zM18.446 1a.827.827 0 0 1 .604.25c.16.163.249.385.246.616v6.581a.858.858 0 0 1-.415.749.821.821 0 0 1-.843 0 .858.858 0 0 1-.415-.749V1.866A.846.846 0 0 1 18.447 1z"/></g></g></svg>