<?xml version="1.0" encoding="UTF-8"?>
<svg width="16px" height="15px" viewBox="0 0 16 15" version="1.1" xmlns="http://www.w3.org/2000/svg" xmlns:xlink="http://www.w3.org/1999/xlink">
    <!-- Generator: Sketch 62 (91390) - https://sketch.com -->
    <title>Comment Icon</title>
    <desc>Created with Sketch.</desc>
    <g id="About-Us-&amp;-Blog" stroke="none" stroke-width="1" fill="none" fill-rule="evenodd" opacity="0.5">
        <g id="Blog-Details-1" transform="translate(-409.000000, -3504.000000)">
            <g id="Comment-Section" transform="translate(0.000000, 3034.000000)">
                <g id="Comment-1" transform="translate(150.000000, 281.000000)">
                    <g id="Replies" transform="translate(257.000000, 187.000000)">
                        <g id="Comment-Icon">
                            <rect id="Boundy" x="0" y="0" width="20" height="20"></rect>
                            <g id="Group" transform="translate(2.500000, 2.500000)" fill="#000000" fill-rule="nonzero" stroke="#000000" stroke-width="0.25">
                                <path d="M2.53393665,9.59276018 L3.07692308,9.59276018 L3.07692308,11.7647059 C3.07692308,11.9095023 3.14932127,12.0361991 3.2760181,12.0904977 C3.33031674,12.1085973 3.38461538,12.1266968 3.43891403,12.1266968 C3.51131222,12.1266968 3.60180995,12.1085973 3.6561086,12.0542986 L6.73303167,9.59276018 L10.1357466,9.59276018 C11.5294118,9.59276018 12.6696833,8.45248869 12.6696833,7.05882353 L12.6696833,2.53393665 C12.6696833,1.14027149 11.5294118,0 10.1357466,0 L2.53393665,0 C1.14027149,0 0,1.14027149 0,2.53393665 L0,7.05882353 C0,8.45248869 1.14027149,9.59276018 2.53393665,9.59276018 Z M0.7239819,2.53393665 C0.7239819,1.53846154 1.53846154,0.7239819 2.53393665,0.7239819 L10.1357466,0.7239819 C11.1312217,0.7239819 11.9457014,1.53846154 11.9457014,2.53393665 L11.9457014,7.05882353 C11.9457014,8.05429864 11.1312217,8.86877828 10.1357466,8.86877828 L6.60633484,8.86877828 C6.5158371,8.86877828 6.44343891,8.90497738 6.38914027,8.94117647 L3.80090498,11.0045249 L3.80090498,9.23076923 C3.80090498,9.03167421 3.63800905,8.86877828 3.43891403,8.86877828 L2.53393665,8.86877828 C1.53846154,8.86877828 0.7239819,8.05429864 0.7239819,7.05882353 L0.7239819,2.53393665 Z" id="Shape"></path>
                                <path d="M13.1945701,7.36651584 C13.158371,7.56561086 13.2669683,7.74660633 13.4660633,7.80090498 C13.8461538,7.89140271 14.1176471,8.23529412 14.1176471,8.63348416 L14.1176471,11.1493213 C14.1176471,11.6199095 13.6470588,11.9457014 13.2126697,11.9457014 L12.8506787,11.9457014 C12.6515837,11.9457014 12.4886878,12.1085973 12.4886878,12.3076923 L12.4886878,12.9954751 L11.2579186,12.0180995 C11.2036199,11.9819005 11.1312217,11.9457014 11.040724,11.9457014 L9.23076923,11.9457014 C8.79638009,11.9457014 8.32579186,11.6199095 8.32579186,11.1493213 L8.32579186,10.4434389 C8.32579186,10.2443439 8.16289593,10.081448 7.9638009,10.081448 C7.76470588,10.081448 7.60180995,10.2443439 7.60180995,10.4434389 L7.60180995,11.1493213 C7.60180995,11.9819005 8.3438914,12.6696833 9.23076923,12.6696833 L10.9140271,12.6696833 L12.6334842,14.0452489 C12.7058824,14.0995475 12.7782805,14.1176471 12.8506787,14.1176471 C12.9049774,14.1176471 12.959276,14.0995475 13.0135747,14.081448 C13.1402715,14.0271493 13.2126697,13.9004525 13.2126697,13.7556561 L13.2126697,12.6696833 C14.0995475,12.6696833 14.841629,11.9638009 14.841629,11.1493213 L14.841629,8.63348416 C14.841629,7.90950226 14.3348416,7.25791855 13.6289593,7.09502262 C13.4479638,7.05882353 13.2488688,7.16742081 13.1945701,7.36651584 Z" id="Path"></path>
                            </g>
                        </g>
                    </g>
                </g>
            </g>
        </g>
    </g>
</svg>