<svg xmlns="http://www.w3.org/2000/svg" width="14" height="10" viewBox="0 0 14 10"><g><g opacity=".5"><path d="M0 5c1.211-2.85 3.5-5 7-5s5.789 2.15 7 5c-1.211 2.85-3.5 5-7 5S1.211 7.85 0 5zm5.727 0c0 .693.565 1.25 1.268 1.25.703 0 1.268-.557 1.268-1.25s-.565-1.25-1.268-1.25c-.703 0-1.268.557-1.268 1.25zM4.455 5c0-1.383 1.139-2.5 2.55-2.5 1.411 0 2.55 1.117 2.55 2.5s-1.139 2.5-2.55 2.5c-1.411 0-2.55-1.117-2.55-2.5zm2.55 3.75c2.53 0 4.436-1.347 5.611-3.75-1.175-2.403-3.081-3.75-5.611-3.75S2.569 2.597 1.394 5c1.175 2.403 3.081 3.75 5.611 3.75z"/></g></g></svg>