<svg xmlns="http://www.w3.org/2000/svg" width="47" height="66" viewBox="0 0 47 66"><g><g><path d="M6.793 34.3l.088.037 5.053 3.552c.004.263-.045.523-.144.766a2 2 0 0 1-2.632 1.036l-3.962-1.725c-.012-.005-.023-.014-.035-.019a1.991 1.991 0 0 1-.33-.188L4.8 37.73a2.026 2.026 0 0 1-.6-.742c0-.006-.011-.01-.014-.016-.017-.037-.04-.07-.055-.108A2 2 0 0 1 6.793 34.3zm-.046-5a2 2 0 0 1 2.793-.449l1.04.752 5.448 5.078v.042a1.981 1.981 0 0 1-.385 1.047c-.067.09-.141.174-.222.251-.007.007-.016.012-.023.02-.554.5-1.339.654-2.04.4l-5.4-3.8-.753-.546a2 2 0 0 1-.458-2.796zm3.566-5.61a2.007 2.007 0 0 1 2.85.027l3.92 4.37c-.052.154-.1.314-.14.484a6.94 6.94 0 0 0 .41 4.63l-5.443-5.084-1.598-1.6a2.001 2.001 0 0 1 0-2.829zm8.105-2.67l.492.775 3 4.734-.987-.364a2.978 2.978 0 0 0-2.292.142 3.086 3.086 0 0 0-.286.176l-3.548-3.949c-.196-.822.15-1.679.862-2.135a2 2 0 0 1 2.759.62zm8.686-5.637a2.966 2.966 0 0 0 .8-2.733 7.994 7.994 0 0 1 5.464-9.294 7.778 7.778 0 0 1 3.23-.294l-2.786 2.842a3 3 0 0 0 0 4.242l2.83 2.83a3.068 3.068 0 0 0 4.25-.008l2.795-2.858a7.997 7.997 0 0 1-9.606 8.708 2.983 2.983 0 0 0-2.739.807L24.24 26.66c-.007-.02-.02-.038-.028-.058a3.899 3.899 0 0 0-.356-.743v-.006L21.034 21.4zM30.172 32.2a6.004 6.004 0 0 1 1.83 3.427l1.129 6.961a6.02 6.02 0 0 1-1.664 5.187 1.078 1.078 0 0 0-.07.08l-6.562 8.181A9.562 9.562 0 0 0 22.734 62a1 1 0 0 1-1 1H9.729a1 1 0 0 1-1-1v-3.54a12.155 12.155 0 0 0-.956-4.677 28.029 28.029 0 0 1-1.941-8.429h.038c.043 0 .085.012.128.012.207-.007.414-.026.62-.058.084-.01.17-.01.254-.024.238-.046.472-.109.7-.189.084-.027.17-.042.253-.073a5.11 5.11 0 0 0 .727-.367c.05-.03.107-.05.157-.082.288-.182.556-.394.8-.632l5.61-5.5a3.902 3.902 0 0 0 1.7-.979l.053-.052c.15-.15.289-.31.415-.48.324-.449.55-.96.664-1.5.31.006.62-.024.924-.09a6.889 6.889 0 0 0 2.559 1.57l2.381.905c.53.202.905.681.972 1.244a1.551 1.551 0 0 1-1.023 1.625c-5.355 2.012-8.39 5.44-9.02 10.184a1 1 0 1 0 1.982.264c.534-4.014 3.067-6.819 7.743-8.576a3.525 3.525 0 0 0 .058-6.61l-2.412-.917A4.963 4.963 0 0 1 19.55 33c-.06-.09-.118-.18-.171-.276a5.088 5.088 0 0 1-.271-.584c-.052-.13-.106-.259-.147-.392-.041-.133-.07-.248-.1-.374a4.958 4.958 0 0 1-.073-.45c-.015-.13-.036-.259-.043-.39v-.117c-.004-.185.003-.37.02-.554.006-.064.01-.128.02-.2.006-.05.012-.1.02-.152.043-.28.11-.558.2-.828a1 1 0 0 1 1.25-.628l7.902 2.911a5.995 5.995 0 0 1 2.015 1.234zM3.29 39.07c.054.05.116.088.172.135.1.084.2.171.312.245.196.134.405.25.622.346l3.962 1.725c.178.077.362.142.549.193l-.811.8a2.963 2.963 0 0 1-.55.418 2.88 2.88 0 0 1-.33.171c-.061.026-.121.055-.183.077a2.994 2.994 0 0 1-.668.156 3.043 3.043 0 0 1-1.295-.126h-.02a2.989 2.989 0 0 1-1.76-4.132zm-.83 4.835c.393.383.847.698 1.344.932a30.479 30.479 0 0 0 2.123 9.712c.522 1.239.794 2.568.8 3.911V62a3 3 0 0 0 3 3h12a3 3 0 0 0 3-3 7.558 7.558 0 0 1 1.656-4.712l6.53-8.142c.113-.115.21-.242.315-.363.105-.12.2-.216.289-.332.089-.116.187-.27.279-.406.092-.136.174-.242.25-.369.078-.127.156-.29.232-.438.067-.129.142-.255.2-.388.07-.155.123-.316.184-.475.049-.132.107-.26.15-.4.054-.169.09-.343.133-.515.032-.129.073-.256.1-.386.035-.18.052-.365.075-.547.016-.127.04-.252.05-.379.017-.209.013-.419.013-.629 0-.1.009-.206.005-.309a7.907 7.907 0 0 0-.1-.943l-.078-.485-1.043-6.473a7.945 7.945 0 0 0-.6-1.995c0-.012-.01-.026-.014-.038-.018-.04-.044-.076-.062-.116a8 8 0 0 0-4.453-4.078l-3.056-1.127 3.467-3.4 3.5-3.507a.985.985 0 0 1 .9-.266A9.994 9.994 0 0 0 45.658 9.888a1.972 1.972 0 0 0-1.323-1.65 2 2 0 0 0-2.092.48l-2.787 2.842a1.023 1.023 0 0 1-1.414 0L35.22 8.732a1 1 0 0 1 .007-1.42l2.787-2.843a1.993 1.993 0 0 0 .474-2.085 1.973 1.973 0 0 0-1.651-1.322A10 10 0 0 0 25.946 13.07a.978.978 0 0 1-.262.9l-5.772 5.73a3.979 3.979 0 0 0-7.09 1.56 4 4 0 0 0-4.846 5.237 4 4 0 0 0-3.162 5.816 3.993 3.993 0 0 0-2.486 2.22 3.951 3.951 0 0 0-.166 2.668 4.952 4.952 0 0 0 .3 6.7z"/><path fill="none" stroke="#f9f9fa" stroke-miterlimit="50" d="M6.793 34.3l.088.037 5.053 3.552c.004.263-.045.523-.144.766a2 2 0 0 1-2.632 1.036l-3.962-1.725c-.012-.005-.023-.014-.035-.019a1.991 1.991 0 0 1-.33-.188L4.8 37.73a2.026 2.026 0 0 1-.6-.742c0-.006-.011-.01-.014-.016-.017-.037-.04-.07-.055-.108A2 2 0 0 1 6.793 34.3zm-.046-5a2 2 0 0 1 2.793-.449l1.04.752 5.448 5.078v.042a1.981 1.981 0 0 1-.385 1.047c-.067.09-.141.174-.222.251-.007.007-.016.012-.023.02-.554.5-1.339.654-2.04.4l-5.4-3.8-.753-.546a2 2 0 0 1-.458-2.796zm3.566-5.61a2.007 2.007 0 0 1 2.85.027l3.92 4.37c-.052.154-.1.314-.14.484a6.94 6.94 0 0 0 .41 4.63l-5.443-5.084-1.598-1.6a2.001 2.001 0 0 1 0-2.829zm8.105-2.67l.492.775 3 4.734-.987-.364a2.978 2.978 0 0 0-2.292.142 3.086 3.086 0 0 0-.286.176l-3.548-3.949c-.196-.822.15-1.679.862-2.135a2 2 0 0 1 2.759.62zm8.686-5.637a2.966 2.966 0 0 0 .8-2.733 7.994 7.994 0 0 1 5.464-9.294 7.778 7.778 0 0 1 3.23-.294l-2.786 2.842a3 3 0 0 0 0 4.242l2.83 2.83a3.068 3.068 0 0 0 4.25-.008l2.795-2.858a7.997 7.997 0 0 1-9.606 8.708 2.983 2.983 0 0 0-2.739.807L24.24 26.66c-.007-.02-.02-.038-.028-.058a3.899 3.899 0 0 0-.356-.743v-.006L21.034 21.4zM30.172 32.2a6.004 6.004 0 0 1 1.83 3.427l1.129 6.961a6.02 6.02 0 0 1-1.664 5.187 1.078 1.078 0 0 0-.07.08l-6.562 8.181A9.562 9.562 0 0 0 22.734 62a1 1 0 0 1-1 1H9.729a1 1 0 0 1-1-1v-3.54a12.155 12.155 0 0 0-.956-4.677 28.029 28.029 0 0 1-1.941-8.429h.038c.043 0 .085.012.128.012.207-.007.414-.026.62-.058.084-.01.17-.01.254-.024.238-.046.472-.109.7-.189.084-.027.17-.042.253-.073a5.11 5.11 0 0 0 .727-.367c.05-.03.107-.05.157-.082.288-.182.556-.394.8-.632l5.61-5.5a3.902 3.902 0 0 0 1.7-.979l.053-.052c.15-.15.289-.31.415-.48.324-.449.55-.96.664-1.5.31.006.62-.024.924-.09a6.889 6.889 0 0 0 2.559 1.57l2.381.905c.53.202.905.681.972 1.244a1.551 1.551 0 0 1-1.023 1.625c-5.355 2.012-8.39 5.44-9.02 10.184a1 1 0 1 0 1.982.264c.534-4.014 3.067-6.819 7.743-8.576a3.525 3.525 0 0 0 .058-6.61l-2.412-.917A4.963 4.963 0 0 1 19.55 33c-.06-.09-.118-.18-.171-.276a5.088 5.088 0 0 1-.271-.584c-.052-.13-.106-.259-.147-.392-.041-.133-.07-.248-.1-.374a4.958 4.958 0 0 1-.073-.45c-.015-.13-.036-.259-.043-.39v-.117c-.004-.185.003-.37.02-.554.006-.064.01-.128.02-.2.006-.05.012-.1.02-.152.043-.28.11-.558.2-.828a1 1 0 0 1 1.25-.628l7.902 2.911a5.995 5.995 0 0 1 2.015 1.234zM3.29 39.07c.054.05.116.088.172.135.1.084.2.171.312.245.196.134.405.25.622.346l3.962 1.725c.178.077.362.142.549.193l-.811.8a2.963 2.963 0 0 1-.55.418 2.88 2.88 0 0 1-.33.171c-.061.026-.121.055-.183.077a2.994 2.994 0 0 1-.668.156 3.043 3.043 0 0 1-1.295-.126h-.02a2.989 2.989 0 0 1-1.76-4.132zm-.83 4.835c.393.383.847.698 1.344.932a30.479 30.479 0 0 0 2.123 9.712c.522 1.239.794 2.568.8 3.911V62a3 3 0 0 0 3 3h12a3 3 0 0 0 3-3 7.558 7.558 0 0 1 1.656-4.712l6.53-8.142c.113-.115.21-.242.315-.363.105-.12.2-.216.289-.332.089-.116.187-.27.279-.406.092-.136.174-.242.25-.369.078-.127.156-.29.232-.438.067-.129.142-.255.2-.388.07-.155.123-.316.184-.475.049-.132.107-.26.15-.4.054-.169.09-.343.133-.515.032-.129.073-.256.1-.386.035-.18.052-.365.075-.547.016-.127.04-.252.05-.379.017-.209.013-.419.013-.629 0-.1.009-.206.005-.309a7.907 7.907 0 0 0-.1-.943l-.078-.485-1.043-6.473a7.945 7.945 0 0 0-.6-1.995c0-.012-.01-.026-.014-.038-.018-.04-.044-.076-.062-.116a8 8 0 0 0-4.453-4.078l-3.056-1.127 3.467-3.4 3.5-3.507a.985.985 0 0 1 .9-.266A9.994 9.994 0 0 0 45.658 9.888a1.972 1.972 0 0 0-1.323-1.65 2 2 0 0 0-2.092.48l-2.787 2.842a1.023 1.023 0 0 1-1.414 0L35.22 8.732a1 1 0 0 1 .007-1.42l2.787-2.843a1.993 1.993 0 0 0 .474-2.085 1.973 1.973 0 0 0-1.651-1.322A10 10 0 0 0 25.946 13.07a.978.978 0 0 1-.262.9l-5.772 5.73a3.979 3.979 0 0 0-7.09 1.56 4 4 0 0 0-4.846 5.237 4 4 0 0 0-3.162 5.816 3.993 3.993 0 0 0-2.486 2.22 3.951 3.951 0 0 0-.166 2.668 4.952 4.952 0 0 0 .3 6.7z"/></g><g><path d="M13.283 12.776a.5.5 0 0 0 .223.671l2 1a.5.5 0 1 0 .448-.894l-2-1a.5.5 0 0 0-.67.223z"/></g><g><path d="M16.73 11.5a.5.5 0 0 0 .355-.853l-2-2a.5.5 0 1 0-.708.708l2 2a.5.5 0 0 0 .354.146z"/></g><g><path d="M20.23 11v-1a.5.5 0 0 0-1 0v1a.5.5 0 0 0 1 0z"/></g></g></svg>