<svg xmlns="http://www.w3.org/2000/svg" width="24" height="24" viewBox="0 0 24 24"><g><g opacity=".5"><g opacity=".5"/><g opacity=".5"><path d="M11.343 6.17c2.254 0 4.093 1.892 4.093 4.24 0 2.35-1.84 4.242-4.093 4.242S7.25 12.76 7.25 10.411c0-2.35 1.84-4.242 4.093-4.242zm3.883 8.36a5.772 5.772 0 0 0 1.71-4.12c0-3.153-2.497-5.721-5.593-5.721S5.75 7.257 5.75 10.41c0 3.153 2.497 5.722 5.593 5.722.971 0 1.883-.253 2.677-.696l2.456 2.367.085.07a.757.757 0 0 0 .976-.083.734.734 0 0 0-.013-1.047z"/></g></g></g></svg>