<svg xmlns="http://www.w3.org/2000/svg" width="79" height="86" viewBox="0 0 79 86"><g><g><g><path fill="#fff" d="M9.667 9.667h60v66.656h-60zm66.666 70V6.333C76.333 4.333 75 3 73 3H6.333C4.333 3 3 4.333 3 6.333v73.334C3 81.667 4.333 83 6.333 83H73c1.667 0 3.333-1.333 3.333-3.333z"/><path fill="none" stroke="#000" stroke-miterlimit="50" stroke-width="5" d="M9.667 9.667h60v66.656h-60zm66.666 70V6.333C76.333 4.333 75 3 73 3H6.333C4.333 3 3 4.333 3 6.333v73.334C3 81.667 4.333 83 6.333 83H73c1.667 0 3.333-1.333 3.333-3.333z"/></g><g><path fill="#fff" d="M24.667 40.997h30V76.33h-30zm36.666 38.666v-42c0-2-1.333-3.333-3.333-3.333H21.333c-2 0-3.333 1.333-3.333 3.333v42c0 2 1.333 3.334 3.333 3.334H58c1.667 0 3.333-1.334 3.333-3.334z"/><path fill="none" stroke="#000" stroke-miterlimit="50" stroke-width="5" d="M24.667 40.997h30V76.33h-30zm36.666 38.666v-42c0-2-1.333-3.333-3.333-3.333H21.333c-2 0-3.333 1.333-3.333 3.333v42c0 2 1.333 3.334 3.333 3.334H58c1.667 0 3.333-1.334 3.333-3.334z"/></g><g><g><path fill="#fff" d="M21.003 24.667h-2c-2 0-3.333-1.334-3.333-3.334S17.003 18 19.003 18h2c2 0 3.334 1.333 3.334 3.333s-1.334 3.334-3.334 3.334z"/><path fill="none" stroke="#000" stroke-miterlimit="50" stroke-width="5" d="M21.003 24.667h-2c-2 0-3.333-1.334-3.333-3.334S17.003 18 19.003 18h2c2 0 3.334 1.333 3.334 3.333s-1.334 3.334-3.334 3.334z"/></g><g><path fill="#fff" d="M40.663 24.667h-2c-2 0-3.333-1.334-3.333-3.334S36.663 18 38.663 18h2c2 0 3.334 1.333 3.334 3.333s-1.334 3.334-3.334 3.334z"/><path fill="none" stroke="#000" stroke-miterlimit="50" stroke-width="5" d="M40.663 24.667h-2c-2 0-3.333-1.334-3.333-3.334S36.663 18 38.663 18h2c2 0 3.334 1.333 3.334 3.333s-1.334 3.334-3.334 3.334z"/></g><g><path fill="#fff" d="M60.333 24.667h-2c-2 0-3.333-1.334-3.333-3.334S56.333 18 58.333 18h2c2 0 3.334 1.333 3.334 3.333S62 24.667 60.333 24.667z"/><path fill="none" stroke="#000" stroke-miterlimit="50" stroke-width="5" d="M60.333 24.667h-2c-2 0-3.333-1.334-3.333-3.334S56.333 18 58.333 18h2c2 0 3.334 1.333 3.334 3.333S62 24.667 60.333 24.667z"/></g></g><g><g><path fill="#fff" d="M51.77 54.997H27.23c-1.338 0-2.23-1.334-2.23-3.334s.892-3.333 2.23-3.333h24.54c1.338 0 2.23 1.333 2.23 3.333s-1.115 3.334-2.23 3.334z"/><path fill="none" stroke="#000" stroke-miterlimit="50" stroke-width="5" d="M51.77 54.997H27.23c-1.338 0-2.23-1.334-2.23-3.334s.892-3.333 2.23-3.333h24.54c1.338 0 2.23 1.333 2.23 3.333s-1.115 3.334-2.23 3.334z"/></g><g><path fill="#fff" d="M51.77 69.667H27.23c-1.338 0-2.23-1.334-2.23-3.334S25.892 63 27.23 63h24.54c1.338 0 2.23 1.333 2.23 3.333s-1.115 3.334-2.23 3.334z"/><path fill="none" stroke="#000" stroke-miterlimit="50" stroke-width="5" d="M51.77 69.667H27.23c-1.338 0-2.23-1.334-2.23-3.334S25.892 63 27.23 63h24.54c1.338 0 2.23 1.333 2.23 3.333s-1.115 3.334-2.23 3.334z"/></g></g></g></g></svg>