<svg xmlns="http://www.w3.org/2000/svg" width="82" height="80" viewBox="0 0 82 80"><g><g><g><path fill="#fff" d="M76.357 75.82H5.133a1.135 1.135 0 0 1-1.136-1.133V73.55H77.49v1.137c0 .626-.507 1.133-1.133 1.133zM4.76 41.503l10.673 8.3c.404.317.947.37 1.404.147.456-.223.75-.69.75-1.197v-6.216L29.12 49.88c.413.26.937.28 1.357.043.426-.233.693-.68.693-1.17V42.43l12.813 7.477c.404.236.917.236 1.334.003.413-.237.67-.677.67-1.157V42.34l14.09 7.587a1.37 1.37 0 0 0 1.316-.03c.404-.24.65-.677.65-1.147v-7.31h14.314c.626 0 1.133.507 1.133 1.137V70.88H3.997V42.577c0-.494.316-.917.763-1.074zm62.85-25.996V38.77h-5.57V15.507zm8.747 23.266H70.28v-24.6c0-.736-.6-1.333-1.333-1.333h-8.24c-.737 0-1.334.6-1.334 1.333V46.52l-14.09-7.587c-.41-.216-.91-.21-1.316.03-.407.24-.65.677-.65 1.147v6.323l-12.814-7.476a1.333 1.333 0 0 0-2.003 1.15v6.216L16.967 38.98a1.345 1.345 0 0 0-1.357-.043c-.427.233-.693.68-.693 1.17v5.92l-8.964-6.974a1.314 1.314 0 0 0-.816-.283 3.814 3.814 0 0 0-3.807 3.807v32.11a3.811 3.811 0 0 0 3.807 3.803H76.36a3.808 3.808 0 0 0 3.803-3.803v-32.11a3.815 3.815 0 0 0-3.806-3.804z"/><path fill="none" stroke="#000" stroke-miterlimit="50" stroke-width="1.5" d="M76.357 75.82H5.133a1.135 1.135 0 0 1-1.136-1.133V73.55H77.49v1.137c0 .626-.507 1.133-1.133 1.133zM4.76 41.503l10.673 8.3c.404.317.947.37 1.404.147.456-.223.75-.69.75-1.197v-6.216L29.12 49.88c.413.26.937.28 1.357.043.426-.233.693-.68.693-1.17V42.43l12.813 7.477c.404.236.917.236 1.334.003.413-.237.67-.677.67-1.157V42.34l14.09 7.587a1.37 1.37 0 0 0 1.316-.03c.404-.24.65-.677.65-1.147v-7.31h14.314c.626 0 1.133.507 1.133 1.137V70.88H3.997V42.577c0-.494.316-.917.763-1.074zm62.85-25.996V38.77h-5.57V15.507zm8.747 23.266H70.28v-24.6c0-.736-.6-1.333-1.333-1.333h-8.24c-.737 0-1.334.6-1.334 1.333V46.52l-14.09-7.587c-.41-.216-.91-.21-1.316.03-.407.24-.65.677-.65 1.147v6.323l-12.814-7.476a1.333 1.333 0 0 0-2.003 1.15v6.216L16.967 38.98a1.345 1.345 0 0 0-1.357-.043c-.427.233-.693.68-.693 1.17v5.92l-8.964-6.974a1.314 1.314 0 0 0-.816-.283 3.814 3.814 0 0 0-3.807 3.807v32.11a3.811 3.811 0 0 0 3.807 3.803H76.36a3.808 3.808 0 0 0 3.803-3.803v-32.11a3.815 3.815 0 0 0-3.806-3.804z"/></g><g><path fill="#fff" d="M9.197 56.337h2.55v7.756h-2.55zm5.218 7.756v-7.756h2.557v7.756zm-6.552 2.68H18.3c.737 0 1.333-.6 1.333-1.333V55.003c0-.736-.6-1.333-1.333-1.333H7.863c-.736 0-1.333.6-1.333 1.333V65.44a1.33 1.33 0 0 0 1.333 1.333z"/><path fill="none" stroke="#000" stroke-miterlimit="50" stroke-width="1.5" d="M9.197 56.337h2.55v7.756h-2.55zm5.218 7.756v-7.756h2.557v7.756zm-6.552 2.68H18.3c.737 0 1.333-.6 1.333-1.333V55.003c0-.736-.6-1.333-1.333-1.333H7.863c-.736 0-1.333.6-1.333 1.333V65.44a1.33 1.33 0 0 0 1.333 1.333z"/></g><g><path fill="#fff" d="M79.34 8.253c-.16 0-.366.017-.633.064a9.03 9.03 0 0 1-1.596.136c-1.217 0-1.93-.23-2.13-.343-1.593-.833-3.227-1.26-4.853-1.26-3.964 0-6.544 2.533-6.65 2.64a1.334 1.334 0 0 0 1.883 1.887c.02-.02 1.916-1.86 4.766-1.86 1.19 0 2.41.32 3.494.883.967.643 3.14.947 5.72.52.737 0 1.333-.6 1.333-1.333 0-.734-.597-1.334-1.333-1.334z"/><path fill="none" stroke="#000" stroke-miterlimit="50" stroke-width="1.5" d="M79.34 8.253c-.16 0-.366.017-.633.064a9.03 9.03 0 0 1-1.596.136c-1.217 0-1.93-.23-2.13-.343-1.593-.833-3.227-1.26-4.853-1.26-3.964 0-6.544 2.533-6.65 2.64a1.334 1.334 0 0 0 1.883 1.887c.02-.02 1.916-1.86 4.766-1.86 1.19 0 2.41.32 3.494.883.967.643 3.14.947 5.72.52.737 0 1.333-.6 1.333-1.333 0-.734-.597-1.334-1.333-1.334z"/></g><g><path fill="#fff" d="M70.573 1.51c-3.303 0-5.46 2.057-5.693 2.293a1.333 1.333 0 1 0 1.887 1.887c.013-.017 1.536-1.51 3.806-1.51.954 0 1.927.26 2.767.697.857.596 2.803.846 4.9.486.737 0 1.333-.6 1.333-1.333s-.6-1.333-1.333-1.333c-.08 0-.487.043-.57.056-1.32.247-2.71-.023-2.947-.146-1.356-.727-2.753-1.097-4.15-1.097z"/><path fill="none" stroke="#000" stroke-miterlimit="50" stroke-width="1.5" d="M70.573 1.51c-3.303 0-5.46 2.057-5.693 2.293a1.333 1.333 0 1 0 1.887 1.887c.013-.017 1.536-1.51 3.806-1.51.954 0 1.927.26 2.767.697.857.596 2.803.846 4.9.486.737 0 1.333-.6 1.333-1.333s-.6-1.333-1.333-1.333c-.08 0-.487.043-.57.056-1.32.247-2.71-.023-2.947-.146-1.356-.727-2.753-1.097-4.15-1.097z"/></g><g><path fill="#fff" d="M25.718 56.337h2.554v7.756h-2.554zm7.762 7.756h-2.55v-7.756h2.55zm-9.097 2.68h10.434c.736 0 1.333-.6 1.333-1.333V55.003c0-.736-.6-1.333-1.333-1.333H24.383c-.736 0-1.333.6-1.333 1.333V65.44a1.33 1.33 0 0 0 1.333 1.333z"/><path fill="none" stroke="#000" stroke-miterlimit="50" stroke-width="1.5" d="M25.718 56.337h2.554v7.756h-2.554zm7.762 7.756h-2.55v-7.756h2.55zm-9.097 2.68h10.434c.736 0 1.333-.6 1.333-1.333V55.003c0-.736-.6-1.333-1.333-1.333H24.383c-.736 0-1.333.6-1.333 1.333V65.44a1.33 1.33 0 0 0 1.333 1.333z"/></g><g><path fill="#fff" d="M42.237 56.337h2.55v7.756h-2.55zm7.775 7.756h-2.557v-7.756h2.557zm-9.109 2.68H51.34c.737 0 1.333-.6 1.333-1.333V55.003c0-.736-.6-1.333-1.333-1.333H40.903c-.736 0-1.333.6-1.333 1.333V65.44a1.33 1.33 0 0 0 1.333 1.333z"/><path fill="none" stroke="#000" stroke-miterlimit="50" stroke-width="1.5" d="M42.237 56.337h2.55v7.756h-2.55zm7.775 7.756h-2.557v-7.756h2.557zm-9.109 2.68H51.34c.737 0 1.333-.6 1.333-1.333V55.003c0-.736-.6-1.333-1.333-1.333H40.903c-.736 0-1.333.6-1.333 1.333V65.44a1.33 1.33 0 0 0 1.333 1.333z"/></g></g></g></svg>