<?xml version="1.0" encoding="UTF-8"?>
<svg width="12px" height="12px" viewBox="0 0 12 12" version="1.1" xmlns="http://www.w3.org/2000/svg" xmlns:xlink="http://www.w3.org/1999/xlink">
    <!-- Generator: Sketch 59.1 (86144) - https://sketch.com -->
    <title>Combined Shape Copy</title>
    <desc>Created with Sketch.</desc>
    <g id="Page-1" stroke="none" stroke-width="1" fill="none" fill-rule="evenodd" opacity="0.800000012">
        <g id="≥" transform="translate(-934.000000, -2832.000000)" fill="#fe2c25" fill-rule="nonzero">
            <g id="Group-38" transform="translate(-43.000000, 2733.000000)">
                <g id="Group-31" transform="translate(533.000000, 0.000000)">
                    <g id="Group-16-Copy">
                        <g id="alexandra-gorn-JIUjvqe2ZHg-unsplash">
                            <g id="Group-29" transform="translate(351.305483, 93.000000)">
                                <g id="Group-22-Copy">
                                    <g id="Group-65">
                                        <g id="Combined-Shape-Copy-2" transform="translate(93.233420, 6.720000)">
                                            <path d="M10.2010026,4.3981173 C10.4483791,4.15514977 10.8494712,4.15514977 11.0968793,4.3981484 C11.3442875,4.64108482 11.3442875,5.03500886 11.0968793,5.27797638 L11.0968793,5.27797638 L6.67431952,9.62112581 L7.78767217,9.62112581 C8.1375468,9.62112581 8.42115874,9.89964728 8.42115874,10.2432421 C8.42115874,10.5868369 8.1375468,10.8653584 7.78767217,10.8653584 L7.78767217,10.8653584 L5.14492456,10.8653584 C4.79343453,10.8653584 4.51143798,10.5832598 4.51143798,10.2432421 L4.51143798,10.2432421 L4.51143798,7.64792843 C4.51143798,7.3043336 4.79504992,7.02581213 5.14492456,7.02581213 C5.49479919,7.02581213 5.77841113,7.3043336 5.77841113,7.64792843 L5.77841113,7.64792843 L5.77841113,8.74129783 Z M2.05427026,0.182221753 C2.30164677,-0.0607457684 2.70273879,-0.0607457684 2.95014697,0.182252859 C3.19755515,0.425158169 3.19755515,0.819082211 2.95014697,1.06204973 L2.95014697,1.06204973 L2.16288153,1.83515366 L10.4116369,1.83515366 C10.7615115,1.83515366 11.0451235,2.11367513 11.0451235,2.45726996 C11.0451235,2.8008648 10.7615115,3.07938626 10.4116369,3.07938626 L10.4116369,3.07938626 L2.16284986,3.07938626 L2.95014697,3.85258351 C3.19755515,4.09548882 3.19755515,4.48941286 2.95014697,4.73238038 C2.70273879,4.97534791 2.30164677,4.9753168 2.05427026,4.73234928 L2.05427026,4.73234928 L0.185548217,2.89719951 C0.0688916649,2.78260568 7.42517159e-13,2.62455704 7.42517159e-13,2.45726996 C7.42517159e-13,2.29259578 0.0667061362,2.13442271 0.185548217,2.01737153 L0.185548217,2.01737153 Z" id="Combined-Shape-Copy"></path>
                                        </g>
                                    </g>
                                </g>
                            </g>
                        </g>
                    </g>
                </g>
            </g>
        </g>
    </g>
</svg>