<?xml version="1.0" encoding="UTF-8"?>
<svg width="12px" height="12px" viewBox="0 0 12 12" version="1.1" xmlns="http://www.w3.org/2000/svg" xmlns:xlink="http://www.w3.org/1999/xlink">
    <!-- Generator: Sketch 59.1 (86144) - https://sketch.com -->
    <title>Shape</title>
    <desc>Created with Sketch.</desc>
    <g id="Page-1" stroke="none" stroke-width="1" fill="none" fill-rule="evenodd" opacity="0.800000012">
        <g id="≥" transform="translate(-841.000000, -2833.000000)" fill="#fe2c25" fill-rule="nonzero">
            <g id="Group-38" transform="translate(-43.000000, 2733.000000)">
                <g id="Group-31" transform="translate(533.000000, 0.000000)">
                    <g id="Group-16-Copy">
                        <g id="alexandra-gorn-JIUjvqe2ZHg-unsplash">
                            <g id="Group-29" transform="translate(351.305483, 93.000000)">
                                <g id="Group-22-Copy">
                                    <g id="Group-65">
                                        <g id="Group-25" transform="translate(0.000000, 4.320000)">
                                            <g id="Group-24">
                                                <path d="M11.337663,7.05520519 L10.0749458,6.50873922 L11.4218441,5.82934909 C11.5733702,5.75550234 11.6238789,5.57827013 11.5396977,5.44534597 C11.4555166,5.31242182 11.2534818,5.26811377 11.1019558,5.34196052 L9.7550574,6.02135065 L9.85607478,4.79549455 C9.87291101,4.64780104 9.73822117,4.51487688 9.56985888,4.50010753 C9.40149658,4.48533818 9.24997052,4.60349299 9.23313429,4.75118649 L9.11528068,6.34627636 L8.08827067,6.86320364 L5.98374197,5.81457974 L5.98374197,4.9284187 L7.49900263,4.02748831 C7.6505287,3.93887221 7.68420116,3.77640935 7.58318378,3.64348519 C7.4821664,3.51056104 7.29696788,3.48102234 7.14544181,3.56963844 L5.98374197,4.26379792 L5.98374197,2.90501766 C5.98374197,2.75732416 5.84905213,2.6244 5.6638536,2.6244 C5.47865508,2.6244 5.34396524,2.74255481 5.34396524,2.90501766 L5.34396524,4.26379792 L4.1822654,3.56963844 C4.03073933,3.48102234 3.8455408,3.52533039 3.74452343,3.64348519 C3.64350605,3.76164 3.69401474,3.93887221 3.82870457,4.02748831 L5.34396524,4.9284187 L5.34396524,5.84411844 L3.40779883,6.83366494 L2.4818062,6.36104571 L2.34711637,4.76595584 C2.33028014,4.61826234 2.17875407,4.50010753 2.01039177,4.51487688 C1.84202948,4.52964623 1.70733964,4.66257039 1.72417587,4.8102639 L1.82519325,6.03612 L0.478294878,5.35672987 C0.326768811,5.28288312 0.141570285,5.32719117 0.0405529072,5.46011532 C-0.043628241,5.59303948 0.00688044791,5.75550234 0.158406515,5.84411844 L1.50530489,6.52350857 L0.242587663,7.06997455 C0.0910615961,7.1438213 0.0237166775,7.30628416 0.0910615961,7.43920831 C0.141570285,7.54259377 0.259423892,7.58690182 0.3772775,7.58690182 C0.427786189,7.58690182 0.478294878,7.57213247 0.511967337,7.55736312 L2.16191784,6.84843429 L3.05423801,7.29151481 L3.05423801,9.4183013 L2.39762506,9.74322701 L0.764510781,9.03429818 C0.612984715,8.96045143 0.410949959,9.01952883 0.343605041,9.15245299 C0.259423892,9.28537714 0.326768811,9.46260935 0.495131107,9.52168675 L1.75784833,10.0681527 L0.444622418,10.7327735 C0.293096352,10.8066203 0.242587663,10.9838525 0.326768811,11.1167766 C0.3772775,11.2053927 0.495131107,11.2497008 0.596148485,11.2497008 C0.646657174,11.2497008 0.697165863,11.2349314 0.747674552,11.2201621 L2.06090046,10.5555413 L1.95988309,11.7813974 C1.94304686,11.9290909 2.07773669,12.0620151 2.24609899,12.0767844 C2.24609899,12.0767844 2.26293522,12.0767844 2.26293522,12.0767844 C2.43129751,12.0767844 2.56598735,11.9586296 2.58282358,11.8257055 L2.70067719,10.2306156 L3.45830752,9.84661247 L5.32712901,10.7770816 L5.32712901,11.72232 L3.81186834,12.6232504 C3.66034228,12.7118665 3.62666982,12.8743294 3.7276872,13.0072535 C3.79503212,13.0811003 3.89604949,13.1254083 3.99706687,13.1254083 C4.06441179,13.1254083 4.11492048,13.110639 4.16542917,13.0811003 L5.32712901,12.3869408 L5.32712901,13.7161823 C5.32712901,13.8638758 5.46181885,13.9968 5.64701737,13.9968 C5.8322159,13.9968 5.96690574,13.8786452 5.96690574,13.7161823 L5.96690574,12.3869408 L7.12860558,13.0811003 C7.17911427,13.110639 7.24645919,13.1254083 7.29696788,13.1254083 C7.39798526,13.1254083 7.49900263,13.0811003 7.56634755,13.0072535 C7.66736493,12.8743294 7.61685624,12.7118665 7.4821664,12.6232504 L5.96690574,11.72232 L5.96690574,10.7623122 L7.9367446,9.75799636 L8.86273723,10.2306156 L8.98059084,11.8257055 C8.99742707,11.973399 9.13211691,12.0767844 9.3004792,12.0767844 C9.3004792,12.0767844 9.31731543,12.0767844 9.31731543,12.0767844 C9.48567773,12.0620151 9.62036757,11.9290909 9.60353134,11.7813974 L9.50251396,10.5555413 L10.8157399,11.2201621 C10.8662486,11.2497008 10.9167572,11.2497008 10.9672659,11.2497008 C11.0682833,11.2497008 11.1861369,11.2053927 11.2366456,11.1167766 C11.3208268,10.9838525 11.2703181,10.8213896 11.118792,10.7327735 L9.80556609,10.0681527 L11.0682833,9.52168675 C11.2198094,9.44784 11.2871543,9.28537714 11.2029732,9.15245299 C11.118792,9.01952883 10.9335935,8.96045143 10.7820674,9.03429818 L9.14895314,9.74322701 L8.22296051,9.27060779 L8.22296051,7.42443896 L9.41833281,6.84843429 L11.0682833,7.55736312 C11.118792,7.57213247 11.1524645,7.58690182 11.2029732,7.58690182 C11.3208268,7.58690182 11.4386804,7.52782442 11.4891891,7.43920831 C11.556534,7.29151481 11.5060253,7.12905195 11.337663,7.05520519 Z M7.44849395,7.2028987 L5.98374197,7.94136623 L5.98374197,6.46443117 L7.44849395,7.2028987 Z M5.34396524,6.49396987 L5.34396524,7.80844208 L4.04757556,7.15859065 L5.34396524,6.49396987 Z M3.67717851,7.61644052 L5.15876672,8.35490805 L3.67717851,9.10814494 L3.67717851,7.61644052 Z M4.09808425,9.5364561 L5.34396524,8.91614338 L5.34396524,10.1567688 L4.09808425,9.5364561 Z M5.96690574,10.1272301 L5.96690574,8.76844987 L7.31380411,9.44784 L5.96690574,10.1272301 Z M7.63369247,8.96045143 L6.43832017,8.35490805 L7.6505287,7.74936468 L7.63369247,8.96045143 Z" id="Shape"></path>
                                            </g>
                                        </g>
                                    </g>
                                </g>
                            </g>
                        </g>
                    </g>
                </g>
            </g>
        </g>
    </g>
</svg>