<?xml version="1.0" encoding="UTF-8"?>
<svg width="15px" height="15px" viewBox="0 0 15 15" version="1.1" xmlns="http://www.w3.org/2000/svg" xmlns:xlink="http://www.w3.org/1999/xlink">
    <!-- Generator: Sketch 59.1 (86144) - https://sketch.com -->
    <title>sun (2)</title>
    <desc>Created with Sketch.</desc>
    <g id="Page-1" stroke="none" stroke-width="1" fill="none" fill-rule="evenodd" opacity="0.800000012">
        <g id="≥" transform="translate(-551.000000, -2792.000000)" fill="#fe2c25" fill-rule="nonzero">
            <g id="Group-38" transform="translate(-43.000000, 2733.000000)">
                <g id="Group-31" transform="translate(533.000000, 0.000000)">
                    <g id="Group-16-Copy">
                        <g id="alexandra-gorn-JIUjvqe2ZHg-unsplash">
                            <g id="Group-26" transform="translate(61.096606, 55.000000)">
                                <g id="Group-22">
                                    <g id="Group-23">
                                        <g id="Group-25" transform="translate(0.000000, 4.320000)">
                                            <g id="Group-24">
                                                <g id="sun-(2)">
                                                    <path d="M10.0338418,4.6959264 C9.36753199,4.041576 8.42685932,3.6181728 7.40779726,3.6181728 C6.38873521,3.6181728 5.44806254,4.0223304 4.78175273,4.6959264 C4.11544292,5.3502768 3.68430128,6.2740656 3.68430128,7.2748368 C3.68430128,8.275608 4.11544292,9.1993968 4.78175273,9.8537472 C5.44806254,10.5080976 6.38873521,10.9315008 7.40779726,10.9315008 C8.42685932,10.9315008 9.36753199,10.5273432 10.0338418,9.8537472 C10.7001516,9.1993968 11.1312932,8.275608 11.1312932,7.2748368 C11.1312932,6.2740656 10.719749,5.3502768 10.0338418,4.6959264 Z M9.3283373,9.1609056 C8.83840361,9.6420456 8.15249646,9.9307296 7.40779726,9.9307296 C6.66309807,9.9307296 5.97719091,9.6420456 5.48725723,9.1609056 C4.99732355,8.6797656 4.70336334,8.0061696 4.70336334,7.2748368 C4.70336334,6.543504 4.99732355,5.869908 5.48725723,5.388768 C5.97719091,4.907628 6.66309807,4.618944 7.40779726,4.618944 C8.15249646,4.618944 8.83840361,4.907628 9.3283373,5.388768 C9.81827098,5.869908 10.1122312,6.543504 10.1122312,7.2748368 C10.1122312,8.0061696 9.81827098,8.6797656 9.3283373,9.1609056 Z" id="Shape"></path>
                                                    <path d="M14.3060635,6.7744512 L12.7970678,6.7744512 C12.5227049,6.7744512 12.2875367,7.0053984 12.2875367,7.2748368 C12.2875367,7.5442752 12.5227049,7.7752224 12.7970678,7.7752224 L14.3060635,7.7752224 C14.5804264,7.7752224 14.8155945,7.5442752 14.8155945,7.2748368 C14.8155945,7.0053984 14.5804264,6.7744512 14.3060635,6.7744512 Z" id="Path"></path>
                                                    <path d="M7.40779726,12.0669912 C7.1334344,12.0669912 6.89826623,12.2979384 6.89826623,12.5673768 L6.89826623,14.049288 C6.89826623,14.3187264 7.1334344,14.5496736 7.40779726,14.5496736 C7.68216013,14.5496736 7.91732829,14.3187264 7.91732829,14.049288 L7.91732829,12.5673768 C7.91732829,12.2979384 7.68216013,12.0669912 7.40779726,12.0669912 Z" id="Path"></path>
                                                    <path d="M12.640289,11.7205704 L11.5624349,10.6620624 C11.3860588,10.4696064 11.0529039,10.4696064 10.8569304,10.6620624 C10.6609569,10.8545184 10.6609569,11.162448 10.8569304,11.354904 L11.9347845,12.413412 C12.130758,12.605868 12.4443155,12.605868 12.640289,12.413412 C12.8362625,12.220956 12.8362625,11.9130264 12.640289,11.7205704 Z" id="Path"></path>
                                                    <path d="M7.40779726,0 C7.1334344,0 6.89826623,0.2309472 6.89826623,0.5003856 L6.89826623,1.9822968 C6.89826623,2.2517352 7.1334344,2.4826824 7.40779726,2.4826824 C7.68216013,2.4826824 7.91732829,2.2517352 7.91732829,1.9822968 L7.91732829,0.5003856 C7.91732829,0.2309472 7.68216013,0 7.40779726,0 Z" id="Path"></path>
                                                    <path d="M12.6598863,2.1362616 C12.4639129,1.9438056 12.1503553,1.9438056 11.9543818,2.1362616 L10.8765277,3.1947696 C10.6805543,3.3872256 10.6805543,3.6951552 10.8765277,3.8876112 C11.0529039,4.0800672 11.3860588,4.0800672 11.5820322,3.8876112 L12.6598863,2.8291032 C12.8558598,2.6366472 12.8558598,2.3287176 12.6598863,2.1362616 Z" id="Path"></path>
                                                    <path d="M2.01852677,6.7744512 L0.509531029,6.7744512 C0.235168167,6.7744512 0,7.0053984 0,7.2748368 C0,7.5442752 0.21557082,7.7752224 0.509531029,7.7752224 L2.01852677,7.7752224 C2.29288963,7.7752224 2.5280578,7.5442752 2.5280578,7.2748368 C2.5280578,7.0053984 2.29288963,6.7744512 2.01852677,6.7744512 Z" id="Path"></path>
                                                    <path d="M3.9390668,10.6620624 C3.76269067,10.4696064 3.42953577,10.4696064 3.2335623,10.6620624 L2.1557082,11.7205704 C1.95973473,11.9130264 1.95973473,12.220956 2.1557082,12.413412 C2.35168167,12.605868 2.66523923,12.605868 2.8612127,12.413412 L3.9390668,11.354904 C4.13504027,11.162448 4.13504027,10.8545184 3.9390668,10.6620624 Z" id="Path"></path>
                                                    <path d="M3.9390668,3.1947696 L2.8612127,2.1362616 C2.66523923,1.9438056 2.35168167,1.9438056 2.1557082,2.1362616 C1.95973473,2.3287176 1.95973473,2.6366472 2.1557082,2.8291032 L3.2335623,3.8876112 C3.42953577,4.0800672 3.74309333,4.0800672 3.9390668,3.8876112 C4.13504027,3.6951552 4.13504027,3.3872256 3.9390668,3.1947696 Z" id="Path"></path>
                                                </g>
                                            </g>
                                        </g>
                                    </g>
                                </g>
                            </g>
                        </g>
                    </g>
                </g>
            </g>
        </g>
    </g>
</svg>