<?xml version="1.0" encoding="UTF-8"?>
<svg width="8px" height="14px" viewBox="0 0 8 14" version="1.1" xmlns="http://www.w3.org/2000/svg" xmlns:xlink="http://www.w3.org/1999/xlink">
    <!-- Generator: Sketch 59.1 (86144) - https://sketch.com -->
    <title>thermometer (2)</title>
    <desc>Created with Sketch.</desc>
    <g id="Page-1" stroke="none" stroke-width="1" fill="none" fill-rule="evenodd" opacity="0.800000012">
        <g id="≥" transform="translate(-613.000000, -2793.000000)" fill="#fe2c25" fill-rule="nonzero">
            <g id="Group-38" transform="translate(-43.000000, 2733.000000)">
                <g id="Group-31" transform="translate(533.000000, 0.000000)">
                    <g id="Group-16-Copy">
                        <g id="alexandra-gorn-JIUjvqe2ZHg-unsplash">
                            <g id="Group-26" transform="translate(61.096606, 55.000000)">
                                <g id="Group-22">
                                    <g id="Group-23">
                                        <g id="Group-19" transform="translate(62.685117, 4.320000)">
                                            <g id="thermometer-(2)" transform="translate(0.000000, 1.080000)">
                                                <path d="M5.67757651,7.54266665 L5.67757651,2.23026329 C5.67757651,0.99852588 4.66080081,0 3.40655123,0 C2.15230165,0 1.13552595,0.99852588 1.13552595,2.23026329 L1.13552595,7.54264051 C0.43859347,8.15521608 0,9.04543438 0,10.036224 C0,11.8838562 1.52517686,13.381632 3.40655123,13.381632 C5.2879256,13.381632 6.81310245,11.8838562 6.81310245,10.036224 C6.81310245,9.04543438 6.37450898,8.15521608 5.67757651,7.54266665 Z M3.40655123,12.2664873 C2.15230165,12.2664873 1.13552595,11.2679614 1.13552595,10.036224 C1.13552595,9.39231137 1.4133994,8.79497309 1.89281825,8.37358236 L2.27105189,8.04113244 L2.27105189,2.23026329 C2.27105189,1.61439458 2.77945305,1.11511858 3.40657784,1.11511858 C4.03370263,1.11511858 4.54210379,1.61436845 4.54210379,2.23026329 L4.54210379,8.04113244 L4.92033743,8.37358236 C5.39975629,8.79497309 5.67762973,9.39228523 5.67762973,10.036224 C5.67757651,11.2679614 4.66080081,12.2664873 3.40655123,12.2664873 Z" id="Shape" stroke="#F1F1F1" stroke-width="0.3"></path>
                                                <rect id="Rectangle" stroke="#DCE0DC" stroke-width="0.6" x="2.83880156" y="4.46055271" width="1.13552595" height="6.690816"></rect>
                                                <ellipse id="Oval" stroke="#DCE0DC" stroke-width="0.6" cx="3.40655123" cy="10.036224" rx="1.70327561" ry="1.672704"></ellipse>
                                            </g>
                                        </g>
                                    </g>
                                </g>
                            </g>
                        </g>
                    </g>
                </g>
            </g>
        </g>
    </g>
</svg>