<svg xmlns="http://www.w3.org/2000/svg" width="90" height="32" viewBox="0 0 90 32"><g><g><path fill="#fff" d="M76.285 27.57c3.554 0 5.676-2.838 5.676-7.59 0-3.647-1.687-7.327-5.456-7.327-1.698 0-3.033.559-3.966 1.661-1.017 1.202-1.534 3.049-1.534 5.49v1.011c0 3.265 1.387 6.755 5.28 6.755m-27.852-9.983h9.358l-.088-.546c-.277-1.706-1.232-4.57-4.516-4.57-1.734 0-3.949.792-4.65 4.56zm-.227 3.939l.053.519c.388 3.741 1.968 5.483 4.974 5.483 2.217 0 3.81-1.01 4.37-2.774l.064-.2H64v-3.028zm-5.92 4.448v5.419h-7.008v-2.727l-1.475 1.73-.028.021C31.546 32 29.409 32 27.524 32c-2.18 0-4.085-.57-5.508-1.646-1.28-.967-2.122-2.326-2.373-3.826-.178-1.182-.214-2.576-.214-4.307V9.143h7.007v10.204c0 .725.044 2.61.18 3.808.316 2.64 1.724 3.925 4.306 3.925 2.646 0 4.356-2.293 4.356-5.842V9.143h7.008v5.559l.006-.014a11.193 11.193 0 0 1 2.155-3.15C46.71 9.224 49.874 8 53.595 8c3.677 0 6.738 1.294 8.853 3.743.61.706 1.129 1.508 1.552 2.372V0h7.005v12.023l.775-1.326.034-.03c1.715-1.53 4.491-2.444 7.427-2.444 6.015 0 9.902 4.46 9.902 11.36 0 3.825-1.103 7.026-3.19 9.257-1.905 2.038-4.571 3.16-7.506 3.16-1.474 0-4.229-.17-6.13-1.306l-.036-.022-1.276-1.407v2.12H64v-5.193C62.116 29.902 58.237 32 53.142 32c-3.464 0-6.41-1.015-8.516-2.936a9.92 9.92 0 0 1-2.334-3.227c-.542-1.182-.897-2.51-1.055-3.962.14 1.508.494 2.883 1.049 4.1zM21.714 1.143v5.303H6.925v7.927H19.31v5.303H6.925V32H0V1.143z"/></g></g></svg>