<svg xmlns="http://www.w3.org/2000/svg" xmlns:xlink="http://www.w3.org/1999/xlink" width="1295" height="2590" viewBox="0 0 1295 2590">
  <defs>
    <radialGradient id="radial-gradient" cx="0.5" cy="0" r="1" gradientUnits="objectBoundingBox">
      <stop offset="0" stop-color="#2a4893"/>
      <stop offset="1" stop-color="#213054"/>
    </radialGradient>
    <filter id="Mask" x="767.5" y="85.5" width="35" height="35" filterUnits="userSpaceOnUse">
      <feOffset input="SourceAlpha"/>
      <feGaussianBlur stdDeviation="2.5" result="blur"/>
      <feFlood flood-opacity="0.4"/>
      <feComposite operator="in" in2="blur"/>
      <feComposite in="SourceGraphic"/>
    </filter>
    <clipPath id="clip-path">
      <rect id="Rectangle_1" data-name="Rectangle 1" width="1295" height="2590" fill="#fff"/>
    </clipPath>
    <filter id="Outer_Shadow" x="17.5" y="2508.5" width="1260" height="171.649" filterUnits="userSpaceOnUse">
      <feOffset dy="3" input="SourceAlpha"/>
      <feGaussianBlur stdDeviation="22.5" result="blur-2"/>
      <feFlood flood-opacity="0.122"/>
      <feComposite operator="in" in2="blur-2"/>
      <feComposite in="SourceGraphic"/>
    </filter>
    <filter id="Middle_Shadow" x="76.598" y="2551.27" width="1141.5" height="83.319" filterUnits="userSpaceOnUse">
      <feOffset dy="3" input="SourceAlpha"/>
      <feGaussianBlur stdDeviation="9" result="blur-3"/>
      <feFlood flood-opacity="0.078"/>
      <feComposite operator="in" in2="blur-3"/>
      <feComposite in="SourceGraphic"/>
    </filter>
    <filter id="Inner_Shadow" x="124" y="2565.854" width="1048.5" height="50.66" filterUnits="userSpaceOnUse">
      <feOffset dy="3" input="SourceAlpha"/>
      <feGaussianBlur stdDeviation="6" result="blur-4"/>
      <feFlood flood-opacity="0.239"/>
      <feComposite operator="in" in2="blur-4"/>
      <feComposite in="SourceGraphic"/>
    </filter>
    <linearGradient id="linear-gradient" x1="0.5" x2="0.5" y2="1" gradientUnits="objectBoundingBox">
      <stop offset="0" stop-color="#c9c6c8"/>
      <stop offset="0.017" stop-color="#716d6d"/>
      <stop offset="0.078" stop-color="#c9c6c8"/>
      <stop offset="0.921" stop-color="#c9c6c8"/>
      <stop offset="0.98" stop-color="#716d6d"/>
      <stop offset="1" stop-color="#c9c6c8"/>
    </linearGradient>
    <linearGradient id="linear-gradient-2" x1="0.5" x2="0.5" y2="0.064" gradientUnits="objectBoundingBox">
      <stop offset="0" stop-opacity="0.902"/>
      <stop offset="1" stop-opacity="0"/>
    </linearGradient>
    <linearGradient id="linear-gradient-3" y1="1" y2="0.929" xlink:href="#linear-gradient-2"/>
    <linearGradient id="linear-gradient-4" x1="0.5" x2="0.5" y2="0.064" gradientUnits="objectBoundingBox">
      <stop offset="0" stop-opacity="0.502"/>
      <stop offset="1" stop-opacity="0"/>
    </linearGradient>
    <linearGradient id="linear-gradient-5" y1="1" y2="0.929" xlink:href="#linear-gradient-4"/>
    <linearGradient id="linear-gradient-6" x1="0.5" x2="0.5" y2="1" gradientUnits="objectBoundingBox">
      <stop offset="0" stop-color="#5f5f5f"/>
      <stop offset="0.01" stop-color="#222"/>
      <stop offset="1" stop-color="#252525"/>
    </linearGradient>
    <linearGradient id="linear-gradient-7" x1="0.5" x2="0.5" y2="1" gradientUnits="objectBoundingBox">
      <stop offset="0" stop-color="#6d6d6d"/>
      <stop offset="0.016"/>
      <stop offset="0.985"/>
      <stop offset="1" stop-color="#5c5c5c"/>
    </linearGradient>
    <radialGradient id="radial-gradient-2" cx="0.476" cy="0.99" r="0.29" gradientUnits="objectBoundingBox">
      <stop offset="0" stop-color="#fff" stop-opacity="0.153"/>
      <stop offset="1" stop-color="#fff" stop-opacity="0"/>
    </radialGradient>
    <linearGradient id="linear-gradient-8" x1="0.272" y1="0.45" x2="0.547" y2="0.45" gradientUnits="objectBoundingBox">
      <stop offset="0" stop-color="#a5a5a5"/>
      <stop offset="0.007" stop-color="#e2e2e2"/>
      <stop offset="0.995" stop-color="#bebebe"/>
      <stop offset="1" stop-color="#9d9d9d"/>
    </linearGradient>
    <linearGradient id="linear-gradient-11" x1="0.655" y1="0.45" x2="0.639" y2="0.45" gradientUnits="objectBoundingBox">
      <stop offset="0" stop-color="#8e8e8e"/>
      <stop offset="1" stop-color="#bcbcbc"/>
    </linearGradient>
    <linearGradient id="linear-gradient-12" x1="0.5" x2="0.5" y2="1" gradientUnits="objectBoundingBox">
      <stop offset="0" stop-opacity="0.996"/>
      <stop offset="0.095" stop-opacity="0"/>
      <stop offset="0.895" stop-opacity="0"/>
      <stop offset="1" stop-opacity="0.882"/>
    </linearGradient>
    <clipPath id="clip-path-2">
      <rect id="Mask-2" data-name="Mask" width="156" height="21" rx="10.5" fill="#1d1c1c"/>
    </clipPath>
    <clipPath id="clip-path-3">
      <rect id="Shadow" width="156" height="21" rx="10.5" fill="none" opacity="0.244"/>
    </clipPath>
    <radialGradient id="radial-gradient-3" cx="1.211" cy="1.341" r="1.007" gradientUnits="objectBoundingBox">
      <stop offset="0" stop-color="#434343"/>
      <stop offset="1" stop-color="#121212"/>
    </radialGradient>
    <filter id="Mask-3" x="767.5" y="85.5" width="35" height="35" filterUnits="userSpaceOnUse">
      <feOffset input="SourceAlpha"/>
      <feGaussianBlur stdDeviation="2.5" result="blur-5"/>
      <feFlood flood-opacity="0.4"/>
      <feComposite operator="in" in2="blur-5"/>
      <feComposite in="SourceGraphic"/>
    </filter>
    <clipPath id="clip-path-4">
      <g transform="matrix(1, 0, 0, 1, 0, 0)" filter="url(#Mask)">
        <circle id="Mask-4" data-name="Mask" cx="10" cy="10" r="10" transform="translate(9 9)" opacity="0.388" fill="url(#radial-gradient)"/>
      </g>
    </clipPath>
    <clipPath id="clip-path-5">
      <path id="Mask-5" data-name="Mask" d="M876,26v1c0,27.794-21.206,63-70,63H320c-48.794,0-70-35.206-70-63V26c0-12.855,0-26-23-26H130C48.935,0,0,48.935,0,130V2306c0,81.065,48.935,130,130,130H995c81.065,0,130-48.935,130-130V130c0-81.065-48.935-130-130-130H899C876,0,876,13.145,876,26Z" fill="none"/>
    </clipPath>
  </defs>
  <g id="Mask_Group_1" data-name="Mask Group 1" clip-path="url(#clip-path)">
    <g id="Apple_iPhone_XS_Space_Grey" data-name="Apple iPhone XS Space Grey">
      <g id="Shadow-2" data-name="Shadow" transform="translate(85 2573)">
        <g transform="matrix(1, 0, 0, 1, -85, -2573)" filter="url(#Outer_Shadow)">
          <path id="Outer_Shadow-2" data-name="Outer Shadow" d="M562.5,36.649c310.66,0,562.5-9.1,562.5-20.331S780.057,0,562.5,0,0,5.09,0,16.318,251.84,36.649,562.5,36.649Z" transform="translate(85 2573)" fill="none"/>
        </g>
        <g transform="matrix(1, 0, 0, 1, -85, -2573)" filter="url(#Middle_Shadow)">
          <path id="Middle_Shadow-2" data-name="Middle Shadow" d="M543.75,29.319c300.3,0,543.75-7.282,543.75-16.265S754.055,0,543.75,0,0,4.072,0,13.055,243.445,29.319,543.75,29.319Z" transform="translate(103.6 2575.27)" fill="none"/>
        </g>
        <g transform="matrix(1, 0, 0, 1, -85, -2573)" filter="url(#Inner_Shadow)">
          <path id="Inner_Shadow-2" data-name="Inner Shadow" d="M506.25,14.66c279.594,0,506.25-3.641,506.25-8.132S702.052,0,506.25,0,0,2.036,0,6.527,226.656,14.66,506.25,14.66Z" transform="translate(142 2580.85)" fill="none"/>
        </g>
      </g>
      <g id="Device">
        <g id="Body">
          <g id="Phone_Shape" data-name="Phone Shape" transform="translate(8)">
            <path id="Device_Shape" data-name="Device Shape" d="M227,0h825c158.591,0,227,78.409,227,227V2363c0,143.591-73.409,227-227,227H227C68.409,2590,0,2511.591,0,2363V227C0,78.409,68.409,0,227,0Z"/>
            <g id="Metal_Band" data-name="Metal Band">
              <path id="Metal_Band-2" data-name="Metal Band" d="M221,0C69.485,0,0,71.837,0,221V2357c0,149.163,69.485,221,221,221h825c146.576,0,221-76.9,221-221V221c0-149.163-69.485-221-221-221Z" transform="translate(6 6)" fill="#c9c6c8"/>
              <path id="Metal_Band-3" data-name="Metal Band" d="M221,0C69.485,0,0,71.837,0,221V2357c0,149.163,69.485,221,221,221h825c146.576,0,221-76.9,221-221V221c0-149.163-69.485-221-221-221Z" transform="translate(6 6)" fill="url(#linear-gradient)"/>
            </g>
            <g id="Reflection">
              <path id="Reflection-2" data-name="Reflection" d="M1042.622,2552h-825a467.438,467.438,0,0,1-46.7-2.2,319.525,319.525,0,0,1-40.934-6.693,223.883,223.883,0,0,1-35.265-11.3,167.745,167.745,0,0,1-29.695-16.032,139.774,139.774,0,0,1-43.069-46.736,167.742,167.742,0,0,1-13.57-30.945A224,224,0,0,1,0,2401.929C24.133,2495.509,95.318,2541,217.623,2541h825a378.5,378.5,0,0,0,43.619-2.417,287.841,287.841,0,0,0,38.862-7.159,225.4,225.4,0,0,0,34.146-11.767,186.684,186.684,0,0,0,29.47-16.238,165.873,165.873,0,0,0,45.077-45.347,184.067,184.067,0,0,0,15.687-28.837,219.19,219.19,0,0,0,11.173-32.766,220.631,220.631,0,0,1-8.4,36.477,173.374,173.374,0,0,1-13.826,31.6,149.39,149.39,0,0,1-43.847,48.6,174.064,174.064,0,0,1-29.984,17,221.819,221.819,0,0,1-35.333,12.14,299.946,299.946,0,0,1-40.664,7.282A415.375,415.375,0,0,1,1042.622,2552ZM1259.392,144.854C1234.458,53.438,1163.552,9,1042.622,9h-825C96.693,9,25.788,53.435.855,144.843a214.681,214.681,0,0,1,8.893-34.865A163.59,163.59,0,0,1,23.66,80.115,141.009,141.009,0,0,1,42.678,55.16,143.067,143.067,0,0,1,66.9,35a170.164,170.164,0,0,1,29.51-15.483A227.016,227.016,0,0,1,131.3,8.6,322.4,322.4,0,0,1,171.677,2.13C185.929.717,201.388,0,217.623,0h825c16.235,0,31.693.717,45.943,2.131A322.355,322.355,0,0,1,1128.938,8.6a227,227,0,0,1,34.894,10.918A170.175,170.175,0,0,1,1193.342,35a143.1,143.1,0,0,1,24.218,20.161,141.052,141.052,0,0,1,19.019,24.953,163.6,163.6,0,0,1,13.913,29.86,214.889,214.889,0,0,1,8.9,34.879Z" transform="translate(9.377 19)" fill="url(#linear-gradient-2)"/>
              <path id="Reflection-3" data-name="Reflection" d="M1042.622,2552h-825a467.438,467.438,0,0,1-46.7-2.2,319.525,319.525,0,0,1-40.934-6.693,223.883,223.883,0,0,1-35.265-11.3,167.745,167.745,0,0,1-29.695-16.032,139.774,139.774,0,0,1-43.069-46.736,167.742,167.742,0,0,1-13.57-30.945A224,224,0,0,1,0,2401.929C24.133,2495.509,95.318,2541,217.623,2541h825a378.5,378.5,0,0,0,43.619-2.417,287.841,287.841,0,0,0,38.862-7.159,225.4,225.4,0,0,0,34.146-11.767,186.684,186.684,0,0,0,29.47-16.238,165.873,165.873,0,0,0,45.077-45.347,184.067,184.067,0,0,0,15.687-28.837,219.19,219.19,0,0,0,11.173-32.766,220.631,220.631,0,0,1-8.4,36.477,173.374,173.374,0,0,1-13.826,31.6,149.39,149.39,0,0,1-43.847,48.6,174.064,174.064,0,0,1-29.984,17,221.819,221.819,0,0,1-35.333,12.14,299.946,299.946,0,0,1-40.664,7.282A415.375,415.375,0,0,1,1042.622,2552ZM1259.392,144.854C1234.458,53.438,1163.552,9,1042.622,9h-825C96.693,9,25.788,53.435.855,144.843a214.681,214.681,0,0,1,8.893-34.865A163.59,163.59,0,0,1,23.66,80.115,141.009,141.009,0,0,1,42.678,55.16,143.067,143.067,0,0,1,66.9,35a170.164,170.164,0,0,1,29.51-15.483A227.016,227.016,0,0,1,131.3,8.6,322.4,322.4,0,0,1,171.677,2.13C185.929.717,201.388,0,217.623,0h825c16.235,0,31.693.717,45.943,2.131A322.355,322.355,0,0,1,1128.938,8.6a227,227,0,0,1,34.894,10.918A170.175,170.175,0,0,1,1193.342,35a143.1,143.1,0,0,1,24.218,20.161,141.052,141.052,0,0,1,19.019,24.953,163.6,163.6,0,0,1,13.913,29.86,214.889,214.889,0,0,1,8.9,34.879Z" transform="translate(9.377 19)" fill="url(#linear-gradient-3)"/>
            </g>
            <g id="Reflection-4" data-name="Reflection">
              <path id="Reflection-5" data-name="Reflection" d="M227,0h825c158.591,0,227,76.653,227,221.917V2310.083c0,140.375-73.409,221.917-227,221.917H227C68.409,2532,0,2455.347,0,2310.083V221.917C0,76.653,68.409,0,227,0Z" transform="translate(0 28)" fill="url(#linear-gradient-4)"/>
              <path id="Reflection-6" data-name="Reflection" d="M227,0h825c158.591,0,227,76.653,227,221.917V2310.083c0,140.375-73.409,221.917-227,221.917H227C68.409,2532,0,2455.347,0,2310.083V221.917C0,76.653,68.409,0,227,0Z" transform="translate(0 28)" fill="url(#linear-gradient-5)"/>
            </g>
            <g id="Glass" transform="translate(19 19)" stroke-miterlimit="10" fill="url(#linear-gradient-6)">
              <path d="M 1033 2550.5 L 208 2550.5 C 190.1687469482422 2550.5 173.3737487792969 2549.469482421875 158.0815582275391 2547.436767578125 C 142.7203063964844 2545.39501953125 128.3759307861328 2542.27587890625 115.4471893310547 2538.166015625 C 108.9678115844727 2536.106201171875 102.6965637207031 2533.75146484375 96.80687713623047 2531.1669921875 C 90.91468811035156 2528.5810546875 85.23249816894531 2525.689697265625 79.91781616210938 2522.57275390625 C 74.60281372070313 2519.45556640625 69.50031280517578 2516.02197265625 64.75156402587891 2512.366455078125 C 60.00343704223633 2508.712158203125 55.47000122070313 2504.72900390625 51.27750015258789 2500.5283203125 C 47.0859375 2496.328857421875 43.11187362670898 2491.788330078125 39.46593856811523 2487.033447265625 C 35.82156372070313 2482.2802734375 32.39781188964844 2477.173095703125 29.29062461853027 2471.8544921875 C 26.18499946594238 2466.538330078125 23.30437469482422 2460.855712890625 20.72843742370605 2454.963134765625 C 18.15531158447266 2449.07666015625 15.81093788146973 2442.808837890625 13.76093769073486 2436.333740234375 C 9.673125267028809 2423.42333984375 6.57156229019165 2409.1025390625 4.541874885559082 2393.76904296875 C 2.5234375 2378.52001953125 1.5 2361.775390625 1.5 2344 L 1.5 208 C 1.5 190.2246856689453 2.5234375 173.4799957275391 4.541874885559082 158.2309417724609 C 6.57156229019165 142.8975067138672 9.673125267028809 128.5765686035156 13.76093769073486 115.6662521362305 C 15.81093788146973 109.1912536621094 18.15531158447266 102.9234390258789 20.72843742370605 97.03687286376953 C 23.30437469482422 91.14437866210938 26.18499946594238 85.46156311035156 29.29062461853027 80.14562225341797 C 32.39781188964844 74.82687377929688 35.82156372070313 69.71968841552734 39.46593856811523 64.96656036376953 C 43.11187362670898 60.21156311035156 47.0859375 55.67124938964844 51.27750015258789 51.47156143188477 C 55.47000122070313 47.27093887329102 60.00343704223633 43.28781127929688 64.75156402587891 39.63343811035156 C 69.50031280517578 35.97812652587891 74.60281372070313 32.54437637329102 79.91781616210938 29.42718696594238 C 85.23249816894531 26.31031227111816 90.91468811035156 23.4190616607666 96.80687713623047 20.8331241607666 C 102.6965637207031 18.24843788146973 108.9678115844727 15.89375019073486 115.4471893310547 13.83406257629395 C 128.3759307861328 9.724062919616699 142.7203063964844 6.605000019073486 158.0815582275391 4.563125133514404 C 173.3737487792969 2.530625104904175 190.1687469482422 1.5 208 1.5 L 1033 1.5 C 1050.831298828125 1.5 1067.626220703125 2.530625104904175 1082.91845703125 4.563125133514404 C 1098.279663085938 6.605000019073486 1112.6240234375 9.724062919616699 1125.552856445313 13.83406257629395 C 1132.0322265625 15.89375019073486 1138.303466796875 18.24843788146973 1144.193115234375 20.8331241607666 C 1150.085327148438 23.4190616607666 1155.767456054688 26.31031227111816 1161.082153320313 29.42718696594238 C 1166.397216796875 32.54437637329102 1171.499633789063 35.97812652587891 1176.248413085938 39.63343811035156 C 1180.99658203125 43.28781127929688 1185.530029296875 47.27093887329102 1189.722534179688 51.47156143188477 C 1193.9140625 55.67124938964844 1197.88818359375 60.21156311035156 1201.534057617188 64.96656036376953 C 1205.178466796875 69.71968841552734 1208.602172851563 74.82687377929688 1211.709350585938 80.14562225341797 C 1214.81494140625 85.46156311035156 1217.695678710938 91.14437866210938 1220.271606445313 97.03687286376953 C 1222.8447265625 102.9234390258789 1225.189086914063 109.1912536621094 1227.239013671875 115.6662521362305 C 1231.326904296875 128.5765686035156 1234.428466796875 142.8975067138672 1236.458129882813 158.2309417724609 C 1238.4765625 173.4799957275391 1239.5 190.2246856689453 1239.5 208 L 1239.5 2344 C 1239.5 2361.08056640625 1238.40869140625 2377.333740234375 1236.256591796875 2392.307861328125 C 1234.107177734375 2407.260986328125 1230.840576171875 2421.3515625 1226.547485351563 2434.188232421875 C 1222.260009765625 2447.007080078125 1216.829711914063 2458.930908203125 1210.407836914063 2469.6279296875 C 1207.199096679688 2474.97216796875 1203.675048828125 2480.122802734375 1199.93408203125 2484.93603515625 C 1196.193481445313 2489.7490234375 1192.130615234375 2494.3603515625 1187.858154296875 2498.6416015625 C 1183.584716796875 2502.924072265625 1178.981201171875 2506.9970703125 1174.175903320313 2510.74755859375 C 1169.367553710938 2514.500244140625 1164.221923828125 2518.03564453125 1158.881591796875 2521.25537109375 C 1148.18505859375 2527.704345703125 1136.258178710938 2533.158447265625 1123.43212890625 2537.4658203125 C 1110.57568359375 2541.7841796875 1096.459106445313 2545.070068359375 1081.474365234375 2547.23291015625 C 1066.453125 2549.400634765625 1050.14404296875 2550.5 1033 2550.5 Z" stroke="none"/>
              <path d="M 208 3 C 190.234619140625 3 173.50634765625 4.0263671875 158.279296875 6.050048828125 C 143.004638671875 8.080322265625 128.7469482421875 11.180419921875 115.901611328125 15.263427734375 C 109.47265625 17.306884765625 103.2509765625 19.64306640625 97.40966796875 22.206787109375 C 91.5706787109375 24.76904296875 85.9410400390625 27.633544921875 80.6766357421875 30.720947265625 C 75.4156494140625 33.806640625 70.36572265625 37.205078125 65.6663818359375 40.822021484375 C 60.9697265625 44.43701171875 56.4857177734375 48.376708984375 52.3389892578125 52.531005859375 C 48.193359375 56.68505859375 44.2626953125 61.17578125 40.6563720703125 65.87939453125 C 37.050048828125 70.5830078125 33.66162109375 75.637451171875 30.585693359375 80.90234375 C 27.5096435546875 86.16796875 24.6556396484375 91.79833984375 22.10302734375 97.6376953125 C 19.5506591796875 103.476318359375 17.2249755859375 109.6943359375 15.1910400390625 116.118896484375 C 11.129638671875 128.946044921875 8.0469970703125 143.180908203125 6.029052734375 158.427734375 C 4.01904296875 173.611572265625 3 190.290283203125 3 208 L 3 2344 C 3 2361.709716796875 4.01904296875 2378.388427734375 6.029052734375 2393.572265625 C 8.0469970703125 2408.819091796875 11.129638671875 2423.053955078125 15.1910400390625 2435.881103515625 C 17.2249755859375 2442.3056640625 19.5506591796875 2448.523681640625 22.10302734375 2454.3623046875 C 24.6556396484375 2460.20166015625 27.5096435546875 2465.83203125 30.585693359375 2471.09765625 C 33.66162109375 2476.362548828125 37.050048828125 2481.4169921875 40.6563720703125 2486.12060546875 C 44.2626953125 2490.82421875 48.193359375 2495.31494140625 52.3389892578125 2499.468994140625 C 56.4857177734375 2503.623291015625 60.9697265625 2507.56298828125 65.6663818359375 2511.177978515625 C 70.36572265625 2514.794921875 75.4156494140625 2518.193359375 80.6766357421875 2521.279052734375 C 85.9410400390625 2524.3662109375 91.5706787109375 2527.23095703125 97.40966796875 2529.793212890625 C 103.2509765625 2532.35693359375 109.47265625 2534.693115234375 115.901611328125 2536.736572265625 C 128.7469482421875 2540.819580078125 143.004638671875 2543.919677734375 158.279296875 2545.949951171875 C 173.50634765625 2547.9736328125 190.234619140625 2549 208 2549 L 1033 2549 C 1050.072631835938 2549 1066.309692382813 2547.906005859375 1081.260009765625 2545.748046875 C 1096.155639648438 2543.598388671875 1110.183715820313 2540.333251953125 1122.954711914063 2536.0439453125 C 1135.677001953125 2531.77099609375 1147.504028320313 2526.36328125 1158.107055664063 2519.970703125 C 1163.39599609375 2516.781982421875 1168.491943359375 2513.281005859375 1173.253051757813 2509.56494140625 C 1178.009643554688 2505.852783203125 1182.566284179688 2501.821044921875 1186.79638671875 2497.58203125 C 1191.025390625 2493.34423828125 1195.046997070313 2488.77978515625 1198.749633789063 2484.015625 C 1202.453979492188 2479.249267578125 1205.943725585938 2474.148681640625 1209.121704101563 2468.855712890625 C 1215.487670898438 2458.25244140625 1220.871948242188 2446.42822265625 1225.125 2433.71240234375 C 1229.3896484375 2420.9609375 1232.635375976563 2406.958740234375 1234.771606445313 2392.09423828125 C 1236.913940429688 2377.190673828125 1238 2361.009765625 1238 2344 L 1238 208 C 1238 190.290283203125 1236.98095703125 173.611572265625 1234.970947265625 158.427734375 C 1232.953002929688 143.180908203125 1229.870361328125 128.946044921875 1225.808959960938 116.118896484375 C 1223.775024414063 109.6943359375 1221.449340820313 103.476318359375 1218.89697265625 97.6376953125 C 1216.344360351563 91.79833984375 1213.490356445313 86.16796875 1210.414306640625 80.90234375 C 1207.33837890625 75.637451171875 1203.949951171875 70.5830078125 1200.343627929688 65.87939453125 C 1196.7373046875 61.17578125 1192.806640625 56.68505859375 1188.661010742188 52.531005859375 C 1184.514282226563 48.376708984375 1180.0302734375 44.43701171875 1175.333618164063 40.822021484375 C 1170.63427734375 37.205078125 1165.584350585938 33.806640625 1160.323364257813 30.720947265625 C 1155.058959960938 27.633544921875 1149.429321289063 24.76904296875 1143.59033203125 22.206787109375 C 1137.7490234375 19.64306640625 1131.52734375 17.306884765625 1125.098388671875 15.263427734375 C 1112.253051757813 11.180419921875 1097.995361328125 8.080322265625 1082.720703125 6.050048828125 C 1067.49365234375 4.0263671875 1050.765380859375 3 1033 3 L 208 3 M 208 0 L 1033 0 C 1176.424682617188 0 1241 65.098388671875 1241 208 L 1241 2344 C 1241 2481.86962890625 1171.453002929688 2552 1033 2552 L 208 2552 C 64.5753173828125 2552 0 2486.901611328125 0 2344 L 0 208 C 0 65.098388671875 64.5753173828125 0 208 0 Z" stroke="none"/>
            </g>
            <g id="Glass-2" data-name="Glass">
              <path id="Glass-3" data-name="Glass" d="M195,0h825c136.04,0,195,59.073,195,195V2331c0,130.915-63.951,195-195,195H195C58.96,2526,0,2466.927,0,2331V195C0,59.073,58.96,0,195,0Z" transform="translate(32 31)" fill="url(#linear-gradient-7)"/>
              <path id="Glass-4" data-name="Glass" d="M195,0h825c136.04,0,195,59.073,195,195V2331c0,130.915-63.951,195-195,195H195C58.96,2526,0,2466.927,0,2331V195C0,59.073,58.96,0,195,0Z" transform="translate(32 31)" fill="url(#radial-gradient-2)"/>
            </g>
            <path id="Glass-5" data-name="Glass" d="M175,0C50.051,0,0,50.073,0,175V2311c0,124.927,50.051,175,175,175h825c119.95,0,175-55.078,175-175V175c0-124.927-50.051-175-175-175Z" transform="translate(52 51)"/>
          </g>
          <g id="Plug" transform="translate(573 2586)">
            <path id="Plug-2" data-name="Plug" d="M20,0H130c15,0,20,4,20,4H0S5,0,20,0Z" fill="#343434"/>
          </g>
          <g id="Glass_Glare" data-name="Glass Glare" transform="translate(40 48)">
            <g id="Glare">
              <path id="Glare-2" data-name="Glare" d="M0,0C-61.941,26.509-89.945,83.723-89.945,177.464V2314.891c0,88.156,28.96,146.029,87.839,174.455,0-3.162-65.839-46.919-65.839-164.448V167.266C-67.945,43.285,0,0,0,0Z" transform="translate(89.945 0.654)" fill="none"/>
              <path id="Glare-3" data-name="Glare" d="M0,0C-61.941,26.509-89.945,83.723-89.945,177.464V2314.891c0,88.156,28.96,146.029,87.839,174.455,0-3.162-65.839-46.919-65.839-164.448V167.266C-67.945,43.285,0,0,0,0Z" transform="translate(89.945 0.654)" fill="none"/>
              <path id="Glare-4" data-name="Glare" d="M0,0C-61.941,26.509-89.945,83.723-89.945,177.464V2314.891c0,88.156,28.96,146.029,87.839,174.455,0-3.162-65.839-46.919-65.839-164.448V167.266C-67.945,43.285,0,0,0,0Z" transform="translate(89.945 0.654)" fill="rgba(255,255,255,0.6)"/>
            </g>
            <g id="Glare-5" data-name="Glare">
              <path id="Glare-6" data-name="Glare" d="M0,0C61.941,26.509,89.945,83.723,89.945,177.464V2314.891c0,88.156-28.96,146.029-87.839,174.455,0-3.162,65.839-46.919,65.839-164.448V167.266C67.945,43.285,0,0,0,0Z" transform="translate(1125.05 0.654)" fill="none"/>
              <path id="Glare-7" data-name="Glare" d="M0,0C61.941,26.509,89.945,83.723,89.945,177.464V2314.891c0,88.156-28.96,146.029-87.839,174.455,0-3.162,65.839-46.919,65.839-164.448V167.266C67.945,43.285,0,0,0,0Z" transform="translate(1125.05 0.654)" fill="none"/>
              <path id="Glare-8" data-name="Glare" d="M0,0C61.941,26.509,89.945,83.723,89.945,177.464V2314.891c0,88.156-28.96,146.029-87.839,174.455,0-3.162,65.839-46.919,65.839-164.448V167.266C67.945,43.285,0,0,0,0Z" transform="translate(1125.05 0.654)" fill="rgba(255,255,255,0.6)"/>
            </g>
          </g>
          <g id="Antenna_Bands" data-name="Antenna Bands" transform="translate(8)">
            <rect id="Antenna_Band" data-name="Antenna Band" width="22" height="18" transform="translate(0 248)" opacity="0.603"/>
            <rect id="Antenna_Band-2" data-name="Antenna Band" width="22" height="18" transform="translate(1257 248)" opacity="0.603"/>
            <rect id="Antenna_Band-3" data-name="Antenna Band" width="22" height="18" transform="translate(1013 22) rotate(-90)" opacity="0.603"/>
            <rect id="Antenna_Band-4" data-name="Antenna Band" width="22" height="18" transform="translate(248 2590) rotate(-90)" opacity="0.603"/>
            <rect id="Antenna_Band-5" data-name="Antenna Band" width="22" height="18" transform="translate(0 2324)" opacity="0.603"/>
            <rect id="Antenna_Band-6" data-name="Antenna Band" width="22" height="18" transform="translate(1257 2324)" opacity="0.603"/>
          </g>
          <g id="Buttons" transform="translate(0 350)">
            <path id="Mute" d="M6.981,0A6.991,6.991,0,0,0,0,7V93a6.991,6.991,0,0,0,6.981,7H10.97c0-5.26.067-94.858,0-100Z" fill="url(#linear-gradient-8)"/>
            <path id="Volume" d="M6.981,0A11.749,11.749,0,0,0,.536,4.023,5.739,5.739,0,0,0,0,6.149V181.771a16.534,16.534,0,0,0,.537,2.975c1.176,2.887,3.22,3.585,6.444,5.254H10.97c0-5.26.067-184.858,0-190Z" transform="translate(0 183)" fill="url(#linear-gradient-8)"/>
            <path id="Volume-2" data-name="Volume" d="M6.981,0A11.749,11.749,0,0,0,.536,4.023,5.739,5.739,0,0,0,0,6.149V181.771a16.534,16.534,0,0,0,.537,2.975c1.176,2.887,3.22,3.585,6.444,5.254H10.97c0-5.26.067-184.858,0-190Z" transform="translate(0 420)" fill="url(#linear-gradient-8)"/>
            <g id="Siri">
              <path id="Siri-2" data-name="Siri" d="M-6.981,0A11.749,11.749,0,0,1-.536,4.023,5.739,5.739,0,0,1,0,6.149V293.771a16.534,16.534,0,0,1-.537,2.975c-1.176,2.887-3.22,3.585-6.444,5.254H-10.97c0-5.26-.067-296.858,0-302Z" transform="translate(1295 245)" fill="url(#linear-gradient-11)"/>
              <path id="Siri-3" data-name="Siri" d="M-6.981,0A11.749,11.749,0,0,1-.536,4.023,5.739,5.739,0,0,1,0,6.149V293.771a16.534,16.534,0,0,1-.537,2.975c-1.176,2.887-3.22,3.585-6.444,5.254H-10.97c0-5.26-.067-296.858,0-302Z" transform="translate(1295 245)" fill="url(#linear-gradient-12)"/>
            </g>
          </g>
        </g>
        <g id="Front" transform="translate(570 84)">
          <g id="Speaker" transform="translate(0 9)" opacity="0.801">
            <rect id="Mask-6" data-name="Mask" width="156" height="21" rx="10.5" fill="#1d1c1c"/>
            <g id="Speaker-2" data-name="Speaker" clip-path="url(#clip-path-2)">
              <path id="Grid" d="M0,18.572V17.143H156v1.428Zm0-4.286V12.857H156v1.428ZM0,10V8.572H156V10ZM0,5.714V4.286H156V5.714ZM0,1.428V0H156V1.428Z" fill="rgba(0,0,0,0.15)"/>
              <path id="Grid-2" data-name="Grid" d="M0,18.572V17.143H156v1.428Zm0-4.286V12.857H156v1.428ZM0,10V8.572H156V10ZM0,5.714V4.286H156V5.714ZM0,1.428V0H156V1.428Z" transform="translate(0 3)" fill="rgba(255,255,255,0.03)"/>
              <path id="Grid-3" data-name="Grid" d="M150.221,24.286V0h1.669V24.286Zm-5.008,0V0h1.669V24.286Zm-5.008,0V0h1.67V24.286Zm-5.007,0V0h1.669V24.286Zm-5.008,0V0h1.669V24.286Zm-5.008,0V0h1.67V24.286Zm-5.008,0V0h1.67V24.286Zm-5.007,0V0h1.669V24.286Zm-5.008,0V0h1.67V24.286Zm-5.008,0V0h1.669V24.286Zm-5.007,0V0h1.669V24.286Zm-5.008,0V0h1.669V24.286Zm-5.008,0V0H91.8V24.286Zm-5.008,0V0h1.67V24.286Zm-5.007,0V0h1.669V24.286Zm-5.008,0V0h1.669V24.286Zm-5.008,0V0h1.67V24.286Zm-5.008,0V0h1.67V24.286Zm-5.007,0V0h1.669V24.286Zm-5.008,0V0H56.75V24.286Zm-5.008,0V0h1.67V24.286Zm-5.007,0V0h1.669V24.286Zm-5.008,0V0h1.669V24.286Zm-5.008,0V0h1.67V24.286Zm-5.008,0V0h1.67V24.286Zm-5.007,0V0h1.669V24.286Zm-5.008,0V0H21.7V24.286Zm-5.008,0V0h1.67V24.286Zm-5.008,0V0h1.67V24.286Zm-5.007,0V0H6.676V24.286ZM0,24.286V0H1.669V24.286Z" transform="translate(1.669 -1.429)" fill="rgba(0,0,0,0.15)"/>
              <path id="Grid-4" data-name="Grid" d="M150.221,24.286V0h1.669V24.286Zm-5.008,0V0h1.669V24.286Zm-5.008,0V0h1.67V24.286Zm-5.007,0V0h1.669V24.286Zm-5.008,0V0h1.669V24.286Zm-5.008,0V0h1.67V24.286Zm-5.008,0V0h1.67V24.286Zm-5.007,0V0h1.669V24.286Zm-5.008,0V0h1.67V24.286Zm-5.008,0V0h1.669V24.286Zm-5.007,0V0h1.669V24.286Zm-5.008,0V0h1.669V24.286Zm-5.008,0V0H91.8V24.286Zm-5.008,0V0h1.67V24.286Zm-5.007,0V0h1.669V24.286Zm-5.008,0V0h1.669V24.286Zm-5.008,0V0h1.67V24.286Zm-5.008,0V0h1.67V24.286Zm-5.007,0V0h1.669V24.286Zm-5.008,0V0H56.75V24.286Zm-5.008,0V0h1.67V24.286Zm-5.007,0V0h1.669V24.286Zm-5.008,0V0h1.669V24.286Zm-5.008,0V0h1.67V24.286Zm-5.008,0V0h1.67V24.286Zm-5.007,0V0h1.669V24.286Zm-5.008,0V0H21.7V24.286Zm-5.008,0V0h1.67V24.286Zm-5.008,0V0h1.67V24.286Zm-5.007,0V0H6.676V24.286ZM0,24.286V0H1.669V24.286Z" transform="translate(-1.331 -1.429)" fill="rgba(255,255,255,0.03)"/>
            </g>
            <rect id="Shadow-3" data-name="Shadow" width="156" height="21" rx="10.5" fill="none" opacity="0.244"/>
          </g>
          <g id="Camera" transform="translate(196)">
            <circle id="Oval_" data-name="Oval " cx="19" cy="19" r="19" fill="url(#radial-gradient-3)"/>
            <g transform="matrix(1, 0, 0, 1, -766, -84)" filter="url(#Mask-3)">
              <circle id="Mask-7" data-name="Mask" cx="10" cy="10" r="10" transform="translate(775 93)" opacity="0.388" fill="url(#radial-gradient)"/>
            </g>
            <g id="Camera-2" data-name="Camera" clip-path="url(#clip-path-4)">
              <path id="Oval" d="M9.525,3.855c3.661,0,7,1.789,7-.182S16.4,1.268,9.175.19,0,2.894,0,4.865,5.864,3.855,9.525,3.855Z" transform="translate(6.737 24.616) rotate(-76)" fill="#3e89cc"/>
              <ellipse id="Oval-2" data-name="Oval" cx="6" cy="7.5" rx="6" ry="7.5" transform="translate(21 9)" fill="#1c5894"/>
              <ellipse id="Oval-3" data-name="Oval" cx="8.898" cy="5.807" rx="8.898" ry="5.807" transform="translate(10.949 23.604) rotate(-16)" fill="#0a152b"/>
            </g>
          </g>
        </g>
      </g>
      <g id="Screen" transform="translate(85 77)">
        <path id="Mask-8" data-name="Mask" d="M876,26v1c0,27.794-21.206,63-70,63H320c-48.794,0-70-35.206-70-63V26c0-12.855,0-26-23-26H130C48.935,0,0,48.935,0,130V2306c0,81.065,48.935,130,130,130H995c81.065,0,130-48.935,130-130V130c0-81.065-48.935-130-130-130H899C876,0,876,13.145,876,26Z" fill="none"/>
        <g id="Screen-2" data-name="Screen" clip-path="url(#clip-path-5)">
          <rect id="Screen-3" data-name="Screen" width="1125" height="2436" fill="#1d2129"/>
        </g>
      </g>
    </g>
  </g>
</svg>
