<svg xmlns="http://www.w3.org/2000/svg" width="64" height="64" viewBox="0 0 64 64"><g><g><g><path fill="#fff" d="M0 14C0 6.268 6.268 0 14 0h36c7.732 0 14 6.268 14 14v36c0 7.732-6.268 14-14 14H14C6.268 64 0 57.732 0 50z"/></g><g><g/><g><g><path d="M25.09 20.37a2.301 2.301 0 0 0-1.78-.308L33.898 30.65l3.431-3.432z"/></g><g><path d="M21.995 20.92a2.3 2.3 0 0 0-.465 1.385v18.86c0 .51.17.992.465 1.384L32.81 31.735z"/></g><g><path d="M41.803 29.726L38.719 28l-3.739 3.739 3.739 3.739 3.084-1.726a2.28 2.28 0 0 0 1.18-2.013c0-.847-.44-1.6-1.18-2.013z"/></g><g><path d="M33.897 32.82L23.31 43.407a2.305 2.305 0 0 0 1.779-.307l12.24-6.848z"/></g></g></g></g></g></svg>