<svg xmlns="http://www.w3.org/2000/svg" width="64" height="64" viewBox="0 0 64 64"><g><g><path fill="#fff" d="M0 14C0 6.268 6.268 0 14 0h36c7.732 0 14 6.268 14 14v36c0 7.732-6.268 14-14 14H14C6.268 64 0 57.732 0 50z"/></g><g><g/><g><path d="M25.085 41.876a1.765 1.765 0 0 1-2.409.644 1.76 1.76 0 0 1-.645-2.404l.347-.599h4.072zm-3.325-3.767c-.97 0-1.76-.789-1.76-1.76 0-.97.79-1.759 1.76-1.759h3.46l4.748-8.223-1.286-2.228a1.762 1.762 0 0 1 .644-2.404 1.762 1.762 0 0 1 2.403.644l.271.47.27-.47a1.762 1.762 0 0 1 3.224.425c.122.454.06.928-.176 1.335L29.284 34.59h3.806l2.032 3.52zm20.48 0h-1.429l1.159 2.007a1.762 1.762 0 0 1-1.98 2.58 1.748 1.748 0 0 1-1.068-.82l-6.11-10.582 2.032-3.519 3.935 6.815h3.461c.97 0 1.76.79 1.76 1.76s-.79 1.76-1.76 1.76z"/></g></g></g></svg>