<svg xmlns="http://www.w3.org/2000/svg" width="65" height="64" viewBox="0 0 65 64"><g><g><path d="M16.616 29.967a26.326 26.326 0 0 1-.98-20.927 15.584 15.584 0 0 0 16.926-6.85 15.574 15.574 0 0 0 16.926 6.85 26.316 26.316 0 0 1-.975 20.93 26.305 26.305 0 0 1-15.95 13.58 26.315 26.315 0 0 1-15.947-13.583zM50.157 7.76c-6.64 1.85-13.42-.18-17.59-7.76-3.6 6.53-9.85 9.91-17.59 7.76a27.39 27.39 0 0 0 17.59 36.93 27.4 27.4 0 0 0 17.59-36.93z"/></g><g><path d="M43.01 19.29v6.58h-7.1v7.4h-6.7v-7.4h-7v-6.58h7v-7.33h6.7v7.33zm-6-8.43h-8.9v7.33h-7v8.78h7v7.4h8.9v-7.4h7.05v-8.78h-7.05z"/></g><g><path d="M1.984 36.87c-.27 1.25 0 1.21 5.52 8.81a2.1 2.1 0 0 0 2.9.49l.93-.65c-2.95-4-4.81-6.52-5.47-7.62a1.44 1.44 0 0 1 1.34.51c5.78 5.59 6.87 7.35 10.36 7.35 6.18.005 11.197 5 11.23 11.18v6.08h-9.85c0-5.42-2.71-7.36-6.8-9.89-7.68-4.73-5.58-4.28-9.19-11.26-2.47-4.82-2.09-4.31-.86-15.36 1.2 1 1 2.22 1.24 5.62.098 1.04.128 2.086.09 3.13l-.23.13a2.15 2.15 0 0 0-1.16 1.47zm1.58-.45c1.26-.71 1-.31.66-7.54-.13-2.8-2.18-3.9-2.88-3.9-.14 0-.23 0-.24.13-1 9.59-1.6 11.46-.56 14.29.71 2 2.32 4.42 3.35 7.24 2.94 8.08 13.91 7 13.91 16v1.45h12v-7.15c.005-6.777-5.464-12.286-12.24-12.33-5.58 0-8.57-9.23-12.64-7.57-.91.37-.48.91 4.89 8.21a1 1 0 0 1-1.38-.23l-5.16-7.09a1 1 0 0 1 .29-1.51z"/></g><g><path d="M36.33 63.02v-6.08c.033-6.18 5.05-11.175 11.23-11.18 3.48 0 4.57-1.71 10.32-7.3a1.44 1.44 0 0 1 1.34-.51c-1.18 1.8-4.15 5.83-5.47 7.62l.93.65a2.1 2.1 0 0 0 2.9-.49c5.53-7.6 5.79-7.56 5.52-8.81-.2-.9-.68-1.17-1.39-1.6-.09-.5.23-5.78.26-6.33a3.3 3.3 0 0 1 1.07-2.43c.95 8.45 1.37 10.09.48 12.52-.67 1.85-2.3 4.36-3.35 7.24-2.86 7.75-13.87 6.07-14 16.7zm24.85-16.38c1-2.82 2.64-5.28 3.35-7.24 1-2.83.48-4.7-.56-14.29 0-.08-.1-.13-.24-.13-.71 0-2.75 1.11-2.88 3.9-.29 7.23-.6 6.88.71 7.54a1 1 0 0 1 .33 1.51c-5.19 7.13-5.44 8.09-6.54 7.33 3.28-4.5 4.64-6.5 5.14-7.32.5-.82-.68-1.18-1.53-1.18-2.87 0-6.5 7.84-11.4 7.84a12.32 12.32 0 0 0-12.33 12.34v7.18h12c0-1.27-.42-5.83 3.93-8.59 5.85-3.67 8.53-4.77 10.02-8.89z"/></g></g></svg>