<svg xmlns="http://www.w3.org/2000/svg" width="54" height="74" viewBox="0 0 54 74"><g><g><g><path d="M29.126 70.84H6.23a.963.963 0 0 0-.96.96c0 .528.432.96.96.96h22.896c.528 0 .96-.432.96-.96a.963.963 0 0 0-.96-.96z"/><path fill="none" stroke="#f9f9fa" stroke-miterlimit="50" stroke-width=".75" d="M29.126 70.84H6.23a.963.963 0 0 0-.96.96c0 .528.432.96.96.96h22.896v0c.528 0 .96-.432.96-.96a.963.963 0 0 0-.96-.96z"/></g><g><path d="M47.076 70.84H37.62a.963.963 0 0 0-.96.96c0 .528.432.96.96.96h9.456c.528 0 .96-.432.96-.96a.963.963 0 0 0-.96-.96z"/><path fill="none" stroke="#f9f9fa" stroke-miterlimit="50" stroke-width=".75" d="M47.076 70.84H37.62a.963.963 0 0 0-.96.96c0 .528.432.96.96.96h9.456c.528 0 .96-.432.96-.96a.963.963 0 0 0-.96-.96z"/></g><g><path d="M50.964 66.612h-8.736c-.384-.816-.816-1.632-1.344-2.352-.624-.912-1.296-1.776-2.112-2.592a18.01 18.01 0 0 0-2.544-2.112 17.258 17.258 0 0 0-2.928-1.584c-.576-.24-1.152-.48-1.776-.624l-1.488-2.208a23.657 23.657 0 0 1-2.448-21.456.958.958 0 0 0-.576-1.248.958.958 0 0 0-1.248.576c-2.928 7.68-1.92 16.368 2.64 23.232l.384.576a17.054 17.054 0 0 0-2.208-.144.963.963 0 0 0-.96.96c0 .528.432.96.96.96 1.056 0 2.064.096 3.072.336.96.192 1.92.528 2.88.912.912.384 1.776.864 2.592 1.44.816.576 1.584 1.2 2.256 1.872.672.72 1.344 1.488 1.872 2.304a17.279 17.279 0 0 1 1.392 2.64c.144.336.48.576.864.576h9.36c.528 0 .96-.432.96-.96s-.336-1.104-.864-1.104z"/><path fill="none" stroke="#f9f9fa" stroke-miterlimit="50" stroke-width=".75" d="M50.964 66.612h-8.736c-.384-.816-.816-1.632-1.344-2.352-.624-.912-1.296-1.776-2.112-2.592a18.01 18.01 0 0 0-2.544-2.112 17.258 17.258 0 0 0-2.928-1.584c-.576-.24-1.152-.48-1.776-.624l-1.488-2.208a23.657 23.657 0 0 1-2.448-21.456.958.958 0 0 0-.576-1.248.958.958 0 0 0-1.248.576c-2.928 7.68-1.92 16.368 2.64 23.232l.384.576a17.054 17.054 0 0 0-2.208-.144v0a.963.963 0 0 0-.96.96c0 .528.432.96.96.96 1.056 0 2.064.096 3.072.336.96.192 1.92.528 2.88.912.912.384 1.776.864 2.592 1.44.816.576 1.584 1.2 2.256 1.872.672.72 1.344 1.488 1.872 2.304a17.279 17.279 0 0 1 1.392 2.64c.144.336.48.576.864.576h9.36c.528 0 .96-.432.96-.96s-.336-1.104-.864-1.104z"/></g><g><path d="M52.504 19.287l-1.152-1.632a17.241 17.241 0 0 0-8.112-6.288 16.594 16.594 0 0 0-9.408-.72 16.956 16.956 0 0 0-6.432-6.96C24.376 1.863 20.968 1 17.464 1.24l-2.064.192a.969.969 0 0 0-.864.768c-.096.432.096.864.48 1.056l1.968 1.056a22.1 22.1 0 0 1 3.744 2.496c.336.288.624.528.912.816a21.336 21.336 0 0 0-5.52-.288c-3.024.288-5.904 1.2-8.496 2.736L5.56 11.32a.963.963 0 0 0-.432 1.056c.096.432.48.72.912.72l2.688.048c2.304.048 4.656.432 6.864 1.056.336.096.72.192 1.056.336-1.488.048-2.928.24-4.368.624-3.456.864-6.624 2.64-9.12 5.136l-1.68 1.728c-.288.288-.384.768-.144 1.152.192.384.624.576 1.056.48l2.592-.576c2.64-.576 5.088-.816 7.536-.672 1.968.096 3.84.48 5.712 1.056-1.44.48-2.784 1.2-3.936 2.16a13.187 13.187 0 0 0-3.744 4.992l-.576 1.344c-.144.384-.048.864.288 1.104a.939.939 0 0 0 1.152.048l1.296-.96c.816-.576 2.16-1.056 3.984-1.392.96-.192 1.968-.288 2.928-.384-3.36 7.44-3.408 15.888-.096 23.424l1.632 3.696h-.048c-.336.144-.72.24-1.056.384-1.008.432-2.016.96-2.928 1.584a18.01 18.01 0 0 0-2.544 2.112 16.04 16.04 0 0 0-2.112 2.592 17.258 17.258 0 0 0-1.584 2.928c-.144.288-.096.624.096.912.192.288.48.432.816.432h25.104c.528 0 .96-.432.96-.96a.963.963 0 0 0-.96-.96H13.288c.24-.432.48-.864.768-1.296a14.056 14.056 0 0 1 1.872-2.304c.672-.72 1.44-1.344 2.256-1.872a13.706 13.706 0 0 1 2.592-1.44c.288-.144.624-.24.912-.384.288-.096.624-.192.912-.288h.096c.48-.144.72-.672.624-1.152 0-.048-.048-.096-.048-.144l-2.016-4.656c-3.312-7.536-2.976-16.08.816-23.376.144-.336.144-.72-.048-1.008-.192-.288-.528-.432-.912-.384a95.54 95.54 0 0 1-1.248.144c-1.056.096-2.304.24-3.504.48-1.296.24-2.4.528-3.264.912a10.06 10.06 0 0 1 2.4-2.736c1.392-1.104 3.024-1.872 4.752-2.16a1.377 1.377 0 0 0 1.152-1.248 1.42 1.42 0 0 0-.864-1.44 24.629 24.629 0 0 0-7.824-1.728c-2.4-.144-4.8.048-7.344.576 2.16-1.92 4.752-3.312 7.536-3.984a18.577 18.577 0 0 1 9.456.096.952.952 0 0 0 1.152-.528c.192-.432.048-.96-.384-1.2a28.931 28.931 0 0 0-6.816-3.024 28.511 28.511 0 0 0-6.672-1.104c2.112-1.104 4.416-1.776 6.864-2.016 2.688-.24 5.424.144 7.968 1.056a.98.98 0 0 0 1.104-.336.939.939 0 0 0-.048-1.152c-1.008-1.296-2.16-2.448-3.408-3.504a30.594 30.594 0 0 0-2.976-2.112c2.592.096 5.136.816 7.392 2.208a15.02 15.02 0 0 1 6 6.816c.192.432.672.672 1.104.528a15.047 15.047 0 0 1 9.072.48 15.165 15.165 0 0 1 6.336 4.416 22.442 22.442 0 0 0-3.504-1.008c-1.584-.336-3.216-.48-4.848-.48a.925.925 0 0 0-.912.72c-.096.432.048.864.432 1.056 2.304 1.392 4.272 3.36 5.76 5.568a18.646 18.646 0 0 1 2.736 6.624c-1.488-1.68-3.168-3.216-5.04-4.512-2.016-1.44-4.272-2.592-6.576-3.456a1.07 1.07 0 0 0-1.2.432c-.24.384-.096.96.288 1.248 2.592 1.872 4.656 4.416 6 7.344 1.2 2.64 1.728 5.52 1.584 8.4-1.2-2.352-2.544-4.32-4.176-6.096-1.776-2.016-3.888-3.696-6.24-5.04-.528-.336-1.2-.24-1.68.192s-.576 1.104-.288 1.68a10.926 10.926 0 0 1 1.248 5.088c0 1.2-.192 2.448-.624 3.6-.24-.816-.624-1.68-1.104-2.688a.962.962 0 0 0-1.296-.432.962.962 0 0 0-.432 1.296c.768 1.44 1.152 2.64 1.2 3.552l.096 1.632a.969.969 0 0 0 .768.864c.432.096.864-.096 1.056-.48l.72-1.296a12.909 12.909 0 0 0 1.536-6.096c0-1.536-.288-3.024-.768-4.416a23.618 23.618 0 0 1 4.368 3.792c1.632 1.776 2.976 3.84 4.176 6.288l1.152 2.4c.192.384.624.576 1.008.528a.969.969 0 0 0 .768-.864l.24-2.4a19.848 19.848 0 0 0-1.68-10.368 21.373 21.373 0 0 0-2.256-3.792c.288.192.624.384.912.624a26.605 26.605 0 0 1 5.136 4.704l1.728 2.064c.288.336.72.432 1.104.24.384-.192.624-.576.576-1.008l-.336-2.4a20.142 20.142 0 0 0-3.168-8.352 19.922 19.922 0 0 0-3.648-4.128c.432.048.816.144 1.248.24 1.488.288 2.928.768 4.32 1.392l2.016.864c.384.192.864.048 1.104-.288.144-.384.192-.864-.048-1.2z"/><path fill="none" stroke="#f9f9fa" stroke-miterlimit="50" stroke-width=".75" d="M52.504 19.287l-1.152-1.632a17.241 17.241 0 0 0-8.112-6.288 16.594 16.594 0 0 0-9.408-.72 16.956 16.956 0 0 0-6.432-6.96C24.376 1.863 20.968 1 17.464 1.24l-2.064.192a.969.969 0 0 0-.864.768c-.096.432.096.864.48 1.056l1.968 1.056a22.1 22.1 0 0 1 3.744 2.496c.336.288.624.528.912.816a21.336 21.336 0 0 0-5.52-.288c-3.024.288-5.904 1.2-8.496 2.736L5.56 11.32a.963.963 0 0 0-.432 1.056c.096.432.48.72.912.72l2.688.048c2.304.048 4.656.432 6.864 1.056.336.096.72.192 1.056.336-1.488.048-2.928.24-4.368.624-3.456.864-6.624 2.64-9.12 5.136l-1.68 1.728c-.288.288-.384.768-.144 1.152.192.384.624.576 1.056.48l2.592-.576c2.64-.576 5.088-.816 7.536-.672 1.968.096 3.84.48 5.712 1.056-1.44.48-2.784 1.2-3.936 2.16a13.187 13.187 0 0 0-3.744 4.992l-.576 1.344c-.144.384-.048.864.288 1.104a.939.939 0 0 0 1.152.048l1.296-.96c.816-.576 2.16-1.056 3.984-1.392.96-.192 1.968-.288 2.928-.384-3.36 7.44-3.408 15.888-.096 23.424l1.632 3.696v0h-.048c-.336.144-.72.24-1.056.384-1.008.432-2.016.96-2.928 1.584a18.01 18.01 0 0 0-2.544 2.112 16.04 16.04 0 0 0-2.112 2.592 17.258 17.258 0 0 0-1.584 2.928c-.144.288-.096.624.096.912.192.288.48.432.816.432h25.104c.528 0 .96-.432.96-.96a.963.963 0 0 0-.96-.96H13.288c.24-.432.48-.864.768-1.296a14.056 14.056 0 0 1 1.872-2.304c.672-.72 1.44-1.344 2.256-1.872a13.706 13.706 0 0 1 2.592-1.44c.288-.144.624-.24.912-.384.288-.096.624-.192.912-.288h.096c.48-.144.72-.672.624-1.152 0-.048-.048-.096-.048-.144l-2.016-4.656c-3.312-7.536-2.976-16.08.816-23.376.144-.336.144-.72-.048-1.008-.192-.288-.528-.432-.912-.384a95.54 95.54 0 0 1-1.248.144c-1.056.096-2.304.24-3.504.48-1.296.24-2.4.528-3.264.912a10.06 10.06 0 0 1 2.4-2.736c1.392-1.104 3.024-1.872 4.752-2.16a1.377 1.377 0 0 0 1.152-1.248 1.42 1.42 0 0 0-.864-1.44 24.629 24.629 0 0 0-7.824-1.728c-2.4-.144-4.8.048-7.344.576 2.16-1.92 4.752-3.312 7.536-3.984a18.577 18.577 0 0 1 9.456.096.952.952 0 0 0 1.152-.528c.192-.432.048-.96-.384-1.2a28.931 28.931 0 0 0-6.816-3.024 28.511 28.511 0 0 0-6.672-1.104c2.112-1.104 4.416-1.776 6.864-2.016 2.688-.24 5.424.144 7.968 1.056a.98.98 0 0 0 1.104-.336.939.939 0 0 0-.048-1.152c-1.008-1.296-2.16-2.448-3.408-3.504a30.594 30.594 0 0 0-2.976-2.112c2.592.096 5.136.816 7.392 2.208a15.02 15.02 0 0 1 6 6.816c.192.432.672.672 1.104.528a15.047 15.047 0 0 1 9.072.48 15.165 15.165 0 0 1 6.336 4.416 22.442 22.442 0 0 0-3.504-1.008c-1.584-.336-3.216-.48-4.848-.48a.925.925 0 0 0-.912.72c-.096.432.048.864.432 1.056 2.304 1.392 4.272 3.36 5.76 5.568a18.646 18.646 0 0 1 2.736 6.624c-1.488-1.68-3.168-3.216-5.04-4.512-2.016-1.44-4.272-2.592-6.576-3.456a1.07 1.07 0 0 0-1.2.432c-.24.384-.096.96.288 1.248 2.592 1.872 4.656 4.416 6 7.344 1.2 2.64 1.728 5.52 1.584 8.4-1.2-2.352-2.544-4.32-4.176-6.096-1.776-2.016-3.888-3.696-6.24-5.04-.528-.336-1.2-.24-1.68.192s-.576 1.104-.288 1.68a10.926 10.926 0 0 1 1.248 5.088c0 1.2-.192 2.448-.624 3.6-.24-.816-.624-1.68-1.104-2.688a.962.962 0 0 0-1.296-.432.962.962 0 0 0-.432 1.296c.768 1.44 1.152 2.64 1.2 3.552l.096 1.632a.969.969 0 0 0 .768.864c.432.096.864-.096 1.056-.48l.72-1.296a12.909 12.909 0 0 0 1.536-6.096c0-1.536-.288-3.024-.768-4.416a23.618 23.618 0 0 1 4.368 3.792c1.632 1.776 2.976 3.84 4.176 6.288l1.152 2.4c.192.384.624.576 1.008.528a.969.969 0 0 0 .768-.864l.24-2.4a19.848 19.848 0 0 0-1.68-10.368 21.373 21.373 0 0 0-2.256-3.792c.288.192.624.384.912.624a26.605 26.605 0 0 1 5.136 4.704l1.728 2.064c.288.336.72.432 1.104.24.384-.192.624-.576.576-1.008l-.336-2.4a20.142 20.142 0 0 0-3.168-8.352 19.922 19.922 0 0 0-3.648-4.128c.432.048.816.144 1.248.24 1.488.288 2.928.768 4.32 1.392l2.016.864c.384.192.864.048 1.104-.288.144-.384.192-.864-.048-1.2z"/></g><g><path d="M7.196 68.54c.528 0 .96-.432.96-.96a.963.963 0 0 0-.96-.96H2.3a.963.963 0 0 0-.96.96c0 .528.432.96.96.96h4.896z"/><path fill="none" stroke="#f9f9fa" stroke-miterlimit="50" stroke-width=".75" d="M7.196 68.54c.528 0 .96-.432.96-.96a.963.963 0 0 0-.96-.96H2.3v0a.963.963 0 0 0-.96.96c0 .528.432.96.96.96h4.896v0z"/></g></g></g></svg>