<svg xmlns="http://www.w3.org/2000/svg" width="74" height="58" viewBox="0 0 74 58"><g><g><g><path d="M62.541 49.777H50.933c-4.088 0-7.479-3.033-8.044-6.968h27.696c-.565 3.935-3.956 6.968-8.044 6.968zm1.169 4.645H49.774v-2.39c.382.042.769.068 1.161.068h11.613c.393 0 .78-.026 1.162-.069zM9.129 52.1h38.323v2.322H9.129zM3.323 38.164h39.483c0 .851.247 1.638.646 2.325h-2.968v1.162c0 3.285 1.523 6.217 3.897 8.136H8.685L3.323 39.052zm1.16-3.102c0-.146.042-.289.12-.412l8.383-13.466a.926.926 0 0 1 1.577-.001l8.383 13.466a.78.78 0 0 1-.66 1.193H5.262a.78.78 0 0 1-.78-.78zM10.29 9.97c0-.551.588-.959 1.102-.795l9.352 3.118-.002 7.688c0 .583.166 1.15.478 1.64.012.02.03.032.042.05l-3.03 1.01-1.696-2.726a3.236 3.236 0 0 0-2.762-1.532c-1.052 0-2.004.511-2.616 1.356l-.868-9.575zm12.778-5.731c0-.314.166-.601.441-.768a.998.998 0 0 1 .95-.047l14.422 6.948a.804.804 0 0 1 .325.286c.107.17.142.367.097.559a.76.76 0 0 1-.35.478l-14.648 8.92a.828.828 0 0 1-1.126-.25.73.73 0 0 1-.114-.394zM38.757 20.85l-3.44 5.505-4.123-2.748v-.147c0-1.332-.709-2.53-1.856-3.184l4.94-3.009zm-7.9 5.324l7.893 5.257a1.28 1.28 0 0 1 .196 1.975l-2.427 2.425h-7.418zm-5.938 7.24l-5.425-8.71 7.596-2.53a1.35 1.35 0 0 1 1.781 1.285v.541c0 .08-.007.161-.022.243L26.74 35.832h-1.464c.066-.25.111-.509.111-.779a3.1 3.1 0 0 0-.468-1.638zm18.868-13.441l6.82 7.782c-.01.004-.02.01-.028.012a6.24 6.24 0 0 0-4.277 5.903v.003a4.64 4.64 0 0 0-2.844 2.158h-3.652l.786-.785a3.588 3.588 0 0 0 1.058-2.55c0-1.208-.601-2.329-1.608-2.999l-2.79-1.858 4.706-7.519c.384-.616 1.35-.695 1.829-.147zm11.746 4.791l3.592 1.438a9.069 9.069 0 0 1 5.65 7.316H59.06v2.323h6.964a2.324 2.324 0 0 1 2.322 2.322 2.324 2.324 0 0 1-2.322 2.323H47.451a2.324 2.324 0 0 1-2.322-2.323 2.324 2.324 0 0 1 2.322-2.322h6.964v-2.323H48.63a3.92 3.92 0 0 1 2.67-3.544 6.247 6.247 0 0 0 4.234-5.21zm14.499 15.722c.4-.686.645-1.473.645-2.323 0-2.176-1.51-3.993-3.531-4.495a11.389 11.389 0 0 0-7.151-9.623l-6.737-2.694v2.688a3.92 3.92 0 0 1-.78 2.344l-6.947-7.94a3.473 3.473 0 0 0-2.608-1.183A3.447 3.447 0 0 0 40 18.87l-3.61-2.888 3.772-2.298a3.065 3.065 0 0 0 1.005-4.266 3.1 3.1 0 0 0-1.278-1.134L25.465 1.332a3.297 3.297 0 0 0-3.165.154 3.207 3.207 0 0 0-1.555 2.752v5.606l-8.623-2.875a3.164 3.164 0 0 0-4.154 3v.234c0 .093.003.187.013.287L9.119 23l-6.49 10.424a3.097 3.097 0 0 0-.468 1.638c0 .271.047.529.112.78H1V39.6l5.806 11.613v5.532h59.226V51.49C70.085 50.051 73 46.19 73 41.648v-1.161z"/><path fill="none" stroke="#f9f9fa" stroke-miterlimit="50" d="M62.541 49.777H50.933c-4.088 0-7.479-3.033-8.044-6.968h27.696c-.565 3.935-3.956 6.968-8.044 6.968zm1.169 4.645H49.774v-2.39c.382.042.769.068 1.161.068h11.613c.393 0 .78-.026 1.162-.069zM9.129 52.1h38.323v2.322H9.129zM3.323 38.164h39.483c0 .851.247 1.638.646 2.325h-2.968v1.162c0 3.285 1.523 6.217 3.897 8.136H8.685L3.323 39.052zm1.16-3.102c0-.146.042-.289.12-.412l8.383-13.466a.926.926 0 0 1 1.577-.001l8.383 13.466a.78.78 0 0 1-.66 1.193H5.262a.78.78 0 0 1-.78-.78zM10.29 9.97c0-.551.588-.959 1.102-.795l9.352 3.118-.002 7.688c0 .583.166 1.15.478 1.64.012.02.03.032.042.05l-3.03 1.01-1.696-2.726a3.236 3.236 0 0 0-2.762-1.532c-1.052 0-2.004.511-2.616 1.356l-.868-9.575zm12.778-5.731c0-.314.166-.601.441-.768a.998.998 0 0 1 .95-.047l14.422 6.948a.804.804 0 0 1 .325.286c.107.17.142.367.097.559a.76.76 0 0 1-.35.478l-14.648 8.92a.828.828 0 0 1-1.126-.25.73.73 0 0 1-.114-.394zM38.757 20.85l-3.44 5.505-4.123-2.748v-.147c0-1.332-.709-2.53-1.856-3.184l4.94-3.009zm-7.9 5.324l7.893 5.257a1.28 1.28 0 0 1 .196 1.975l-2.427 2.425h-7.418zm-5.938 7.24l-5.425-8.71 7.596-2.53a1.35 1.35 0 0 1 1.781 1.285v.541c0 .08-.007.161-.022.243L26.74 35.832h-1.464c.066-.25.111-.509.111-.779a3.1 3.1 0 0 0-.468-1.638zm18.868-13.441l6.82 7.782c-.01.004-.02.01-.028.012a6.24 6.24 0 0 0-4.277 5.903v.003a4.64 4.64 0 0 0-2.844 2.158h-3.652l.786-.785a3.588 3.588 0 0 0 1.058-2.55c0-1.208-.601-2.329-1.608-2.999l-2.79-1.858 4.706-7.519c.384-.616 1.35-.695 1.829-.147zm11.746 4.791l3.592 1.438a9.069 9.069 0 0 1 5.65 7.316H59.06v2.323h6.964a2.324 2.324 0 0 1 2.322 2.322 2.324 2.324 0 0 1-2.322 2.323H47.451a2.324 2.324 0 0 1-2.322-2.323 2.324 2.324 0 0 1 2.322-2.322h6.964v-2.323H48.63a3.92 3.92 0 0 1 2.67-3.544 6.247 6.247 0 0 0 4.234-5.21zm14.499 15.722c.4-.686.645-1.473.645-2.323 0-2.176-1.51-3.993-3.531-4.495a11.389 11.389 0 0 0-7.151-9.623l-6.737-2.694v2.688a3.92 3.92 0 0 1-.78 2.344l-6.947-7.94a3.473 3.473 0 0 0-2.608-1.183A3.447 3.447 0 0 0 40 18.87l-3.61-2.888 3.772-2.298a3.065 3.065 0 0 0 1.005-4.266 3.1 3.1 0 0 0-1.278-1.134L25.465 1.332a3.297 3.297 0 0 0-3.165.154 3.207 3.207 0 0 0-1.555 2.752v5.606l-8.623-2.875a3.164 3.164 0 0 0-4.154 3v.234c0 .093.003.187.013.287L9.119 23l-6.49 10.424a3.097 3.097 0 0 0-.468 1.638c0 .271.047.529.112.78H1V39.6l5.806 11.613v5.532h59.226V51.49C70.085 50.051 73 46.19 73 41.648v-1.161z"/></g><g><path d="M16.1 31.19h2.323v2.323H16.1z"/><path fill="none" stroke="#f9f9fa" stroke-miterlimit="50" d="M16.1 31.19v0h2.323v2.323H16.1v0z"/></g><g><path d="M25.39 6.81h2.323v2.323H25.39z"/><path fill="none" stroke="#f9f9fa" stroke-miterlimit="50" d="M25.39 6.81v0h2.323v2.323H25.39v0z"/></g><g><path d="M30.03 11.45h2.323v2.323H30.03z"/><path fill="none" stroke="#f9f9fa" stroke-miterlimit="50" d="M30.03 11.45v0h2.323v2.323H30.03v0z"/></g><g><path d="M33.52 20.74h2.323v2.323H33.52z"/><path fill="none" stroke="#f9f9fa" stroke-miterlimit="50" d="M33.52 20.74v0h2.323v2.323H33.52v0z"/></g><g><path d="M12.61 12.61h2.323v2.323H12.61z"/><path fill="none" stroke="#f9f9fa" stroke-miterlimit="50" d="M12.61 12.61v0h2.323v2.323H12.61v0z"/></g><g><path d="M16.1 16.1h2.323v2.323H16.1z"/><path fill="none" stroke="#f9f9fa" stroke-miterlimit="50" d="M16.1 16.1v0h2.323v2.323H16.1v0z"/></g><g><path d="M12.61 24.23h2.323v2.323H12.61z"/><path fill="none" stroke="#f9f9fa" stroke-miterlimit="50" d="M12.61 24.23v0h2.323v2.323H12.61v0z"/></g><g><path d="M23.06 25.39h2.323v2.323H23.06z"/><path fill="none" stroke="#f9f9fa" stroke-miterlimit="50" d="M23.06 25.39v0h2.323v2.323H23.06v0z"/></g><g><path d="M32.35 31.19h2.323v2.323H32.35z"/><path fill="none" stroke="#f9f9fa" stroke-miterlimit="50" d="M32.35 31.19v0h2.323v2.323H32.35v0z"/></g><g><path d="M40.48 24.23h2.323v2.323H40.48z"/><path fill="none" stroke="#f9f9fa" stroke-miterlimit="50" d="M40.48 24.23v0h2.323v2.323H40.48v0z"/></g><g><path d="M42.81 30.03h2.323v2.323H42.81z"/><path fill="none" stroke="#f9f9fa" stroke-miterlimit="50" d="M42.81 30.03v0h2.323v2.323H42.81v0z"/></g><g><path d="M9.13 31.19h2.323v2.323H9.13z"/><path fill="none" stroke="#f9f9fa" stroke-miterlimit="50" d="M9.13 31.19v0h2.323v2.323H9.13v0z"/></g></g></g></svg>