<svg xmlns="http://www.w3.org/2000/svg" width="54" height="66" viewBox="0 0 54 66"><g><g><path d="M49.907 51.225c.436.872.76 1.85.908 2.856.048.375.09.752.09 1.133v7.78h-9.981v-.997c0-5.386 3.793-9.774 8.983-10.772zm-45.913 0c5.19.998 8.983 5.386 8.983 10.772v.997h-9.98v-7.78c0-.381.041-.758.089-1.133a9.534 9.534 0 0 1 .908-2.856zM34.332 43.3l10.376 3.338c1.685.532 3.071 1.553 4.117 2.838-5.663 1.251-9.905 6.46-9.905 12.53v.999H14.971v-1.197c0-5.853-4.025-11.023-9.764-12.465 1.03-1.176 2.366-2.083 3.976-2.507l10.38-3.524c1.674 3.193 6.332 5.393 6.985 5.72h.795c.654-.328 5.32-2.533 6.99-5.732zm-13.37-5.587a14.033 14.033 0 0 0 5.989 1.339c2.153 0 4.176-.488 5.988-1.339v3.337c0 2.398-3.992 4.797-5.988 5.796-1.997-.799-5.989-3.398-5.989-5.796zm6.987-6.647h1.996c.599 0 .998.399.998.998s-.4.998-.998.998h-1.996c-.6 0-.998-.4-.998-.998 0-.6.399-.998.998-.998zm12.819-3.993h2.05a4.902 4.902 0 0 1-3.068 3.65 13.967 13.967 0 0 0 1.018-3.65zm.156-5.988h.998c.599 0 .998.4.998 1v3.002h-1.996zm-28.945 0h.998v4.002h-.998c-.599 0-.998-.4-.998-1v-2.002c0-.6.4-1 .998-1zm23.963-6.987v3.99c0 1.597 1.398 2.994 2.996 2.994v3.99c0 2.18-.601 4.221-1.63 5.986h-4.556c-.432-1.137-1.55-1.995-2.8-1.995h-1.998c-1.598 0-2.995 1.397-2.995 2.993 0 1.596 1.397 2.993 2.995 2.993h1.997c1.25 0 2.37-.858 2.8-1.995h3.098c-2.198 2.44-5.37 3.99-8.893 3.99-6.59 0-11.983-5.387-11.983-11.972v-3.99c1.598 0 2.996-1.397 2.996-2.993 0-.599.4-.998.8-.998l2.195.398c5.193.997 10.784-.198 14.978-3.391zM31.984 3.079c1.03.065 2.004.438 2.752 1.037.999.998 1.595 2.197 1.595 3.794 0 .598.4.998.998.998.998 0 1.997.597 2.796 1.395.798.799.999 1.997.799 2.995l-1.797 5.79h-.2c-.598 0-.997-.4-.997-.999v-3.992c0-.798-.598-1.398-1.197-1.797-.2-.2-.4-.2-.8-.2-.399 0-.797.199-1.197.398-3.792 2.795-8.585 3.993-13.376 2.995l-2.394-.398c-1.597 0-2.995 1.397-2.995 2.994 0 .6-.399.998-.998.998h-.397l-1.599-7.984c-.2-1.198.2-2.597.8-3.595.798-.998 1.995-1.797 3.193-1.996l13.973-2.394c.35-.05.698-.06 1.04-.04zm-.152-2.074c-.49-.019-.99.017-1.49.117L16.772 3.516c-1.797.2-3.396 1.198-4.394 2.795-1.198 1.597-1.596 3.393-1.197 5.19l1.552 7.586h-.753c-1.597 0-2.994 1.398-2.994 2.995v1.996c0 1.597 1.397 2.994 2.994 2.994h1.154c.555 3.955 2.717 7.348 5.833 9.502v4.472c0 .089.022.173.027.26L8.587 44.84c-4.092 1.246-6.905 4.716-7.47 8.847A10.345 10.345 0 0 0 1 55.218v8.784c0 .599.4.998.998.998h49.905c.15 0 .288-.023.41-.07.364-.131.588-.43.588-.73v-8.982a10.02 10.02 0 0 0-.491-3.045c-.08-.263-.182-.514-.28-.768a10.732 10.732 0 0 0-.573-1.267c-.088-.17-.16-.338-.254-.507-.024-.023-.07-.043-.098-.066-1.326-2.11-3.352-3.754-5.891-4.527l-10.422-3.536c.017-.152.043-.301.043-.456v-4.472a13.836 13.836 0 0 0 3.556-3.572c3.537-.3 6.425-3.327 6.425-6.928v-3.992c0-1.597-1.397-2.995-2.994-2.995h-.834L42.72 13.7c.4-1.796-.199-3.394-1.197-4.791-.798-.998-1.998-1.797-3.396-1.997-.2-1.796-.996-3.196-2.393-4.393a6.404 6.404 0 0 0-3.903-1.513z"/><path fill="none" stroke="#f9f9fa" stroke-miterlimit="50" stroke-width=".75" d="M49.907 51.225c.436.872.76 1.85.908 2.856.048.375.09.752.09 1.133v7.78h-9.981v-.997c0-5.386 3.793-9.774 8.983-10.772zm-45.913 0c5.19.998 8.983 5.386 8.983 10.772v.997h-9.98v-7.78c0-.381.041-.758.089-1.133a9.534 9.534 0 0 1 .908-2.856zM34.332 43.3l10.376 3.338c1.685.532 3.071 1.553 4.117 2.838-5.663 1.251-9.905 6.46-9.905 12.53v.999H14.971v-1.197c0-5.853-4.025-11.023-9.764-12.465 1.03-1.176 2.366-2.083 3.976-2.507l10.38-3.524c1.674 3.193 6.332 5.393 6.985 5.72h.795c.654-.328 5.32-2.533 6.99-5.732zm-13.37-5.587a14.033 14.033 0 0 0 5.989 1.339c2.153 0 4.176-.488 5.988-1.339v3.337c0 2.398-3.992 4.797-5.988 5.796-1.997-.799-5.989-3.398-5.989-5.796zm6.987-6.647h1.996c.599 0 .998.399.998.998s-.4.998-.998.998h-1.996c-.6 0-.998-.4-.998-.998 0-.6.399-.998.998-.998zm12.819-3.993h2.05a4.902 4.902 0 0 1-3.068 3.65 13.967 13.967 0 0 0 1.018-3.65zm.156-5.988h.998c.599 0 .998.4.998 1v3.002h-1.996zm-28.945 0h.998v4.002h-.998c-.599 0-.998-.4-.998-1v-2.002c0-.6.4-1 .998-1zm23.963-6.987v3.99c0 1.597 1.398 2.994 2.996 2.994v3.99c0 2.18-.601 4.221-1.63 5.986h-4.556c-.432-1.137-1.55-1.995-2.8-1.995h-1.998c-1.598 0-2.995 1.397-2.995 2.993 0 1.596 1.397 2.993 2.995 2.993h1.997c1.25 0 2.37-.858 2.8-1.995h3.098c-2.198 2.44-5.37 3.99-8.893 3.99-6.59 0-11.983-5.387-11.983-11.972v-3.99c1.598 0 2.996-1.397 2.996-2.993 0-.599.4-.998.8-.998l2.195.398c5.193.997 10.784-.198 14.978-3.391zM31.984 3.079c1.03.065 2.004.438 2.752 1.037.999.998 1.595 2.197 1.595 3.794 0 .598.4.998.998.998.998 0 1.997.597 2.796 1.395.798.799.999 1.997.799 2.995l-1.797 5.79h-.2c-.598 0-.997-.4-.997-.999v-3.992c0-.798-.598-1.398-1.197-1.797-.2-.2-.4-.2-.8-.2-.399 0-.797.199-1.197.398-3.792 2.795-8.585 3.993-13.376 2.995l-2.394-.398c-1.597 0-2.995 1.397-2.995 2.994 0 .6-.399.998-.998.998h-.397l-1.599-7.984c-.2-1.198.2-2.597.8-3.595.798-.998 1.995-1.797 3.193-1.996l13.973-2.394c.35-.05.698-.06 1.04-.04zm-.152-2.074c-.49-.019-.99.017-1.49.117L16.772 3.516c-1.797.2-3.396 1.198-4.394 2.795-1.198 1.597-1.596 3.393-1.197 5.19l1.552 7.586h-.753c-1.597 0-2.994 1.398-2.994 2.995v1.996c0 1.597 1.397 2.994 2.994 2.994h1.154c.555 3.955 2.717 7.348 5.833 9.502v4.472c0 .089.022.173.027.26L8.587 44.84c-4.092 1.246-6.905 4.716-7.47 8.847A10.345 10.345 0 0 0 1 55.218v8.784c0 .599.4.998.998.998h49.905c.15 0 .288-.023.41-.07.364-.131.588-.43.588-.73v-8.982a10.02 10.02 0 0 0-.491-3.045c-.08-.263-.182-.514-.28-.768a10.732 10.732 0 0 0-.573-1.267c-.088-.17-.16-.338-.254-.507-.024-.023-.07-.043-.098-.066-1.326-2.11-3.352-3.754-5.891-4.527l-10.422-3.536c.017-.152.043-.301.043-.456v-4.472a13.836 13.836 0 0 0 3.556-3.572c3.537-.3 6.425-3.327 6.425-6.928v-3.992c0-1.597-1.397-2.995-2.994-2.995h-.834L42.72 13.7c.4-1.796-.199-3.394-1.197-4.791-.798-.998-1.998-1.797-3.396-1.997-.2-1.796-.996-3.196-2.393-4.393a6.404 6.404 0 0 0-3.903-1.513z"/></g></g></svg>