<svg xmlns="http://www.w3.org/2000/svg" width="58" height="58" viewBox="0 0 58 58"><g><g><g/><g><g><path d="M20.913 12a1.787 1.787 0 1 1 0-3.574 1.787 1.787 0 0 1 0 3.573zm0-5.36a3.573 3.573 0 1 0 0 7.146 3.573 3.573 0 0 0 0-7.146z"/><path fill="none" stroke="#fff" stroke-miterlimit="50" d="M20.913 12a1.787 1.787 0 1 1 0-3.574 1.787 1.787 0 0 1 0 3.573zm0-5.36a3.573 3.573 0 1 0 0 7.146 3.573 3.573 0 0 0 0-7.146z"/></g><g><path d="M54.861 44.153H37.884V20.93H54.86zm-16.074 3.25v7.468h-3.582V41.768c.312.145.611.315.895.509v2.769c0 .493.401.893.896.893h1.618c.115.48.172.972.173 1.465zm-8.94 7.468v-14.33l3.582.672v13.658zM13.772 40.205l2.287-.429 4.14 5.789a.894.894 0 0 0 1.455 0l4.14-5.789 2.287.429v14.666H13.772zm-5.358 1.008l3.582-.672v14.33H8.414zm-5.358 6.19a6.23 6.23 0 0 1 3.582-5.626V54.87H3.056zm9.823-19.328v-8.038h16.085v8.038a6.235 6.235 0 0 1-3.905 5.798c-.748.3-1.545.454-2.35.455h-3.575a6.238 6.238 0 0 1-6.255-6.252zm-3.572-11.61h23.229v1.785H9.307zm11.61-10.72c5.005 0 8.847 4.454 9.662 8.933H11.254c.815-4.48 4.662-8.932 9.662-8.932zm-.894-1.785v-.894h1.787v.894zm3.633 35.727l-2.735 3.821-2.735-3.821zm-4.526-3.573h3.573a8.023 8.023 0 0 0 1.667-.179c.04-.006.08-.011.119-.02V37.9h-7.145v-1.988c.039.01.078.014.117.02a8.04 8.04 0 0 0 1.67.181zm36.624-16.97H36.997c-.493 0-.893.4-.893.893V40.21a7.908 7.908 0 0 0-1.535-.577c-.185-.054-8.29-1.58-8.29-1.58v-2.798a7.998 7.998 0 0 0 4.466-7.18v-8.038h2.68c.493 0 .893-.4.893-.893V15.57c0-.493-.4-.893-.893-.893h-1.04A12.852 12.852 0 0 0 23.6 4.353v-2.18c0-.493-.4-.893-.894-.893h-3.572c-.494 0-.894.4-.894.893v2.18a12.852 12.852 0 0 0-8.785 10.325h-1.04c-.493 0-.893.4-.893.893v3.573c0 .493.4.893.893.893h2.68v8.038a7.998 7.998 0 0 0 4.466 7.18v2.797S7.456 39.58 7.3 39.625l-.022.007h-.007a8.024 8.024 0 0 0-6.001 7.772v8.36c0 .493.4.893.893.893h37.514c.493 0 .893-.4.893-.893v-8.36a8.125 8.125 0 0 0-.138-1.465h15.322c.494 0 .893-.4.893-.893v-25.01c0-.492-.4-.892-.893-.892z"/><path fill="none" stroke="#fff" stroke-miterlimit="50" d="M54.861 44.153H37.884V20.93H54.86zm-16.074 3.25v7.468h-3.582V41.768c.312.145.611.315.895.509v2.769c0 .493.401.893.896.893h1.618c.115.48.172.972.173 1.465zm-8.94 7.468v-14.33l3.582.672v13.658zM13.772 40.205l2.287-.429 4.14 5.789a.894.894 0 0 0 1.455 0l4.14-5.789 2.287.429v14.666H13.772zm-5.358 1.008l3.582-.672v14.33H8.414zm-5.358 6.19a6.23 6.23 0 0 1 3.582-5.626V54.87H3.056zm9.823-19.328v-8.038h16.085v8.038a6.235 6.235 0 0 1-3.905 5.798c-.748.3-1.545.454-2.35.455h-3.575a6.238 6.238 0 0 1-6.255-6.252zm-3.572-11.61h23.229v1.785H9.307zm11.61-10.72c5.005 0 8.847 4.454 9.662 8.933H11.254c.815-4.48 4.662-8.932 9.662-8.932zm-.894-1.785v-.894h1.787v.894zm3.633 35.727l-2.735 3.821-2.735-3.821zm-4.526-3.573h3.573a8.023 8.023 0 0 0 1.667-.179c.04-.006.08-.011.119-.02V37.9h-7.145v-1.988c.039.01.078.014.117.02a8.04 8.04 0 0 0 1.67.181zm36.624-16.97H36.997c-.493 0-.893.4-.893.893V40.21a7.908 7.908 0 0 0-1.535-.577c-.185-.054-8.29-1.58-8.29-1.58v-2.798a7.998 7.998 0 0 0 4.466-7.18v-8.038h2.68c.493 0 .893-.4.893-.893V15.57c0-.493-.4-.893-.893-.893h-1.04A12.852 12.852 0 0 0 23.6 4.353v-2.18c0-.493-.4-.893-.894-.893h-3.572c-.494 0-.894.4-.894.893v2.18a12.852 12.852 0 0 0-8.785 10.325h-1.04c-.493 0-.893.4-.893.893v3.573c0 .493.4.893.893.893h2.68v8.038a7.998 7.998 0 0 0 4.466 7.18v2.797S7.456 39.58 7.3 39.625l-.022.007h-.007a8.024 8.024 0 0 0-6.001 7.772v8.36c0 .493.4.893.893.893h37.514c.493 0 .893-.4.893-.893v-8.36a8.125 8.125 0 0 0-.138-1.465h15.322c.494 0 .893-.4.893-.893v-25.01c0-.492-.4-.892-.893-.892z"/></g><g><path d="M37.886 14.522l2.68-.54v1.404l-2.68-.54zm12.505 1.04h-8.039v-1.776h8.039zm4.466-.887c0 .49-.4.888-.893.888h-1.787v-1.777h1.787a.89.89 0 0 1 .893.889zm-18.042 1.773l4.465.893a.853.853 0 0 0 .18.018h12.504a2.68 2.68 0 0 0 0-5.359H41.459a.795.795 0 0 0-.094.018c-.028 0-.054-.006-.08 0l-4.467.894a.894.894 0 0 0-.718.874v1.787c0 .424.299.79.715.875z"/><path fill="none" stroke="#fff" stroke-miterlimit="50" d="M37.886 14.522l2.68-.54v1.404l-2.68-.54zm12.505 1.04h-8.039v-1.776h8.039zm4.466-.887c0 .49-.4.888-.893.888h-1.787v-1.777h1.787a.89.89 0 0 1 .893.889zm-18.042 1.773l4.465.893a.853.853 0 0 0 .18.018h12.504a2.68 2.68 0 0 0 0-5.359H41.459a.795.795 0 0 0-.094.018c-.028 0-.054-.006-.08 0l-4.467.894a.894.894 0 0 0-.718.874v1.787c0 .424.299.79.715.875z"/></g><g><path d="M40.566 23.606h3.573v3.573h-3.573zm-.893 5.36h5.36c.493 0 .892-.4.892-.894v-5.359c0-.493-.4-.893-.893-.893h-5.359c-.493 0-.893.4-.893.893v5.36c0 .492.4.892.893.892z"/><path fill="none" stroke="#fff" stroke-miterlimit="50" d="M40.566 23.606h3.573v3.573h-3.573zm-.893 5.36h5.36c.493 0 .892-.4.892-.894v-5.359c0-.493-.4-.893-.893-.893h-5.359c-.493 0-.893.4-.893.893v5.36c0 .492.4.892.893.892z"/></g><g><path d="M39.673 32.546h13.398a.893.893 0 0 0 0-1.786H39.673a.893.893 0 1 0 0 1.786z"/><path fill="none" stroke="#fff" stroke-miterlimit="50" d="M39.673 32.546h13.398a.893.893 0 0 0 0-1.786H39.673a.893.893 0 1 0 0 1.786z"/></g><g><path d="M39.673 36.116h11.612a.893.893 0 0 0 0-1.786H39.673a.893.893 0 1 0 0 1.786z"/><path fill="none" stroke="#fff" stroke-miterlimit="50" d="M39.673 36.116h11.612a.893.893 0 0 0 0-1.786H39.673a.893.893 0 1 0 0 1.786z"/></g><g><path d="M39.673 43.256h10.718a.893.893 0 0 0 0-1.786H39.673a.893.893 0 1 0 0 1.786z"/><path fill="none" stroke="#fff" stroke-miterlimit="50" d="M39.673 43.256h10.718a.893.893 0 0 0 0-1.786H39.673a.893.893 0 1 0 0 1.786z"/></g><g><path d="M53.07 37.9h-1.787a.893.893 0 1 0 0 1.786h1.787a.893.893 0 0 0 0-1.786z"/><path fill="none" stroke="#fff" stroke-miterlimit="50" d="M53.07 37.9h-1.787a.893.893 0 1 0 0 1.786h1.787a.893.893 0 0 0 0-1.786z"/></g><g><path d="M39.673 39.686h8.039a.893.893 0 0 0 0-1.786h-8.039a.893.893 0 1 0 0 1.786z"/><path fill="none" stroke="#fff" stroke-miterlimit="50" d="M39.673 39.686h8.039a.893.893 0 0 0 0-1.786h-8.039a.893.893 0 1 0 0 1.786z"/></g><g><path d="M48.603 28.966h4.466a.893.893 0 0 0 0-1.786h-4.466a.893.893 0 1 0 0 1.786z"/><path fill="none" stroke="#fff" stroke-miterlimit="50" d="M48.603 28.966h4.466a.893.893 0 0 0 0-1.786h-4.466a.893.893 0 1 0 0 1.786z"/></g><g><path d="M48.603 25.396h4.466a.893.893 0 0 0 0-1.786h-4.466a.893.893 0 1 0 0 1.786z"/><path fill="none" stroke="#fff" stroke-miterlimit="50" d="M48.603 25.396h4.466a.893.893 0 0 0 0-1.786h-4.466a.893.893 0 1 0 0 1.786z"/></g></g></g></g></svg>