<svg xmlns="http://www.w3.org/2000/svg" width="24" height="24" viewBox="0 0 24 24"><g><g opacity=".5"><g opacity=".5"/><g opacity=".5"><path d="M11.418 19.817a5.026 5.026 0 0 0 2.274-1.327l5.034-5.015a.82.82 0 0 0 .215-.8.726.726 0 0 0-.224-.362.95.95 0 0 0-.371-.204.82.82 0 0 0-.79.215l-5.016 5.034c-.442.403-.953.67-1.532.8a3.528 3.528 0 0 1-1.727-.039 3.335 3.335 0 0 1-1.502-.878c-.43-.43-.722-.93-.878-1.503a3.528 3.528 0 0 1-.04-1.727c.13-.579.397-1.09.8-1.532l6.499-6.498c.403-.39.885-.586 1.444-.586.56 0 1.04.199 1.444.596.403.396.605.875.605 1.434 0 .56-.202 1.04-.605 1.444l-5.62 5.6a.556.556 0 0 1-.43.196.651.651 0 0 1-.448-.176.556.556 0 0 1-.195-.43c0-.168.058-.318.175-.448l4.157-4.156a.803.803 0 0 0-.068-1.084.802.802 0 0 0-1.083-.068L9.358 12.48c-.208.208-.37.45-.487.722-.118.274-.176.56-.176.859 0 .3.058.585.176.859.117.273.28.513.487.722a2.301 2.301 0 0 0 3.161 0l5.62-5.601a3.727 3.727 0 0 0 .722-3.425 3.536 3.536 0 0 0-.916-1.551 3.536 3.536 0 0 0-1.552-.917 3.727 3.727 0 0 0-3.424.722l-6.518 6.498a4.8 4.8 0 0 0-1.298 2.293 5.162 5.162 0 0 0 .03 2.615 5.026 5.026 0 0 0 1.326 2.273 4.8 4.8 0 0 0 2.293 1.298c.878.215 1.75.205 2.615-.03z"/></g></g></g></svg>