<svg xmlns="http://www.w3.org/2000/svg" width="16" height="16" viewBox="0 0 16 16"><g><g opacity=".5"><g opacity=".5"><path d="M1.224 3.034c0-.996.815-1.81 1.812-1.81h7.608c.997 0 1.812.814 1.812 1.81v4.525c0 .995-.816 1.81-1.812 1.81H7.112a.389.389 0 0 0-.218.072l-2.59 2.064V9.73c0-.2-.163-.362-.363-.362h-.905a1.816 1.816 0 0 1-1.812-1.81zm1.81 7.059h.543v2.172c0 .145.072.271.199.326a.528.528 0 0 0 .163.036c.072 0 .163-.018.217-.073l3.077-2.461h3.403a2.541 2.541 0 0 0 2.534-2.534V3.034A2.541 2.541 0 0 0 10.636.5H3.034A2.541 2.541 0 0 0 .5 3.034v4.525a2.541 2.541 0 0 0 2.534 2.534z"/><path fill="none" stroke="#000" stroke-miterlimit="50" stroke-width=".25" d="M1.224 3.034c0-.996.815-1.81 1.812-1.81h7.608c.997 0 1.812.814 1.812 1.81v4.525c0 .995-.816 1.81-1.812 1.81H7.112a.389.389 0 0 0-.218.072l-2.59 2.064V9.73c0-.2-.163-.362-.363-.362h-.905a1.816 1.816 0 0 1-1.812-1.81zm1.81 7.059h.543v2.172c0 .145.072.271.199.326a.528.528 0 0 0 .163.036c.072 0 .163-.018.217-.073l3.077-2.461h3.403a2.541 2.541 0 0 0 2.534-2.534V3.034A2.541 2.541 0 0 0 10.636.5H3.034A2.541 2.541 0 0 0 .5 3.034v4.525a2.541 2.541 0 0 0 2.534 2.534z"/></g><g opacity=".5"><path d="M13.693 7.868c-.036.2.072.38.271.435.38.09.652.434.652.832v2.516c0 .47-.47.797-.905.797h-.362c-.2 0-.362.162-.362.362v.687l-1.23-.977a.388.388 0 0 0-.218-.072h-1.81c-.434 0-.905-.326-.905-.797v-.706c0-.199-.163-.362-.362-.362-.2 0-.362.163-.362.362v.706c0 .833.742 1.52 1.629 1.52h1.683l1.72 1.376a.348.348 0 0 0 .217.073.528.528 0 0 0 .163-.037.342.342 0 0 0 .199-.325v-1.086c.887 0 1.629-.706 1.629-1.52V9.134c0-.724-.507-1.375-1.213-1.538a.378.378 0 0 0-.434.271z"/><path fill="none" stroke="#000" stroke-miterlimit="50" stroke-width=".25" d="M13.693 7.868c-.036.2.072.38.271.435.38.09.652.434.652.832v2.516c0 .47-.47.797-.905.797h-.362c-.2 0-.362.162-.362.362v.687l-1.23-.977a.388.388 0 0 0-.218-.072h-1.81c-.434 0-.905-.326-.905-.797v-.706c0-.199-.163-.362-.362-.362-.2 0-.362.163-.362.362v.706c0 .833.742 1.52 1.629 1.52h1.683v0l1.72 1.376a.348.348 0 0 0 .217.073.528.528 0 0 0 .163-.037.342.342 0 0 0 .199-.325v-1.086c.887 0 1.629-.706 1.629-1.52V9.134c0-.724-.507-1.375-1.213-1.538a.378.378 0 0 0-.434.271z"/></g></g></g></svg>