<svg xmlns="http://www.w3.org/2000/svg" width="16" height="16" viewBox="0 0 16 16"><g><g opacity=".6"><g opacity=".6"><path d="M3.748 7c.139 0 .251.113.251.251v7.498a.251.251 0 0 1-.25.251H1.26a.251.251 0 0 1-.25-.251V7.251c0-.139.113-.251.25-.251zM5 14.749V7.251C5 6.561 4.438 6 3.749 6H1.26C.57 6 .01 6.561.01 7.251v7.498C.01 15.439.571 16 1.26 16H3.75c.689 0 1.25-.561 1.25-1.251z"/></g><g opacity=".6"><path d="M12.914 16h-6.06a2.01 2.01 0 0 1-.894-.211l-1.684-.842a.5.5 0 0 1 .448-.894l1.684.841c.138.07.292.106.446.106h6.06a.512.512 0 0 0 .443-.258l.565-.988A8.2 8.2 0 0 0 15 9.694V8.001C15 7.449 14.551 7 13.999 7h-3.763a.997.997 0 0 1-.927-1.368A9.62 9.62 0 0 0 10 2.042v-.579A.464.464 0 0 0 9.537 1h-.311a.465.465 0 0 0-.445.336l-.196.685a11.413 11.413 0 0 1-2.07 4.01A2.566 2.566 0 0 1 4.5 7H3a.5.5 0 0 1 0-1h1.5c.483 0 .933-.216 1.234-.593a10.419 10.419 0 0 0 1.89-3.661l.196-.685A1.47 1.47 0 0 1 9.226 0h.311C10.344 0 11 .656 11 1.463v.58c0 1.363-.257 2.696-.762 3.96L13.999 6C15.103 6 16 6.898 16 8.001v1.692a9.2 9.2 0 0 1-1.21 4.558l-.565.988c-.268.47-.771.761-1.311.761z"/></g><g opacity=".6"><path d="M2.5 14a.5.5 0 1 0 0-1 .5.5 0 0 0 0 1z"/></g></g></g></svg>