<?xml version="1.0" encoding="UTF-8"?>
<svg width="12px" height="13px" viewBox="0 0 12 13" version="1.1" xmlns="http://www.w3.org/2000/svg" xmlns:xlink="http://www.w3.org/1999/xlink">
    <!-- Generator: Sketch 59.1 (86144) - https://sketch.com -->
    <title>Shape</title>
    <desc>Created with Sketch.</desc>
    <g id="Page-1" stroke="none" stroke-width="1" fill="none" fill-rule="evenodd" opacity="0.800000012">
        <g id="≥" transform="translate(-893.000000, -2832.000000)" fill="#fe2c25" fill-rule="nonzero">
            <g id="Group-38" transform="translate(-43.000000, 2733.000000)">
                <g id="Group-31" transform="translate(533.000000, 0.000000)">
                    <g id="Group-16-Copy">
                        <g id="alexandra-gorn-JIUjvqe2ZHg-unsplash">
                            <g id="Group-29" transform="translate(351.305483, 93.000000)">
                                <g id="Group-22-Copy">
                                    <g id="Group-65">
                                        <path d="M60.3729164,9.7875 C59.365782,9.7875 58.4791595,10.2963448 57.9603642,11.0647342 L57.9603642,7.41825 C57.9603642,7.15633699 57.7445537,6.9444 57.4778538,6.9444 C55.8814197,6.9444 54.5827911,8.21971989 54.5827911,9.7875 C54.5827911,10.7765576 55.1009359,11.6472665 55.8833691,12.15675 L52.1702389,12.15675 C51.903539,12.15675 51.6877285,12.368687 51.6877285,12.6306 C51.6877285,14.1983801 52.9863571,15.4737 54.5827911,15.4737 C55.5899255,15.4737 56.4765481,14.9648552 56.9953433,14.1964658 L56.9953433,17.84295 C56.9953433,18.104863 57.2111539,18.3168 57.4778538,18.3168 C59.0742878,18.3168 60.3729164,17.0414801 60.3729164,15.4737 C60.3729164,14.4846424 59.8547716,13.6139335 59.0723385,13.10445 L62.7854687,13.10445 C63.0521686,13.10445 63.2679791,12.892513 63.2679791,12.6306 C63.2679791,11.0628199 61.9693505,9.7875 60.3729164,9.7875 Z M54.5827862,14.6084087 C53.6758779,14.6084087 52.9113096,13.9773058 52.6947068,13.1250522 L56.4708755,13.1250522 C56.2542648,13.9773058 55.4896985,14.6084087 54.582796,14.6084087 L54.5827862,14.6084087 Z M55.4638972,9.78749521 C55.4638972,8.89686468 56.1065346,8.14601945 56.9743646,7.93330435 L56.9743646,11.6416957 C56.1065346,11.4289729 55.4638972,10.6781296 55.4638972,9.78750479 L55.4638972,9.78749521 Z M57.4778538,13.1250522 C57.1998039,13.1250522 56.9743646,12.9036592 56.9743646,12.6306 C56.9743646,12.3574804 57.1998039,12.1361478 57.4778538,12.1361478 C57.7559037,12.1361478 57.9813429,12.3574804 57.9813429,12.6306 C57.9813429,12.9036592 57.7559037,13.1250522 57.4778538,13.1250522 Z M59.4918104,15.4737048 C59.4918104,16.3643353 58.849173,17.1151806 57.9813429,17.3278957 L57.9813429,13.6195043 C58.849173,13.8322271 59.4918104,14.5830704 59.4918104,15.4736952 L59.4918104,15.4737048 Z M58.4848321,12.1361478 C58.7014525,11.2838942 59.4660188,10.6527913 60.3729213,10.6527913 C61.2798297,10.6527913 62.044398,11.2838942 62.2610008,12.1361478 L58.4848321,12.1361478 L58.4848321,12.1361478 Z" id="Shape"></path>
                                    </g>
                                </g>
                            </g>
                        </g>
                    </g>
                </g>
            </g>
        </g>
    </g>
</svg>