<svg xmlns="http://www.w3.org/2000/svg" width="8" height="14" viewBox="0 0 8 14"><g><g><g transform="rotate(-270 4 7)"><g><path fill="#ff4800" d="M2.668 8.6A3.93 3.93 0 0 0-.13 9.76a.75.75 0 1 0 1.062 1.06 2.437 2.437 0 0 1 1.736-.718c.656 0 1.272.255 1.736.719a.75.75 0 1 0 1.061-1.062A3.93 3.93 0 0 0 2.668 8.6z"/></g><g><path fill="#ff4800" d="M2.666 6.13A6.387 6.387 0 0 0-1.88 8.013.75.75 0 0 0-.82 9.075 4.895 4.895 0 0 1 2.666 7.63c1.316 0 2.553.513 3.484 1.444a.749.749 0 0 0 1.061 0 .75.75 0 0 0 0-1.062A6.385 6.385 0 0 0 2.666 6.13z"/></g><g><path fill="#ff4800" d="M8.966 6.259A8.846 8.846 0 0 0 2.668 3.65c-2.38 0-4.616.926-6.298 2.609A.75.75 0 0 0-2.57 7.321a7.355 7.355 0 0 1 5.237-2.17c1.978 0 3.837.77 5.235 2.17a.751.751 0 0 0 1.063-1.062z"/></g></g></g></g></svg>