<svg xmlns="http://www.w3.org/2000/svg" width="14" height="11" viewBox="0 0 14 11"><g><g><g opacity=".53"><path d="M5.816 8.126A1.283 1.283 0 1 0 7.63 9.939a1.283 1.283 0 0 0-1.814-1.813z"/></g><g opacity=".53"><path d="M6.718 5.07A3.93 3.93 0 0 0 3.92 6.23a.75.75 0 1 0 1.062 1.06 2.437 2.437 0 0 1 1.736-.718c.656 0 1.272.255 1.736.719a.75.75 0 1 0 1.061-1.062A3.93 3.93 0 0 0 6.718 5.07z"/></g><g opacity=".53"><path d="M6.716 2.6A6.387 6.387 0 0 0 2.17 4.483.75.75 0 0 0 3.23 5.545 4.895 4.895 0 0 1 6.716 4.1c1.316 0 2.553.513 3.484 1.444a.749.749 0 0 0 1.061 0 .75.75 0 0 0 0-1.062A6.385 6.385 0 0 0 6.716 2.6z"/></g><g opacity=".53"><path d="M13.016 2.729A8.846 8.846 0 0 0 6.718.12c-2.38 0-4.616.926-6.298 2.609A.75.75 0 0 0 1.48 3.791a7.355 7.355 0 0 1 5.237-2.17c1.978 0 3.837.77 5.235 2.17a.751.751 0 0 0 1.063-1.062z"/></g></g></g></svg>