<svg xmlns="http://www.w3.org/2000/svg" width="73" height="73" viewBox="0 0 73 73"><g><g><g/><g><g><path d="M38.25 23.706l-.945 9.776c-.041.435.103.87.396 1.194.295.325.714.51 1.153.51h5.703L34.03 49.11V39.027c0-.86-.696-1.556-1.556-1.556h-4.708zM23.232 39.718c.262.53.801.865 1.393.865h6.294v13.163a1.557 1.557 0 0 0 2.796.94l15.21-20.117c.355-.47.415-1.102.151-1.63a1.552 1.552 0 0 0-1.392-.863h-7.116l1.305-13.51a1.556 1.556 0 0 0-2.786-1.093l-15.7 20.611a1.56 1.56 0 0 0-.155 1.634z"/><path fill="none" stroke="#fff" stroke-miterlimit="50" stroke-width="1.5" d="M38.25 23.706l-.945 9.776c-.041.435.103.87.396 1.194.295.325.714.51 1.153.51h5.703L34.03 49.11V39.027c0-.86-.696-1.556-1.556-1.556h-4.708zM23.232 39.718c.262.53.801.865 1.393.865h6.294v13.163a1.557 1.557 0 0 0 2.796.94l15.21-20.117c.355-.47.415-1.102.151-1.63a1.552 1.552 0 0 0-1.392-.863h-7.116l1.305-13.51a1.556 1.556 0 0 0-2.786-1.093l-15.7 20.611a1.56 1.56 0 0 0-.155 1.634z"/></g><g><path d="M.73 36.126c0 .86.696 1.555 1.556 1.555h9.81a1.555 1.555 0 1 0 0-3.111h-9.81c-.86 0-1.556.696-1.556 1.556z"/><path fill="none" stroke="#fff" stroke-miterlimit="50" stroke-width="1.5" d="M.73 36.126c0 .86.696 1.555 1.556 1.555h9.81a1.555 1.555 0 1 0 0-3.111h-9.81c-.86 0-1.556.696-1.556 1.556z"/></g><g><path d="M70.028 34.57h-9.812a1.555 1.555 0 1 0 0 3.111h9.812a1.555 1.555 0 1 0 0-3.111z"/><path fill="none" stroke="#fff" stroke-miterlimit="50" stroke-width="1.5" d="M70.028 34.57h-9.812a1.555 1.555 0 1 0 0 3.111h9.812a1.555 1.555 0 1 0 0-3.111z"/></g><g><path d="M34.6 60.186v9.807a1.555 1.555 0 1 0 3.111 0v-9.807a1.555 1.555 0 1 0-3.111 0z"/><path fill="none" stroke="#fff" stroke-miterlimit="50" stroke-width="1.5" d="M34.6 60.186v9.807a1.555 1.555 0 1 0 3.111 0v-9.807a1.555 1.555 0 1 0-3.111 0z"/></g><g><path d="M37.711 12.066v-9.81a1.555 1.555 0 1 0-3.111 0v9.81a1.555 1.555 0 1 0 3.111 0z"/><path fill="none" stroke="#fff" stroke-miterlimit="50" stroke-width="1.5" d="M37.711 12.066v-9.81a1.555 1.555 0 1 0-3.111 0v9.81a1.555 1.555 0 1 0 3.111 0z"/></g><g><path d="M19.613 50.466l-8.507 8.51a1.555 1.555 0 1 0 2.2 2.2l8.506-8.51a1.555 1.555 0 1 0-2.2-2.2z"/><path fill="none" stroke="#fff" stroke-miterlimit="50" stroke-width="1.5" d="M19.613 50.466l-8.507 8.51a1.555 1.555 0 1 0 2.2 2.2l8.506-8.51a1.555 1.555 0 1 0-2.2-2.2z"/></g><g><path d="M61.203 11.076a1.555 1.555 0 0 0-2.2 0l-8.507 8.51a1.555 1.555 0 1 0 2.2 2.2l8.506-8.51a1.554 1.554 0 0 0 0-2.2z"/><path fill="none" stroke="#fff" stroke-miterlimit="50" stroke-width="1.5" d="M61.203 11.076a1.555 1.555 0 0 0-2.2 0l-8.507 8.51a1.555 1.555 0 1 0 2.2 2.2l8.506-8.51a1.554 1.554 0 0 0 0-2.2z"/></g><g><path d="M60.102 61.631a1.555 1.555 0 0 0 1.1-2.655l-8.506-8.51a1.555 1.555 0 1 0-2.2 2.2l8.507 8.51c.305.304.702.455 1.1.455z"/><path fill="none" stroke="#fff" stroke-miterlimit="50" stroke-width="1.5" d="M60.102 61.631a1.555 1.555 0 0 0 1.1-2.655l-8.506-8.51a1.555 1.555 0 1 0-2.2 2.2l8.507 8.51c.305.304.702.455 1.1.455z"/></g><g><path d="M21.814 19.586l-8.508-8.51a1.555 1.555 0 1 0-2.2 2.2l8.508 8.51c.304.304.702.455 1.1.455a1.554 1.554 0 0 0 1.1-2.655z"/><path fill="none" stroke="#fff" stroke-miterlimit="50" stroke-width="1.5" d="M21.814 19.586l-8.508-8.51a1.555 1.555 0 1 0-2.2 2.2l8.508 8.51c.304.304.702.455 1.1.455a1.554 1.554 0 0 0 1.1-2.655z"/></g></g></g></g></svg>