<svg xmlns="http://www.w3.org/2000/svg" width="63" height="76" viewBox="0 0 63 76"><g><g><g/><g><g><path d="M31.318 68.725C5.91 59.329 6.271 38.776 6.632 20.645c0-1.1.072-2.128.072-3.155 9.889-.514 17.829-3.524 24.614-9.543 6.785 6.02 14.725 9.102 24.614 9.47 0 1.027 0 2.054.073 3.155.36 18.204.721 38.757-24.687 48.153zm29.666-48.223c-.072-1.91-.072-3.744-.072-5.506 0-1.395-1.083-2.496-2.454-2.496-10.61-.074-18.695-3.157-25.408-9.764-.938-.955-2.526-.955-3.464 0-6.713 6.607-14.797 9.69-25.336 9.69-1.371 0-2.454 1.101-2.454 2.496 0 1.762 0 3.598-.072 5.58-.36 18.133-.866 42.873 28.8 53.297.289.074.505.147.794.147.289 0 .578-.073.794-.147 29.666-10.424 29.161-35.164 28.872-53.297z"/><path fill="none" stroke="#fff" stroke-miterlimit="50" stroke-width="3" d="M31.318 68.725C5.91 59.329 6.271 38.776 6.632 20.645c0-1.1.072-2.128.072-3.155 9.889-.514 17.829-3.524 24.614-9.543 6.785 6.02 14.725 9.102 24.614 9.47 0 1.027 0 2.054.073 3.155.36 18.204.721 38.757-24.687 48.153zm29.666-48.223c-.072-1.91-.072-3.744-.072-5.506 0-1.395-1.083-2.496-2.454-2.496-10.61-.074-18.695-3.157-25.408-9.764-.938-.955-2.526-.955-3.464 0-6.713 6.607-14.797 9.69-25.336 9.69-1.371 0-2.454 1.101-2.454 2.496 0 1.762 0 3.598-.072 5.58-.36 18.133-.866 42.873 28.8 53.297.289.074.505.147.794.147.289 0 .578-.073.794-.147 29.666-10.424 29.161-35.164 28.872-53.297z"/></g><g><path d="M39.835 29.24l-11.91 12.113-5.124-5.212c-.939-.954-2.527-.954-3.537 0-.939.954-.939 2.57 0 3.597l6.857 6.974c.505.514 1.083.735 1.732.735.65 0 1.3-.22 1.733-.735L43.3 32.764c.938-.954.938-2.57 0-3.597a2.391 2.391 0 0 0-3.465.073z"/><path fill="none" stroke="#fff" stroke-miterlimit="50" stroke-width="3" d="M39.835 29.24l-11.91 12.113v0l-5.124-5.212c-.939-.954-2.527-.954-3.537 0-.939.954-.939 2.57 0 3.597l6.857 6.974c.505.514 1.083.735 1.732.735.65 0 1.3-.22 1.733-.735L43.3 32.764c.938-.954.938-2.57 0-3.597a2.391 2.391 0 0 0-3.465.073z"/></g></g></g></g></svg>