<svg xmlns="http://www.w3.org/2000/svg" width="91" height="123" viewBox="0 0 91 123"><g><g opacity=".3"><path fill="#fff" d="M46.3 122.7c4.193 0 7.565-1.275 10.115-3.825 2.55-2.55 3.825-5.922 3.825-10.115 0-4.193-1.275-7.565-3.825-10.115-2.55-2.55-5.922-3.825-10.115-3.825-4.193 0-7.565 1.275-10.115 3.825-2.55 2.55-3.825 5.922-3.825 10.115 0 4.193 1.275 7.565 3.825 10.115 2.55 2.55 5.922 3.825 10.115 3.825zm11.73-36.38v-2.38c0-4.307 1.19-7.678 3.57-10.115 2.38-2.437 5.95-5.015 10.71-7.735 4.08-2.493 7.338-4.703 9.775-6.63 2.437-1.927 4.533-4.59 6.29-7.99 1.757-3.4 2.635-7.65 2.635-12.75V32.6c0-6.347-1.558-11.928-4.675-16.745s-7.48-8.557-13.09-11.22C67.635 1.972 61.147.64 53.78.64H39.16c-7.593 0-14.308 1.53-20.145 4.59C13.178 8.29 8.673 12.625 5.5 18.235 2.327 23.845.74 30.277.74 37.53H24.2c0-4.987 1.36-8.982 4.08-11.985 2.72-3.003 6.347-4.505 10.88-4.505h14.62c4.193 0 7.537 1.048 10.03 3.145 2.493 2.097 3.74 4.902 3.74 8.415v6.12c0 3.287-1.077 6.035-3.23 8.245-2.153 2.21-5.553 4.732-10.2 7.565-4.08 2.493-7.423 4.817-10.03 6.97-2.607 2.153-4.845 4.958-6.715 8.415-1.87 3.457-2.805 7.678-2.805 12.665v3.74z"/></g></g></svg>