<svg xmlns="http://www.w3.org/2000/svg" width="46" height="72" viewBox="0 0 46 72"><g><g><g/><g><path d="M43.66 62.654c-.034 0-.045-.01-.035 0zm-.035 0H12.48c-.012.01-.046.042-.103.129-.11.17-.22.498-.22.88v5.458c0 .381.11.712.22.881.055.085.09.117.102.128h31.148a.596.596 0 0 0 .102-.128c.11-.17.22-.5.22-.88v-5.46c0-.38-.11-.71-.22-.88-.057-.086-.092-.118-.103-.128zm-31.181 0zm.035 0c.01-.01 0 0-.035 0zm22.08-45.823a.966.966 0 0 1 .843.464.914.914 0 0 1 0 .942.966.966 0 0 1-.842.464h-7.405a.966.966 0 0 1-.842-.464.914.914 0 0 1 0-.942.966.966 0 0 1 .842-.464zm-23.376 0a.966.966 0 0 1 .842.464.914.914 0 0 1 0 .942.966.966 0 0 1-.842.464H3.778a.966.966 0 0 1-.842-.464.914.914 0 0 1 0-.942.966.966 0 0 1 .842-.464zm8.328-3.74c-1.533 0-2.69 1.11-2.685 2.455v.002l.074 25.717v.022s-.003.369-.07.779a2.594 2.594 0 0 1-.19.679 1.353 1.353 0 0 1-.286.43 1.206 1.206 0 0 1-.76.344c-.612.03-1.023-.338-1.218-.577-.07-.087-.112-.163-.157-.238l-8.58-8.08c-.882-.83-2.146-.808-2.887-.036l-.43.448v.002c-.368.383-.487.792-.443 1.303.043.512.292 1.112.72 1.65l13.405 16.84a6.485 6.485 0 0 0 .194.27c.098.143.213.289.32.573v.001c.12.323.14.568.167.792.026.224.036.408.036.408a.937.937 0 0 1 .001.054v2.915h22.924c-.053-.993-.108-2.822.125-4.095.17-.92.443-1.41.696-1.906.254-.496.564-1.152 1.03-2.858.385-1.414.572-5.838.58-9.693.01-3.855-.101-7.278-.101-7.278a.938.938 0 0 1 .003-.114c.116-1.305-1.068-2.396-2.376-2.396-1.311 0-2.373 1.07-2.373 2.479v4.832a.945.945 0 0 1-.475.83.963.963 0 0 1-.963 0 .945.945 0 0 1-.474-.83v-4.832l.001-.027a.939.939 0 0 1-.001-.041v-1.29c0-1.454-1.057-2.533-2.325-2.533-1.269 0-2.326 1.08-2.326 2.534v4.907a.946.946 0 0 1-.474.83.963.963 0 0 1-.963 0 .946.946 0 0 1-.474-.83v-4.907c0-.035.003-.07.004-.104a.937.937 0 0 1-.001-.06V31.23c0-1.454-1.058-2.535-2.326-2.535s-2.324 1.08-2.324 2.535v1.11a.93.93 0 0 1-.001.067v3.754a.946.946 0 0 1-.475.83.963.963 0 0 1-.962 0 .946.946 0 0 1-.475-.83V15.55c0-1.348-1.152-2.458-2.685-2.458zm0-1.87c2.497 0 4.589 1.948 4.589 4.398v12.108a4.024 4.024 0 0 1 2.32-.74c1.678 0 3.102 1.034 3.788 2.503a4.062 4.062 0 0 1 2.76-1.092c1.683 0 3.11 1.041 3.794 2.518a4.168 4.168 0 0 1 2.803-1.092c2.339 0 4.42 1.942 4.275 4.389 0 0 .112 3.485.103 7.419-.009 3.933-.079 8.178-.647 10.288-.49 1.816-.88 2.688-1.166 3.252-.285.564-.387.667-.52 1.402-.18.997-.106 3.013-.073 3.797h2.087c.757 0 1.35.49 1.689 1.04.339.55.505 1.21.505 1.926v5.697c0 .715-.166 1.376-.505 1.925-.34.55-.932 1.041-1.689 1.041H12.592c-.757 0-1.35-.491-1.689-1.04-.339-.55-.505-1.21-.505-1.926v-5.697c0-.716.166-1.377.505-1.926.34-.55.932-1.04 1.69-1.04h2.228v-2.907c-.001-.014-.007-.127-.026-.284-.015-.131-.05-.294-.059-.344-.015-.024-.064-.119-.11-.187a4.06 4.06 0 0 0-.112-.158L1.135 39.478c-.624-.794-1.041-1.72-1.122-2.694a3.615 3.615 0 0 1 .96-2.795l.43-.453a3.766 3.766 0 0 1 2.75-1.169 4.1 4.1 0 0 1 2.829 1.136l8.015 7.64-.073-25.522c-.008-2.454 2.091-4.4 4.588-4.4zm12.209-7.48a.992.992 0 0 1 .934.628c.154.386.06.828-.235 1.115l-5.478 5.44a.979.979 0 0 1-.967.26 1.002 1.002 0 0 1-.698-.73 1.024 1.024 0 0 1 .281-.98l5.478-5.438a.982.982 0 0 1 .685-.296zm-24.198 0a.982.982 0 0 1 .716.295l5.477 5.439c.26.25.368.624.282.978a1.002 1.002 0 0 1-.698.731.979.979 0 0 1-.967-.26l-5.478-5.44a1.025 1.025 0 0 1-.24-1.1.993.993 0 0 1 .908-.644zM19.622 0a.922.922 0 0 1 .675.28.974.974 0 0 1 .274.693v7.404a.966.966 0 0 1-.464.842.914.914 0 0 1-.942 0 .966.966 0 0 1-.464-.842V.974a.949.949 0 0 1 .92-.974z"/></g></g></g></svg>