<svg xmlns="http://www.w3.org/2000/svg" width="150" height="130" viewBox="0 0 150 130"><defs><mask id="sr47b" width="2" height="2" x="-1" y="-1"><path fill="#fff" d="M32 28h90v70H32z"/><path d="M100.235 98V82.619c0-7.325 1.422-13.76 4.265-19.305 2.843-5.546 7.206-10.411 13.088-14.597L122 45.578 109.941 28l-5.588 3.767c-8.628 5.86-15 12.87-19.118 21.031-4.117 8.162-6.176 18.102-6.176 29.82V98zm-47.059 0V82.619c0-7.325 1.422-13.76 4.265-19.305 2.843-5.546 7.206-10.411 13.088-14.597l4.412-3.139L62.882 28l-5.588 3.767c-8.627 5.86-15 12.87-19.118 21.031C34.06 60.96 32 70.9 32 82.618V98z"/></mask><filter id="sr47a" width="190" height="170" x="-18" y="-22" filterUnits="userSpaceOnUse"><feOffset in="SourceGraphic" result="FeOffset1023Out"/><feGaussianBlur in="FeOffset1023Out" result="FeGaussianBlur1024Out" stdDeviation="16 16"/></filter></defs><g><g><g filter="url(#sr47a)"><path fill="none" d="M100.235 98V82.619c0-7.325 1.422-13.76 4.265-19.305 2.843-5.546 7.206-10.411 13.088-14.597L122 45.578 109.941 28l-5.588 3.767c-8.628 5.86-15 12.87-19.118 21.031-4.117 8.162-6.176 18.102-6.176 29.82V98zm-47.059 0V82.619c0-7.325 1.422-13.76 4.265-19.305 2.843-5.546 7.206-10.411 13.088-14.597l4.412-3.139L62.882 28l-5.588 3.767c-8.627 5.86-15 12.87-19.118 21.031C34.06 60.96 32 70.9 32 82.618V98z" mask="url(&quot;#sr47b&quot;)"/><path fill-opacity=".2" d="M100.235 98V82.619c0-7.325 1.422-13.76 4.265-19.305 2.843-5.546 7.206-10.411 13.088-14.597L122 45.578 109.941 28l-5.588 3.767c-8.628 5.86-15 12.87-19.118 21.031-4.117 8.162-6.176 18.102-6.176 29.82V98zm-47.059 0V82.619c0-7.325 1.422-13.76 4.265-19.305 2.843-5.546 7.206-10.411 13.088-14.597l4.412-3.139L62.882 28l-5.588 3.767c-8.627 5.86-15 12.87-19.118 21.031C34.06 60.96 32 70.9 32 82.618V98z"/></g><path d="M100.235 98V82.619c0-7.325 1.422-13.76 4.265-19.305 2.843-5.546 7.206-10.411 13.088-14.597L122 45.578 109.941 28l-5.588 3.767c-8.628 5.86-15 12.87-19.118 21.031-4.117 8.162-6.176 18.102-6.176 29.82V98zm-47.059 0V82.619c0-7.325 1.422-13.76 4.265-19.305 2.843-5.546 7.206-10.411 13.088-14.597l4.412-3.139L62.882 28l-5.588 3.767c-8.627 5.86-15 12.87-19.118 21.031C34.06 60.96 32 70.9 32 82.618V98z"/></g></g></svg>