<svg xmlns="http://www.w3.org/2000/svg" width="65" height="69" viewBox="0 0 65 69"><g><g><path d="M48.305 10.727a13.935 13.935 0 0 1 4.081 9.854c0 7.696-6.239 13.935-13.935 13.935-7.697 0-13.936-6.239-13.936-13.935 0-7.697 6.24-13.936 13.936-13.936 3.696 0 7.24 1.468 9.854 4.082zm3.284 22.992a18.58 18.58 0 0 0 5.442-13.138C57.031 10.319 48.712 2 38.451 2 28.189 2 19.87 10.319 19.87 20.58c0 10.262 8.319 18.581 18.58 18.581a18.58 18.58 0 0 0 13.14-5.442z"/><path fill="none" stroke="#f9f9fa" stroke-miterlimit="50" stroke-width="3" d="M48.305 10.727a13.935 13.935 0 0 1 4.081 9.854c0 7.696-6.239 13.935-13.935 13.935-7.697 0-13.936-6.239-13.936-13.935 0-7.697 6.24-13.936 13.936-13.936 3.696 0 7.24 1.468 9.854 4.082zm3.284 22.992a18.58 18.58 0 0 0 5.442-13.138C57.031 10.319 48.712 2 38.451 2 28.189 2 19.87 10.319 19.87 20.58c0 10.262 8.319 18.581 18.58 18.581a18.58 18.58 0 0 0 13.14-5.442z"/></g><g><path d="M44.839 24.46a6.178 6.178 0 0 1-1.58 4.297 5.203 5.203 0 0 1-2.996 1.556v1.556a2.114 2.114 0 0 1-4.227 0v-1.695a5.806 5.806 0 0 1-3.925-4.646 1.649 1.649 0 0 1 1.394-2.043 1.603 1.603 0 0 1 1.742 1.091c.16.537.429 1.035.79 1.463a3.02 3.02 0 0 0 2.322 1.022 3.6 3.6 0 0 0 1.812-.418c.21-.06.414-.145.603-.255.479-.394.78-.963.837-1.58a2.323 2.323 0 0 0-.28-1.463 2.16 2.16 0 0 0-.882-.766h-.162c-.465-.21-1.394-.511-2.764-.93l-1.394-.58a6.735 6.735 0 0 1-1.556-.836 5.203 5.203 0 0 1-1.626-1.974 6.016 6.016 0 0 1-.557-2.578 5.667 5.667 0 0 1 .72-2.88 4.645 4.645 0 0 1 2.02-1.928c.321-.142.656-.251 1-.325V9.294a2.114 2.114 0 0 1 4.227 0v1.184c.913.21 1.755.659 2.438 1.3.66.64 1.14 1.44 1.394 2.323a1.649 1.649 0 0 1-1.487 2.044 1.58 1.58 0 0 1-1.626-1.068 2.508 2.508 0 0 0-.604-1.022 2.95 2.95 0 0 0-2.252-.441 3.252 3.252 0 0 0-2.09.464v.14a1.58 1.58 0 0 0-.558 1.23c.003.478.205.932.557 1.255a9.058 9.058 0 0 0 2.95 1.184l1.184.372a9.035 9.035 0 0 1 2.323 1.115 5.017 5.017 0 0 1 1.672 2.02c.42.966.618 2.014.58 3.066z"/><path fill="none" stroke="#f9f9fa" stroke-miterlimit="50" stroke-width="2" d="M44.839 24.46a6.178 6.178 0 0 1-1.58 4.297 5.203 5.203 0 0 1-2.996 1.556v1.556a2.114 2.114 0 0 1-2.113 2.114v0a2.114 2.114 0 0 1-2.114-2.114v-1.695a5.806 5.806 0 0 1-3.925-4.646 1.649 1.649 0 0 1 1.394-2.043 1.603 1.603 0 0 1 1.742 1.091c.16.537.429 1.035.79 1.463a3.02 3.02 0 0 0 2.322 1.022 3.6 3.6 0 0 0 1.812-.418c.21-.06.414-.145.603-.255.479-.394.78-.963.837-1.58a2.323 2.323 0 0 0-.28-1.463 2.16 2.16 0 0 0-.882-.766h-.162c-.465-.21-1.394-.511-2.764-.93l-1.394-.58a6.735 6.735 0 0 1-1.556-.836 5.203 5.203 0 0 1-1.626-1.974 6.016 6.016 0 0 1-.557-2.578 5.667 5.667 0 0 1 .72-2.88 4.645 4.645 0 0 1 2.02-1.928c.321-.142.656-.251 1-.325V9.294c0-1.168.946-2.114 2.113-2.114v0c1.167 0 2.113.946 2.113 2.114v1.184c.914.21 1.756.659 2.439 1.3.66.64 1.14 1.44 1.394 2.323a1.649 1.649 0 0 1-1.487 2.044v0a1.58 1.58 0 0 1-1.626-1.068 2.508 2.508 0 0 0-.604-1.022v0a2.95 2.95 0 0 0-2.252-.441 3.252 3.252 0 0 0-2.09.464v.14a1.58 1.58 0 0 0-.558 1.23c.003.478.205.932.557 1.255v0a9.058 9.058 0 0 0 2.95 1.184l1.184.372a9.035 9.035 0 0 1 2.323 1.115 5.017 5.017 0 0 1 1.672 2.02c.42.966.618 2.014.58 3.066z"/></g><g><path d="M6.215 51.823h3.112a4.39 4.39 0 0 0 3.345-1.556l6.224-7.409a5.992 5.992 0 0 1 4.831-1.44 1.208 1.208 0 0 1 .906 1.765 6.015 6.015 0 0 0 5.412 8.64c.6.003 1.196-.09 1.765-.278l25.78-8.431h.233c.395 0 .766.487.929.929.21.431.157.945-.14 1.324L38.988 61.973a3.786 3.786 0 0 1-2.323.883H6.215zm30.45 15.678c1.96-.01 3.855-.7 5.364-1.951l19.65-16.63a6.085 6.085 0 0 0-3.856-10.428 4.761 4.761 0 0 0-1.881.348l-25.549 8.315h-.325a1.37 1.37 0 0 1-1.23-1.928 5.853 5.853 0 0 0-4.32-8.384 10.382 10.382 0 0 0-8.92 2.764l-6.27 7.571H1.57v20.323z"/><path fill="none" stroke="#f9f9fa" stroke-miterlimit="50" stroke-width="3" d="M6.215 51.823h3.112a4.39 4.39 0 0 0 3.345-1.556l6.224-7.409a5.992 5.992 0 0 1 4.831-1.44 1.208 1.208 0 0 1 .906 1.765 6.015 6.015 0 0 0 5.412 8.64c.6.003 1.196-.09 1.765-.278l25.78-8.431h.233c.395 0 .766.487.929.929.21.431.157.945-.14 1.324L38.988 61.973a3.786 3.786 0 0 1-2.323.883H6.215zm30.45 15.678c1.96-.01 3.855-.7 5.364-1.951l19.65-16.63a6.085 6.085 0 0 0-3.856-10.428 4.761 4.761 0 0 0-1.881.348l-25.549 8.315h-.325a1.37 1.37 0 0 1-1.23-1.928 5.853 5.853 0 0 0-4.32-8.384 10.382 10.382 0 0 0-8.92 2.764l-6.27 7.571H1.57v20.323z"/></g></g></svg>