<?xml version="1.0" encoding="UTF-8"?>
<svg width="639px" height="121px" viewBox="0 0 639 121" version="1.1" xmlns="http://www.w3.org/2000/svg" xmlns:xlink="http://www.w3.org/1999/xlink">
    <!-- Generator: Sketch 61.2 (89653) - https://sketch.com -->
    <title>Stroke 1</title>
    <desc>Created with Sketch.</desc>
    <defs>
        <linearGradient x1="0%" y1="50%" x2="100%" y2="50.1210643%" id="linearGradient-1">
            <stop stop-color="#6164F1" offset="0%"></stop>
            <stop stop-color="#FF6FD4" offset="100%"></stop>
        </linearGradient>
    </defs>
    <g id="Page-2" stroke="none" stroke-width="1" fill="none" fill-rule="evenodd" stroke-dasharray="4">
        <g id="Waves-1" transform="translate(0.000000, -8.000000)" stroke="url(#linearGradient-1)" stroke-width="1.5">
            <path d="M-248,65.8070118 L-241.352562,53.3508441 C-237.835028,46.7594496 -233.839142,46.8336517 -232.474191,53.516049 L-227.748407,76.6811327 C-224.540152,92.4147971 -220.511276,92.3937965 -218.804056,76.6321313 L-214.573118,37.6003792 C-211.434967,8.65032472 -207.406091,8.66152505 -205.62052,37.6241799 L-201.678243,101.510866 C-199.892672,130.47352 -195.863796,130.484721 -192.725645,101.536066 L-187.905015,57.0595536 C-186.519445,44.2925767 -182.498817,44.2533756 -178.968912,56.972751 L-176.078183,67.3904585 C-174.02457,74.7910769 -170.016314,74.8162777 -167.179194,67.4450601 L-163.187432,57.0903545 C-161.047221,51.5433908 -157.063706,51.5195901 -154.329679,57.0357529 L-149.480183,66.8206417 C-147.706983,70.3991473 -143.785325,70.4789497 -140.766761,66.9984469 L-137.509022,63.240736 C-135.146129,60.5162556 -131.278079,60.5162556 -128.915187,63.240736 L-127.496627,64.8731842 C-123.467752,69.5227214 -119.521351,69.3673169 -118.729596,64.527374 L-114.609999,39.2902291 C-111.925457,22.8523439 -107.900705,22.8593441 -105.661525,39.3042295 L-100.00378,80.9204579 C-98.1769713,94.3230534 -94.1563434,94.3454541 -91.0635527,80.9694593 L-89.3068476,73.3798353 C-86.1934383,59.9086377 -82.1686867,59.9310383 -80.3707444,73.4302368 L-76.1769202,104.849964 C-73.1088718,127.840043 -69.0799965,127.828842 -67.2243221,104.821963 L-60.7170904,24.1921835 C-58.9810039,2.61614661 -54.9521286,2.60074616 -51.768616,24.1571824 L-45.8304579,64.3831697 C-45.104683,69.302915 -41.1582821,69.4611196 -37.0634272,64.7373802 L-36.2428067,63.7951524 C-33.6159965,60.765463 -29.7190802,60.801864 -27.5871165,63.8763548 L-26.531444,65.3967997 C-23.5087565,69.7579284 -19.5499844,69.6949265 -17.7396709,65.2567955 L-13.9087342,55.8765187 C-10.6509947,47.8962831 -6.64686165,47.9424845 -5.00562072,55.9801217 L1.27068253,86.7292293 C3.3531616,96.9369306 7.36966578,96.9537311 10.1985383,86.7670304 L15.2006118,68.7358982 C16.7964918,62.9887286 20.7800062,62.9201266 24.0542406,68.5846938 L26.7470304,73.2454313 C29.1676546,77.4273548 33.122303,77.4273548 35.5388034,73.2454313 L40.6645885,64.3817697 C42.6027374,61.0286707 46.5120248,60.9670689 49.3573922,64.2445656 L50.9409011,66.0702195 C54.4007029,70.0617373 58.3388564,69.9441339 59.6873132,65.8084118 L62.7677327,56.3721333 C65.4646462,48.1188897 69.4729029,48.1314901 71.6790936,56.4029342 L77.1842611,77.0227428 C79.1265336,84.2973575 83.1265429,84.3281584 86.0791271,77.0941449 L90.8997569,65.2833963 C92.4708945,61.4346827 96.4008006,61.3366798 99.6337978,65.0635898 L100.528645,66.0954203 C103.976076,70.0729377 107.914229,69.9553342 109.275057,65.8350126 L114.607028,49.6995363 C117.485386,40.980079 121.50189,41.0024796 123.522513,49.7499378 L127.840049,68.4208889 C130.615313,80.4248432 134.640065,80.4136429 136.776152,68.3928881 L141.044203,44.3947798 C143.732869,29.2869338 147.757621,29.292534 149.992678,44.4101802 L153.662789,69.2889145 C156.586507,89.0882989 160.611259,89.0784987 162.611264,69.2651138 L164.833949,47.2634644 C167.353543,22.3049277 171.382418,22.3063278 173.786547,47.2662645 L177.716454,88.0620686 C180.322645,115.115067 184.35152,115.112267 186.669052,88.0564685 L190.788649,39.9832495 C193.378346,9.72135633 197.411345,9.72415641 199.741247,39.9874497 L204.330948,99.5074065 C206.64848,129.571894 210.677355,129.574694 213.283546,99.5130066 L217.126854,55.2142991 C218.145413,43.4609522 222.161918,43.4049505 226.05471,55.0882954 L230.63204,68.8353011 C232.834107,75.4420962 236.829993,75.4588967 239.518659,68.8731023 L243.341348,59.5110259 C245.724859,53.6672534 249.716621,53.6630533 252.211472,59.5026257 L255.172304,66.4412305 C256.788802,70.2283423 260.718708,70.3235451 263.902221,66.6526367 L266.863052,63.240736 C269.221821,60.5162556 273.089871,60.5162556 275.452763,63.240736 L277.159984,65.2077941 C281.032158,69.6739259 284.978559,69.5269216 285.922891,64.8829845 L291.407439,38.0105913 C294.615694,22.278327 298.64457,22.2993276 300.35179,38.0609928 L306.496134,94.7640665 C308.582737,113.995034 312.611612,114.004834 315.448732,94.783667 L320.475548,60.7052612 C322.046686,50.0677472 326.06319,50.0299461 329.407528,60.6184586 L333.065268,72.2234012 C334.887953,77.9999717 338.871467,78.0503731 341.927144,72.3326044 L345.584885,65.4724019 C347.69623,61.5200852 351.642631,61.4850842 354.351916,65.3953996 L354.351916,65.3967997 C357.378727,69.7579284 361.337499,69.6949265 363.151936,65.2567955 L366.784934,56.3469325 C370.149891,48.1062893 374.158147,48.1580908 375.692171,56.4603359 L378.224136,70.1541401 C381.036514,85.3417884 385.061265,85.330588 387.17261,70.1303394 L393.238604,26.4224493 C396.401498,3.61997624 400.430373,3.63397665 402.187078,26.4532502 L408.599464,109.612905 C410.488129,134.119228 414.517004,134.130428 417.552063,109.638105 L422.611868,68.7806995 C423.968572,57.8393766 427.985077,57.7917752 431.539724,68.6770965 L432.294365,70.9885647 C434.063441,76.4109248 438.046956,76.4669264 441.139746,71.1145684 L443.399545,67.2070531 C446.236665,62.2999082 450.207809,62.3377094 452.232556,67.2910556 L455.931533,76.3577232 C459.049066,83.9977487 463.057323,83.9571475 464.834647,76.2681205 L469.383111,56.5933398 C472.277963,44.0825705 476.298591,44.097971 478.319214,56.6297409 L482.628502,83.331329 C485.412014,100.578438 489.440889,100.568638 491.576977,83.3117284 L495.960492,47.9312841 C498.583179,26.7416587 502.612054,26.7458588 504.91309,47.9396844 L509.308977,88.5226822 C511.766715,111.186551 515.79559,111.186551 518.261575,88.5226822 L521.989419,54.2552708 C523.214164,43.0297395 527.230668,42.9779379 530.917275,54.1418675 L533.84924,63.0125293 C535.721409,68.6854967 539.709048,68.7316981 542.706993,63.1147323 L545.894629,57.1449561 C548.315253,52.601822 552.282273,52.601822 554.707021,57.1449561 L559.977136,67.0166475 C561.828687,70.4873499 565.746221,70.558752 568.678187,67.1748521 L572.092628,63.240736 C574.45552,60.5162556 578.32357,60.5162556 580.686462,63.240736 L582.793684,65.6740078 C586.447301,69.8839321 590.389578,69.7523282 591.552467,65.3813992 L596.459695,46.9904564 C599.766919,34.5902904 603.791671,34.6224913 605.395798,47.0604584 L609.705087,80.4458438 C611.470039,94.1102472 615.490667,94.1326478 618.645314,80.4990454 L623.944295,57.5845691 C625.049452,52.8006279 629.0041,52.6732241 632.731944,57.3031608 L639,65.0943907" id="Stroke-1"></path>
        </g>
    </g>
</svg>