<svg xmlns="http://www.w3.org/2000/svg" width="16" height="16" viewBox="0 0 16 16"><g><g><path d="M14.5 11.52a2.983 2.983 0 0 1-2.98 2.98H4.392a2.983 2.983 0 0 1-2.98-2.98V4.392a2.983 2.983 0 0 1 2.98-2.98h7.13a2.983 2.983 0 0 1 2.979 2.98v7.13zM11.52 0H4.392A4.396 4.396 0 0 0 0 4.391v7.13a4.396 4.396 0 0 0 4.391 4.39h7.13a4.396 4.396 0 0 0 4.39-4.39V4.39A4.396 4.396 0 0 0 11.522 0z"/></g><g><path d="M7.96 10.648A2.691 2.691 0 0 1 5.272 7.96 2.691 2.691 0 0 1 7.96 5.272a2.691 2.691 0 0 1 2.688 2.688 2.691 2.691 0 0 1-2.688 2.688zm0-6.788c-2.26 0-4.1 1.84-4.1 4.1s1.84 4.1 4.1 4.1 4.1-1.84 4.1-4.1-1.84-4.1-4.1-4.1z"/></g><g><path d="M12.225 2.66a1.04 1.04 0 0 0-1.035 1.035c0 .272.111.54.304.733.192.192.46.303.731.303.273 0 .54-.111.733-.303a1.04 1.04 0 0 0 0-1.464 1.04 1.04 0 0 0-.733-.304z"/></g></g></svg>