<svg xmlns="http://www.w3.org/2000/svg" width="15" height="13" viewBox="0 0 15 13"><g><g><path d="M14.997 2.061c-.55.242-1.1.423-1.711.484A3.227 3.227 0 0 0 14.63.912a5.583 5.583 0 0 1-1.894.726 2.972 2.972 0 0 0-2.2-.968C8.886.67 7.54 2 7.54 3.634c0 .241 0 .483.061.665A8.467 8.467 0 0 1 1.37 1.154 2.709 2.709 0 0 0 .94 2.666c0 1.028.55 1.935 1.345 2.48-.49 0-.978-.121-1.345-.363v.06c0 1.452 1.039 2.661 2.383 2.903-.244.06-.488.121-.794.121-.183 0-.367 0-.55-.06.367 1.21 1.467 2.056 2.811 2.056a6.154 6.154 0 0 1-3.728 1.27c-.244 0-.489 0-.733-.06a8.62 8.62 0 0 0 4.583 1.33c5.561 0 8.556-4.536 8.556-8.467v-.363c.611-.423 1.1-.968 1.528-1.512z"/></g></g></svg>