<svg xmlns="http://www.w3.org/2000/svg" width="14" height="13" viewBox="0 0 14 13"><g><g opacity=".5"><path d="M4.783 12.41c0 .326-.268.59-.598.59H1.794a1.818 1.818 0 0 1-1.266-.512A1.746 1.746 0 0 1 0 11.243v-9.47A1.749 1.749 0 0 1 .525.519 1.786 1.786 0 0 1 1.794 0h2.391c.33 0 .598.264.598.59 0 .327-.268.592-.598.592H1.794a.595.595 0 0 0-.598.59v9.47c0 .318.268.576.598.576h2.391c.33 0 .598.265.598.591zm6.053-2.528a.603.603 0 0 1-.846 0 .588.588 0 0 1 0-.837l1.969-1.948H5.032a.595.595 0 0 1-.597-.592c0-.326.268-.592.597-.592h6.927L9.99 3.965a.587.587 0 0 1 0-.837.602.602 0 0 1 .846 0l2.989 2.959a.586.586 0 0 1 0 .837z"/></g></g></svg>