<svg xmlns="http://www.w3.org/2000/svg" width="16" height="12" viewBox="0 0 16 12"><g><g opacity=".6"><path d="M9.825 1.063l5.19 3.668-5.19 3.664v-1.48a.378.378 0 0 0-.364-.363h-.728c-1.93 0-5.467.296-7.932 3.475.272-2.493 1.346-4.177 2.758-5.296 1.637-1.297 3.747-1.82 5.538-1.82h.364c.19 0 .364-.173.364-.364zM9.455 0c-.201 0-.364.163-.364.364v1.818c-1.93 0-4.185.548-5.983 1.971C1.343 5.551.047 7.811 0 11.091v.182a.364.364 0 0 0 .624.254c.064-.066.274-.436.274-.436 2.283-3.582 5.83-3.818 7.83-3.818h.363V9.09a.364.364 0 0 0 .574.297c.025-.019 6.162-4.337 6.227-4.402a.363.363 0 0 0-.017-.533C15.812 4.397 9.77.155 9.692.088A.362.362 0 0 0 9.455 0z"/></g></g></svg>