<svg xmlns="http://www.w3.org/2000/svg" width="14" height="14" viewBox="0 0 14 14"><g><g opacity=".5"><path d="M8.735 7A1.73 1.73 0 0 1 7.01 8.722 1.73 1.73 0 0 1 5.283 7a1.73 1.73 0 0 1 1.726-1.722c.95 0 1.726.774 1.726 1.722zm-4.6 0c0 1.58 1.286 2.869 2.864 2.869a2.872 2.872 0 0 0 2.864-2.87c0-1.58-1.286-2.869-2.864-2.869A2.872 2.872 0 0 0 4.135 7zm5.022-5.625c.173.067.344.144.516.232l.052.027-.023.06-.048.156c-.082.313-.084.637.003.98.103.411.307.74.633 1.065l.121.1.138.098c.516.333 1.161.41 1.77.206l.064-.025.03.066.069.157.07.17.134.353.044.127-.084.04-.152.087c-.197.123-.376.28-.543.469-.293.35-.424.754-.424 1.217 0 .349.067.669.222.976.205.343.426.59.7.754l.086.049.09.046.112.052-.014.048-.092.252c-.066.17-.14.34-.225.516l-.043.084-.162-.05-.164-.039c-.706-.146-1.328.043-1.842.592l-.111.12-.1.123c-.374.504-.462 1.112-.27 1.75l.04.12-.088.046-.189.086c-.13.056-.267.11-.414.162l-.197.066-.014-.035-.075-.143a1.886 1.886 0 0 0-.68-.68 2.312 2.312 0 0 0-1.177-.32l-.17.016-.162.026c-.635.126-1.096.512-1.411 1.15l-.007.011-.066-.019-.261-.094a5.75 5.75 0 0 1-.516-.232l-.053-.028.024-.059.048-.156a1.932 1.932 0 0 0-.003-.98c-.103-.41-.307-.74-.634-1.065l-.12-.1-.138-.098a2.045 2.045 0 0 0-1.77-.206l-.046.017-.022-.038-.121-.25a5.375 5.375 0 0 1-.205-.525l-.016-.05.073-.033.147-.082c.239-.147.442-.34.604-.582l.087-.114c.19-.278.291-.639.291-1.044 0-.53-.166-.985-.5-1.373l-.127-.133-.136-.12a2.025 2.025 0 0 0-.301-.2l-.131-.065.09-.246.106-.256.12-.26.042-.084.162.05.165.039c.706.146 1.328-.043 1.842-.592l.111-.12.1-.123c.374-.504.462-1.112.27-1.75l-.041-.122.089-.044.189-.086c.13-.056.267-.11.413-.162l.197-.067.014.036.076.143c.16.277.385.504.68.68.381.216.76.32 1.177.32.81-.047 1.375-.448 1.743-1.191l.006-.013.067.02zM3.189.934a.574.574 0 0 0-.179.767c.318.546.294.938-.03 1.26-.339.363-.7.39-1.338.058a.574.574 0 0 0-.764.226C.464 3.975.18 4.655.016 5.35a.574.574 0 0 0 .446.695c.298.06.498.165.641.33A.883.883 0 0 1 1.326 7c0 .207-.047.35-.148.47-.177.258-.39.385-.706.442a.574.574 0 0 0-.458.69c.178.797.49 1.54.927 2.19.179.267.543.335.806.15.415-.291.887-.263 1.173-.004.168.168.262.32.31.513.071.28.016.51-.193.806a.574.574 0 0 0 .166.818c.717.446 1.42.742 2.187.911.29.064.58-.103.67-.385.212-.66.463-.894.893-.92.182.002.366.052.567.166.22.132.342.33.4.674.056.336.39.549.719.458.912-.252 1.575-.517 2.172-.913a.574.574 0 0 0 .179-.767c-.318-.546-.295-.938.029-1.26.34-.363.7-.39 1.339-.058a.574.574 0 0 0 .764-.226c.414-.73.697-1.41.862-2.106a.574.574 0 0 0-.303-.646l-.204-.095-.265-.115a1.695 1.695 0 0 1-.175-.088.953.953 0 0 1-.285-.323.996.996 0 0 1-.078-.422c0-.206.047-.35.147-.47.2-.225.41-.349.707-.402a.574.574 0 0 0 .465-.653c-.103-.665-.68-2.047-1.044-2.35a.574.574 0 0 0-.696-.027c-.415.291-.887.263-1.173.004a1.058 1.058 0 0 1-.31-.513c-.071-.28-.016-.51.193-.806a.574.574 0 0 0-.166-.818A6.876 6.876 0 0 0 8.61.014a.574.574 0 0 0-.67.385c-.212.66-.463.894-.893.92a1.141 1.141 0 0 1-.567-.166c-.221-.132-.343-.33-.4-.674A.574.574 0 0 0 5.36.021C4.45.273 3.786.538 3.19.934z"/></g></g></svg>