<svg xmlns="http://www.w3.org/2000/svg" width="14" height="16" viewBox="0 0 14 16"><g><g opacity=".5"><path d="M10.844 11.733c.89 0 1.6.71 1.6 1.6 0 .89-.71 1.6-1.6 1.6-.89 0-1.6-.71-1.6-1.6 0-.89.71-1.6 1.6-1.6zM2.667 6.4c.89 0 1.6.71 1.6 1.6 0 .89-.71 1.6-1.6 1.6-.89 0-1.6-.71-1.6-1.6 0-.89.71-1.6 1.6-1.6zm8.177-5.333c.89 0 1.6.71 1.6 1.6 0 .89-.71 1.6-1.6 1.6-.89 0-1.6-.71-1.6-1.6 0-.89.71-1.6 1.6-1.6zm0-1.067a2.675 2.675 0 0 0-2.666 2.667c0 .259.041.507.11.744l-3.971 2.5a2.65 2.65 0 0 0-1.65-.578A2.675 2.675 0 0 0 0 8c0 1.466 1.2 2.667 2.667 2.667.624 0 1.2-.22 1.655-.584l3.967 2.5a2.63 2.63 0 0 0-.111.75c0 1.467 1.2 2.667 2.666 2.667 1.467 0 2.667-1.2 2.667-2.667 0-1.466-1.2-2.666-2.667-2.666-.824 0-1.565.379-2.055.972L5.017 9.26c.203-.376.316-.805.316-1.261 0-.456-.117-.884-.322-1.261C6.261 5.943 7.53 5.152 8.79 4.36c.49.593 1.23.972 2.055.972 1.467 0 2.667-1.2 2.667-2.666C13.511 1.2 12.311 0 10.844 0z"/></g></g></svg>