<svg xmlns="http://www.w3.org/2000/svg" width="338" height="150" viewBox="0 0 338 150"><g><g><g><g><path fill="none" stroke="#fff" stroke-linecap="round" stroke-linejoin="round" stroke-miterlimit="50" d="M256.03 94.722h-3.79"/></g><g><path fill="none" stroke="#fff" stroke-dasharray="5.811 5.811" stroke-linecap="round" stroke-linejoin="round" stroke-miterlimit="50" d="M244.915 94.726v0H228.24a6.793 6.793 0 0 1-6.821-6.82V41.42a6.793 6.793 0 0 1 6.821-6.821h76.421a6.793 6.793 0 0 1 6.821 6.821v15.663"/></g><g><path fill="none" stroke="#fff" stroke-linecap="round" stroke-linejoin="round" stroke-miterlimit="50" d="M311.362 60.75v3.79"/></g></g><g><path fill="none" stroke="#fff" stroke-linecap="round" stroke-linejoin="round" stroke-miterlimit="50" d="M301.88 148.662h7.074"/></g><g><path fill="none" stroke="#fff" stroke-linecap="round" stroke-linejoin="round" stroke-miterlimit="50" d="M5.04 148.662h290.653"/></g><g><g><path fill="none" stroke="#fff" stroke-linecap="round" stroke-linejoin="round" stroke-miterlimit="50" d="M290.645 122.14c16.952 0 30.694-13.743 30.694-30.695 0-16.952-13.742-30.695-30.694-30.695-16.952 0-30.695 13.742-30.695 30.695 0 16.952 13.742 30.694 30.695 30.694z"/></g><g><path fill="none" stroke="#fff" stroke-linecap="round" stroke-linejoin="round" stroke-miterlimit="50" d="M318.434 113.8l16.674 21.347c2.779 3.537 2.147 8.716-1.39 11.495v0c-3.536 2.78-8.715 2.147-11.494-1.39l-16.674-21.347v0s12.505-10.105 12.884-10.105z"/></g><g><path fill="none" stroke="#fff" stroke-linecap="round" stroke-linejoin="round" stroke-miterlimit="50" d="M306.56 117.72l2.274 3.032"/></g><g><path fill="none" stroke="#fff" stroke-linecap="round" stroke-linejoin="round" stroke-miterlimit="50" d="M312.75 112.66l2.526 3.158"/></g><g><path fill="none" stroke="#fff" stroke-linecap="round" stroke-linejoin="round" stroke-miterlimit="50" d="M315.395 86.264c1.895 9.095-1.39 18.948-9.22 25.01-10.99 8.59-26.906 6.57-35.496-4.42-8.59-10.99-6.568-26.905 4.421-35.495 10.485-8.21 25.516-6.821 34.358 3.032"/></g><g><path fill="none" stroke="#fff" stroke-linecap="round" stroke-linejoin="round" stroke-miterlimit="50" d="M314.013 81.97c.252.758.505 1.39.758 2.147"/></g><g><path fill="none" stroke="#fff" stroke-linecap="round" stroke-linejoin="round" stroke-miterlimit="50" d="M311.36 76.92c.632.884 1.137 1.768 1.642 2.653"/></g></g><g><path fill="none" stroke="#fff" stroke-linecap="round" stroke-linejoin="round" stroke-miterlimit="50" d="M302.008 83.356h-23.495c-.758 0-1.263-.631-1.263-1.263v0c0-.758.632-1.263 1.263-1.263h23.495c.758 0 1.263.632 1.263 1.263v0c.126.632-.505 1.263-1.263 1.263z"/></g><g><path fill="none" stroke="#fff" stroke-linecap="round" stroke-linejoin="round" stroke-miterlimit="50" d="M302.008 91.816h-23.495c-.758 0-1.263-.631-1.263-1.263v0c0-.758.632-1.263 1.263-1.263h23.495c.758 0 1.263.632 1.263 1.263v0c.126.758-.505 1.263-1.263 1.263z"/></g><g><path fill="none" stroke="#fff" stroke-linecap="round" stroke-linejoin="round" stroke-miterlimit="50" d="M293.924 100.406h-15.41c-.759 0-1.264-.631-1.264-1.263v0c0-.758.632-1.263 1.263-1.263h15.41c.759 0 1.264.632 1.264 1.263v0c0 .632-.505 1.263-1.263 1.263z"/></g><g><path fill="none" stroke="#fff" stroke-linecap="round" stroke-linejoin="round" stroke-miterlimit="50" d="M251.863 57.083v1.895c0 1.263-1.01 2.4-2.4 2.4H236.2c-1.263 0-2.4-1.01-2.4-2.4V48.62c0-1.263 1.01-2.4 2.4-2.4h13.263c1.263 0 2.4 1.01 2.4 2.4v5.432"/></g><g><path fill="none" stroke="#fff" stroke-linecap="round" stroke-linejoin="round" stroke-miterlimit="50" d="M237.711 77.172a2.021 2.021 0 1 0 0-4.042 2.021 2.021 0 0 0 0 4.042z"/></g><g><path fill="none" stroke="#fff" stroke-linecap="round" stroke-linejoin="round" stroke-miterlimit="50" d="M169.631 45.712a2.021 2.021 0 1 0 0-4.042 2.021 2.021 0 0 0 0 4.042z"/></g><g><path fill="none" stroke="#fff" stroke-linecap="round" stroke-linejoin="round" stroke-miterlimit="50" d="M235.694 75.144v0h-15.41c-8.59 0-15.537-6.948-15.537-15.537v0c0-8.59-6.948-15.537-15.537-15.537h-16.8v0"/></g><g><path fill="none" stroke="#fff" stroke-linecap="round" stroke-linejoin="round" stroke-miterlimit="50" d="M169.249 47.994v40.42c0 2.906-2.274 5.18-5.179 5.18h-38.021c-2.905 0-5.179-2.274-5.179-5.18V40.92v0"/></g><g><path fill="none" stroke="#fff" stroke-linecap="round" stroke-linejoin="round" stroke-miterlimit="50" d="M120.75 28.916v0V6.179c0-2.905 2.274-5.179 5.179-5.179h38.147c2.906 0 5.18 2.274 5.18 5.179v33.474"/></g><g><path fill="none" stroke="#fff" stroke-linecap="round" stroke-linejoin="round" stroke-miterlimit="50" d="M146.012 47.863c6.976 0 12.631-5.655 12.631-12.631 0-6.977-5.655-12.632-12.631-12.632-6.977 0-12.632 5.655-12.632 12.632 0 6.976 5.655 12.631 12.632 12.631z"/></g><g><path fill="none" stroke="#fff" stroke-linecap="round" stroke-linejoin="round" stroke-miterlimit="50" d="M106.22 38.896v0h-3.79v0-7.326 0h25.01v7.326h-19.073v0"/></g><g><path fill="none" stroke="#fff" stroke-linecap="round" stroke-linejoin="round" stroke-miterlimit="50" d="M142.35 53.8v0h7.326v22.99h-7.326v0z"/></g><g><path fill="none" stroke="#fff" stroke-linecap="round" stroke-linejoin="round" stroke-miterlimit="50" d="M128.07 35.102h5.053"/></g><g><path fill="none" stroke="#fff" stroke-linecap="round" stroke-linejoin="round" stroke-miterlimit="50" d="M146.012 48.24v5.305"/></g><g><path fill="none" stroke="#fff" stroke-linecap="round" stroke-linejoin="round" stroke-miterlimit="50" d="M97.255 36.87a1.895 1.895 0 1 0 0-3.79 1.895 1.895 0 0 0 0 3.79z"/></g><g><path fill="none" stroke="#fff" stroke-linecap="round" stroke-linejoin="round" stroke-miterlimit="50" d="M89.675 36.87a1.895 1.895 0 1 0 0-3.79 1.895 1.895 0 0 0 0 3.79z"/></g><g><path fill="none" stroke="#fff" stroke-linecap="round" stroke-linejoin="round" stroke-miterlimit="50" d="M82.095 36.87a1.895 1.895 0 1 0 0-3.79 1.895 1.895 0 0 0 0 3.79z"/></g><g><g><path fill="none" stroke="#fff" stroke-linecap="round" stroke-linejoin="round" stroke-miterlimit="50" d="M146.137 41.547v0A1.132 1.132 0 0 1 145 40.411v-7.074c0-.632.505-1.137 1.137-1.137v0c.631 0 1.137.505 1.137 1.137v7.074c0 .631-.506 1.136-1.137 1.136z"/></g><g><path fill="none" stroke="#fff" stroke-linecap="round" stroke-linejoin="round" stroke-miterlimit="50" d="M146.133 30.306a1.263 1.263 0 1 0 0-2.526 1.263 1.263 0 0 0 0 2.526z"/></g></g><g><path fill="none" stroke="#fff" stroke-linecap="round" stroke-linejoin="round" stroke-miterlimit="50" d="M163.19 7.062h1.895"/></g><g><path fill="none" stroke="#fff" stroke-linecap="round" stroke-linejoin="round" stroke-miterlimit="50" d="M123.4 7.062h36"/></g><g><path fill="none" stroke="#fff" stroke-linecap="round" stroke-linejoin="round" stroke-miterlimit="50" d="M144.616 89.293a2.526 2.526 0 1 0 0-5.053 2.526 2.526 0 0 0 0 5.053z"/></g><g><path fill="none" stroke="#fff" stroke-linecap="round" stroke-linejoin="round" stroke-miterlimit="50" d="M149.67 86.642h13.642"/></g><g><path fill="none" stroke="#fff" stroke-linecap="round" stroke-linejoin="round" stroke-miterlimit="50" d="M125.8 86.642h15.916"/></g><g><path fill="none" stroke="#fff" stroke-linecap="round" stroke-linejoin="round" stroke-miterlimit="50" d="M101.552 102.94v1.895"/></g><g><path fill="none" stroke="#fff" stroke-linecap="round" stroke-linejoin="round" stroke-miterlimit="50" d="M101.552 99.4v1.39"/></g><g><path fill="none" stroke="#fff" stroke-linecap="round" stroke-linejoin="round" stroke-miterlimit="50" d="M92.196 111.402v0h-18.82c-.127 0-.38.126-.506.126l-4.295 4.295c-.379.379-1.137.126-1.137-.38l-.126-3.41c0-.379-.253-.631-.631-.631v0a5.795 5.795 0 0 1-5.811-5.811v-15.41a5.795 5.795 0 0 1 5.81-5.811h29.053a5.795 5.795 0 0 1 5.81 5.81v7.327"/></g><g><path fill="none" stroke="#fff" stroke-linecap="round" stroke-linejoin="round" stroke-miterlimit="50" d="M118.849 129.972l-.884 5.432v0l-5.684-5.432v0h-7.453c-5.684 0-10.358-4.674-10.358-10.358v-2.526c0-5.684 4.674-10.358 10.358-10.358h14.02c5.685 0 10.359 4.674 10.359 10.358v2.526c-.126 5.81-4.674 10.358-10.358 10.358z"/></g><g><g><path fill="none" stroke="#fff" stroke-linecap="round" stroke-linejoin="round" stroke-miterlimit="50" d="M103.947 120.875a2.147 2.147 0 1 0 0-4.295 2.147 2.147 0 0 0 0 4.295z"/></g><g><path fill="none" stroke="#fff" stroke-linecap="round" stroke-linejoin="round" stroke-miterlimit="50" d="M112.027 120.875a2.147 2.147 0 1 0 0-4.295 2.147 2.147 0 0 0 0 4.295z"/></g><g><path fill="none" stroke="#fff" stroke-linecap="round" stroke-linejoin="round" stroke-miterlimit="50" d="M120.117 120.875a2.147 2.147 0 1 0 0-4.295 2.147 2.147 0 0 0 0 4.295z"/></g></g><g><g><path fill="none" stroke="#fff" stroke-linecap="round" stroke-linejoin="round" stroke-miterlimit="50" d="M80.834 31.572C74.644 17.172 60.371 6.94 43.571 6.94v0C19.95 6.94.75 26.266 1.002 49.887v3.158c0 5.81 4.8 10.484 10.611 10.484v0a8.464 8.464 0 0 0 8.463-8.463v-5.052c0-11.874 9.6-21.474 21.474-21.474v0c11.874 0 21.474 9.6 21.474 21.474v0c0 10.105-3.664 19.831-10.485 27.41l-1.768 2.021c-8.337 9.348-13.01 21.474-13.01 33.98v1.515a7.332 7.332 0 0 0 7.326 7.326h5.81c4.042 0 7.2-3.158 7.327-7.2v0c0-1.768.126-3.537.378-5.305"/></g><g><path fill="none" stroke="#fff" stroke-linecap="round" stroke-linejoin="round" stroke-miterlimit="50" d="M72.49 80.325v0c7.453-7.705 11.621-17.937 11.621-28.673v-4.169c0-2.905-.253-5.684-.884-8.463"/></g><g><path fill="none" stroke="#fff" stroke-linecap="round" stroke-linejoin="round" stroke-miterlimit="50" d="M55.696 131.74c.38.505.758 1.01 1.01 1.516"/></g><g><path fill="none" stroke="#fff" stroke-linecap="round" stroke-linejoin="round" stroke-miterlimit="50" d="M57.846 138.048c0 5.684-4.674 10.358-10.358 10.358s-10.358-4.674-10.358-10.358 4.674-10.358 10.358-10.358c.884 0 1.642.126 2.4.253"/></g></g><g><g><path fill="none" stroke="#fff" stroke-linecap="round" stroke-linejoin="round" stroke-miterlimit="50" d="M88.54 91.062h4.421"/></g><g><path fill="none" stroke="#fff" stroke-linecap="round" stroke-linejoin="round" stroke-miterlimit="50" d="M69.08 91.062h16.674"/></g><g><path fill="none" stroke="#fff" stroke-linecap="round" stroke-linejoin="round" stroke-miterlimit="50" d="M77.8 97.252h15.158"/></g><g><path fill="none" stroke="#fff" stroke-linecap="round" stroke-linejoin="round" stroke-miterlimit="50" d="M69.08 97.252h5.432"/></g><g><path fill="none" stroke="#fff" stroke-linecap="round" stroke-linejoin="round" stroke-miterlimit="50" d="M84.49 103.572h8.463"/></g><g><path fill="none" stroke="#fff" stroke-linecap="round" stroke-linejoin="round" stroke-miterlimit="50" d="M69.08 103.572h12.253"/></g></g><g><path fill="none" stroke="#fff" stroke-miterlimit="50" d="M197.42 148.667h-18.947c-.758 0-1.263-.505-1.263-1.263v-32.21c0-.759.505-1.264 1.263-1.264h18.948c.757 0 1.263.505 1.263 1.263v32.21c0 .632-.632 1.264-1.263 1.264z"/></g><g><g><path fill="none" stroke="#fff" stroke-linecap="round" stroke-miterlimit="50" d="M167.48 108.494c3.158-4.42 7.074-5.052 11.368-4.547"/></g><g><path fill="none" stroke="#fff" stroke-linecap="round" stroke-miterlimit="50" d="M171.27 111.521c2.147-2.905 4.674-3.41 7.579-3.031"/></g><g><path fill="none" stroke="#fff" stroke-linecap="round" stroke-miterlimit="50" d="M163.44 105.711c3.79-5.305 8.59-7.705 16.547-6.695"/></g></g><g><g><path fill="none" stroke="#fff" stroke-linecap="round" stroke-miterlimit="50" d="M208.408 108.494c-3.157-4.42-7.073-5.052-11.368-4.547"/></g><g><path fill="none" stroke="#fff" stroke-linecap="round" stroke-miterlimit="50" d="M204.619 111.521c-2.147-2.905-4.674-3.41-7.579-3.031"/></g><g><path fill="none" stroke="#fff" stroke-linecap="round" stroke-miterlimit="50" d="M212.457 105.711c-3.79-5.305-8.59-7.705-16.547-6.695"/></g></g><g><path fill="none" stroke="#fff" stroke-linecap="round" stroke-miterlimit="50" d="M192.624 122.267a2.274 2.274 0 1 0 0-4.547 2.274 2.274 0 0 0 0 4.547z"/></g><g><path fill="none" stroke="#fff" stroke-linecap="round" stroke-miterlimit="50" d="M196.54 119.862h1.768"/></g><g><path fill="none" stroke="#fff" stroke-linecap="round" stroke-miterlimit="50" d="M177.34 119.862h11.242"/></g><g><path fill="none" stroke="#fff" stroke-linecap="round" stroke-miterlimit="50" d="M209.8 128.96a2.4 2.4 0 1 0 0-4.8 2.4 2.4 0 0 0 0 4.8z"/></g><g><path fill="none" stroke="#fff" stroke-linecap="round" stroke-miterlimit="50" d="M231.91 110.77a2.4 2.4 0 1 0 0-4.8 2.4 2.4 0 0 0 0 4.8z"/></g><g><path fill="none" stroke="#fff" stroke-linecap="round" stroke-miterlimit="50" d="M212.07 126.556v0h8.463a11.59 11.59 0 0 0 11.621-11.621v-4.295 0"/></g><g><path fill="none" stroke="#fff" stroke-linecap="round" stroke-miterlimit="50" d="M34.977 141.969v0H12.24v0-40.547 0l3.916-3.916v0l3.284-3.916v0h19.074v0"/></g><g><path fill="none" stroke="#fff" stroke-linecap="round" stroke-miterlimit="50" d="M20.196 95.11v3.537c0 2.02-1.642 3.537-3.537 3.537H13.88v0"/></g><g><g><path fill="none" stroke="#fff" stroke-linecap="round" stroke-miterlimit="50" d="M20.96 107.612h10.232"/></g><g><path fill="none" stroke="#fff" stroke-linecap="round" stroke-miterlimit="50" d="M17.29 107.612h1.263"/></g></g><g><g><path fill="none" stroke="#fff" stroke-linecap="round" stroke-miterlimit="50" d="M20.96 113.672h10.232"/></g><g><path fill="none" stroke="#fff" stroke-linecap="round" stroke-miterlimit="50" d="M17.29 113.672h1.263"/></g></g><g><g><path fill="none" stroke="#fff" stroke-linecap="round" stroke-miterlimit="50" d="M20.96 119.742h10.232"/></g><g><path fill="none" stroke="#fff" stroke-linecap="round" stroke-miterlimit="50" d="M17.29 119.742h1.263"/></g></g><g><g><path fill="none" stroke="#fff" stroke-linecap="round" stroke-miterlimit="50" d="M20.96 125.802h10.232"/></g><g><path fill="none" stroke="#fff" stroke-linecap="round" stroke-miterlimit="50" d="M17.29 125.802h1.263"/></g></g><g><g><path fill="none" stroke="#fff" stroke-linecap="round" stroke-miterlimit="50" d="M20.96 131.862h10.232"/></g><g><path fill="none" stroke="#fff" stroke-linecap="round" stroke-miterlimit="50" d="M17.29 131.862h1.263"/></g></g><g><path fill="none" stroke="#fff" stroke-linecap="round" stroke-miterlimit="50" d="M255.654 137.671h-9.727c-1.263 0-2.147-1.01-2.147-2.147v-9.727c0-1.263 1.01-2.147 2.147-2.147h9.727c1.263 0 2.147 1.01 2.147 2.147v9.727c.126 1.137-.884 2.147-2.147 2.147z"/></g><g><path fill="none" stroke="#fff" stroke-linecap="round" stroke-miterlimit="50" d="M264.494 138.81v3.916c0 .505-.505 1.01-1.01 1.01h-4.674v0"/></g><g><path fill="none" stroke="#fff" stroke-linecap="round" stroke-miterlimit="50" d="M259.69 117.21v0h3.79c.505 0 1.01.505 1.01 1.01v4.674"/></g><g><path fill="none" stroke="#fff" stroke-linecap="round" stroke-miterlimit="50" d="M238.09 123.024v0-4.673c0-.506.505-1.011 1.01-1.011h4.422v0"/></g><g><path fill="none" stroke="#fff" stroke-linecap="round" stroke-miterlimit="50" d="M242.641 143.606v0h-3.41c-.506 0-1.011-.505-1.011-1.01v-3.916 0"/></g><g><path fill="none" stroke="#fff" stroke-miterlimit="50" d="M134.26 148.537c-.885-1.515-1.516-3.031-2.022-4.673-.252-.758-.126-1.137.632-1.516 1.642-.758 2.526-2.021 2.526-3.79 0-1.894-.884-3.031-2.526-3.79-.632-.252-.758-.63-.632-1.389.506-1.768 1.137-3.41 2.021-5.052.38-.632.758-.758 1.39-.505 1.768.757 3.284.378 4.547-.885s1.516-2.905.758-4.547c-.379-.758-.126-1.137.505-1.516 1.516-.884 3.032-1.516 4.674-2.02.758-.254 1.263-.127 1.516.63.631 1.643 1.895 2.527 3.79 2.527 1.894 0 3.157-.884 3.789-2.653.252-.631.631-.884 1.39-.631 1.768.505 3.41 1.137 5.052 2.02.631.38.758.632.505 1.39-.758 1.642-.505 3.285.884 4.548 1.263 1.263 2.78 1.515 4.421.884.885-.379 1.264 0 1.642.631.758 1.39 1.264 3.032 1.895 4.422.127.884 0 1.389-1.01 1.894-1.516.632-2.274 1.895-2.274 3.663 0 1.643.758 2.906 2.274 3.664.631.379 1.137.631 1.01 1.515-.631 1.642-1.137 3.285-2.02 4.8"/></g><g><path fill="none" stroke="#fff" stroke-linecap="round" stroke-miterlimit="50" d="M159.777 129.97a11.643 11.643 0 0 1 3.664 8.463c0 4.295-2.4 8.084-5.811 10.105"/></g><g><path fill="none" stroke="#fff" stroke-linecap="round" stroke-miterlimit="50" d="M157.38 128.196c.378.252.505.379.884.631"/></g><g><path fill="none" stroke="#fff" stroke-linecap="round" stroke-miterlimit="50" d="M145.76 148.533c-3.41-2.021-5.81-5.81-5.81-10.106 0-6.442 5.179-11.747 11.747-11.747 1.516 0 2.906.253 4.169.758"/></g><g><path fill="none" stroke="#fff" stroke-miterlimit="50" d="M151.698 142.597a4.168 4.168 0 1 0 0-8.337 4.168 4.168 0 0 0 0 8.337z"/></g><g><path fill="none" stroke="#fff" stroke-linecap="round" stroke-linejoin="round" stroke-miterlimit="50" d="M312.37 148.542h2.147"/></g></g></g></svg>