<svg xmlns="http://www.w3.org/2000/svg" width="12" height="14" viewBox="0 0 12 14"><g><g opacity=".5"><path d="M6 8.192c3.145 0 5.73 2.256 5.73 5.092a.716.716 0 0 1-1.432 0c0-1.998-1.904-3.66-4.298-3.66s-4.298 1.662-4.298 3.66a.716.716 0 0 1-1.432 0c0-2.836 2.586-5.092 5.73-5.092zM9.581 3.62c0 1.994-1.597 3.62-3.58 3.62-1.984 0-3.582-1.626-3.582-3.62C2.42 1.627 4.017 0 6 0c1.984 0 3.581 1.627 3.581 3.62zm-5.73 0c0 1.209.962 2.188 2.15 2.188 1.186 0 2.148-.98 2.148-2.188 0-1.208-.962-2.188-2.149-2.188s-2.149.98-2.149 2.188z"/></g></g></svg>